<?xml version="1.0" encoding="utf-8"?>
<!-- Generator: Adobe Illustrator 24.0.0, SVG Export Plug-In . SVG Version: 6.00 Build 0)  -->
<svg version="1.1" id="_x3C_Layer_x3E_" xmlns="http://www.w3.org/2000/svg" xmlns:xlink="http://www.w3.org/1999/xlink" x="0px"
	 y="0px" viewBox="0 0 408 99.6" style="enable-background:new 0 0 408 99.6;" xml:space="preserve">
<style type="text/css">
	.st0{fill:#6D6E71;}
	.st1{fill:#00AEEF;}
	.st2{fill:#F47D20;}
	.st3{fill:#0080C7;}
</style>
<g>
	<g>
		<g>
			<path class="st0" d="M145.1,35.9c3.6,2,6.4,4.9,8.4,8.5c2,3.6,3,7.7,3,12.3c0,4.6-1,8.7-3,12.3c-2,3.6-4.8,6.5-8.4,8.5
				c-3.6,2-7.7,3.1-12.3,3.1h-11.1c-0.9,0-1.6-0.3-2.3-0.9c-0.6-0.6-0.9-1.4-0.9-2.3V36c0-0.9,0.3-1.7,0.9-2.3
				c0.6-0.6,1.4-0.9,2.3-0.9h11.1C137.4,32.8,141.5,33.9,145.1,35.9z M141.9,72.6c2.7-1.5,4.7-3.7,6.2-6.5c1.5-2.8,2.2-5.9,2.2-9.4
				c0-3.5-0.7-6.6-2.2-9.4c-1.5-2.8-3.6-4.9-6.2-6.5c-2.7-1.5-5.7-2.3-9.1-2.3h-7.9v36.5h7.9C136.2,74.9,139.2,74.2,141.9,72.6z"/>
			<path class="st0" d="M132.8,81.5h-11.1c-1.2,0-2.2-0.4-3-1.2c-0.8-0.8-1.2-1.8-1.2-3V36c0-1.2,0.4-2.2,1.2-3
				c0.8-0.8,1.8-1.2,2.9-1.2h11.1c4.8,0,9,1.1,12.8,3.2l0,0c3.7,2.1,6.7,5.1,8.7,8.8c2.1,3.7,3.1,8,3.1,12.8c0,4.7-1,9.1-3.1,12.8
				c-2.1,3.8-5,6.8-8.7,8.9C141.9,80.5,137.6,81.5,132.8,81.5z M121.8,33.8c-0.6,0-1.2,0.2-1.6,0.6c-0.4,0.4-0.6,0.9-0.6,1.6v41.4
				c0,0.6,0.2,1.1,0.6,1.6c0.4,0.4,0.9,0.6,1.6,0.6h11.1c4.4,0,8.4-1,11.8-2.9c3.4-1.9,6.1-4.7,8-8.1c1.9-3.5,2.9-7.5,2.9-11.9
				c0-4.4-1-8.4-2.9-11.8c-1.9-3.4-4.6-6.1-8-8.1c-3.4-1.9-7.4-2.9-11.8-2.9H121.8z M132.8,75.9H124V37.5h8.9c3.5,0,6.8,0.8,9.6,2.5
				c2.8,1.6,5,3.9,6.6,6.9c1.6,2.9,2.3,6.2,2.3,9.9c0,3.6-0.8,7-2.3,9.9c-1.6,2.9-3.8,5.3-6.6,6.9C139.6,75.1,136.4,75.9,132.8,75.9
				z M125.9,74h6.9c3.2,0,6.1-0.7,8.6-2.2l0,0c2.5-1.4,4.5-3.5,5.9-6.1c1.4-2.6,2.1-5.7,2.1-9c0-3.3-0.7-6.3-2.1-8.9
				c-1.4-2.6-3.4-4.6-5.9-6.1c-2.5-1.5-5.4-2.2-8.6-2.2h-6.9V74z"/>
		</g>
		<g>
			<path class="st0" d="M189.6,49.1c2.5,1.4,4.5,3.5,6,6c1.4,2.6,2.2,5.5,2.2,8.8c0,3.3-0.7,6.2-2.1,8.7c-1.4,2.6-3.4,4.6-6,6
				c-2.5,1.4-5.4,2.2-8.7,2.2c-3.3,0-6.2-0.7-8.7-2.2c-2.6-1.4-4.6-3.5-6-6c-1.4-2.6-2.1-5.5-2.1-8.7c0-3.3,0.7-6.2,2.1-8.8
				c1.4-2.6,3.4-4.6,6-6c2.6-1.4,5.5-2.2,8.7-2.2C184.2,46.9,187.1,47.6,189.6,49.1z M175.4,53.9c-1.6,1-2.9,2.3-3.9,4.1
				c-0.9,1.8-1.4,3.7-1.4,5.9c0,2.2,0.5,4.2,1.4,5.9c0.9,1.7,2.2,3.1,3.9,4.1c1.6,1,3.5,1.5,5.6,1.5c2.1,0,3.9-0.5,5.6-1.5
				c1.6-1,2.9-2.3,3.8-4.1c0.9-1.7,1.4-3.7,1.4-5.9c0-2.2-0.5-4.2-1.4-5.9c-0.9-1.8-2.2-3.1-3.8-4.1c-1.6-1-3.5-1.5-5.6-1.5
				C178.9,52.4,177,52.9,175.4,53.9z"/>
			<path class="st0" d="M181,81.8c-3.4,0-6.5-0.8-9.2-2.3c-2.7-1.5-4.9-3.7-6.4-6.4c-1.5-2.7-2.3-5.8-2.3-9.2c0-3.5,0.8-6.6,2.3-9.3
				c1.5-2.7,3.6-4.9,6.4-6.4c2.7-1.5,5.8-2.3,9.2-2.3c3.4,0,6.4,0.8,9.1,2.3l0,0c2.7,1.5,4.8,3.7,6.4,6.4c1.5,2.7,2.3,5.8,2.3,9.3
				c0,3.4-0.8,6.5-2.3,9.2c-1.5,2.7-3.6,4.9-6.3,6.4C187.5,81,184.4,81.8,181,81.8z M181,47.9c-3.1,0-5.8,0.7-8.3,2
				c-2.4,1.3-4.3,3.2-5.6,5.6c-1.3,2.4-2,5.2-2,8.3c0,3.1,0.7,5.9,2,8.3c1.3,2.4,3.2,4.3,5.6,5.6c2.4,1.4,5.2,2,8.3,2
				c3.1,0,5.8-0.7,8.2-2c2.4-1.3,4.3-3.2,5.6-5.6c1.3-2.4,2-5.2,2-8.3c0-3.1-0.7-5.9-2-8.3c-1.4-2.4-3.2-4.3-5.6-5.6l0,0
				C186.7,48.6,184,47.9,181,47.9z M181,76.3c-2.2,0-4.3-0.5-6.1-1.6c-1.8-1.1-3.2-2.6-4.2-4.4c-1-1.9-1.5-4-1.5-6.4
				c0-2.4,0.5-4.5,1.5-6.4c1-1.9,2.4-3.4,4.2-4.5l0,0c1.8-1.1,3.8-1.6,6.1-1.6c2.2,0,4.3,0.5,6.1,1.6c1.8,1.1,3.2,2.6,4.2,4.5
				c1,1.9,1.5,4,1.5,6.4c0,2.4-0.5,4.5-1.5,6.4c-1,1.9-2.4,3.4-4.2,4.4C185.2,75.7,183.2,76.3,181,76.3z M175.9,54.7
				c-1.5,0.9-2.7,2.1-3.5,3.7c-0.9,1.6-1.3,3.4-1.3,5.5c0,2,0.4,3.9,1.3,5.4c0.8,1.6,2,2.8,3.5,3.7c1.5,0.9,3.2,1.3,5.1,1.3
				c1.9,0,3.6-0.4,5.1-1.3c1.5-0.9,2.7-2.1,3.5-3.7c0.8-1.6,1.3-3.4,1.3-5.4c0-2-0.4-3.9-1.3-5.5c-0.8-1.6-2-2.8-3.5-3.7
				c-1.5-0.9-3.2-1.3-5.1-1.3C179.1,53.4,177.4,53.8,175.9,54.7L175.9,54.7z"/>
		</g>
		<g>
			<path class="st0" d="M234.2,35.9c3.6,2,6.4,4.9,8.4,8.5c2,3.6,3,7.7,3,12.3c0,4.6-1,8.7-3,12.3c-2,3.6-4.8,6.5-8.4,8.5
				c-3.6,2-7.7,3.1-12.3,3.1h-11.1c-0.9,0-1.6-0.3-2.3-0.9c-0.6-0.6-0.9-1.4-0.9-2.3V36c0-0.9,0.3-1.7,0.9-2.3
				c0.6-0.6,1.4-0.9,2.3-0.9h11.1C226.5,32.8,230.6,33.9,234.2,35.9z M231,72.6c2.7-1.5,4.7-3.7,6.2-6.5c1.5-2.8,2.2-5.9,2.2-9.4
				c0-3.5-0.7-6.6-2.2-9.4c-1.5-2.8-3.6-4.9-6.2-6.5c-2.7-1.5-5.7-2.3-9.1-2.3H214v36.5h7.9C225.3,74.9,228.3,74.2,231,72.6z"/>
			<path class="st0" d="M221.9,81.5h-11.1c-1.2,0-2.2-0.4-3-1.2c-0.8-0.8-1.2-1.8-1.2-3V36c0-1.2,0.4-2.2,1.2-3
				c0.8-0.8,1.8-1.2,2.9-1.2h11.1c4.8,0,9,1.1,12.8,3.2v0c3.7,2.1,6.7,5.1,8.7,8.8c2.1,3.7,3.1,8,3.1,12.8c0,4.7-1,9.1-3.1,12.8
				c-2.1,3.8-5,6.8-8.7,8.9C230.9,80.5,226.6,81.5,221.9,81.5z M210.8,33.8c-0.6,0-1.2,0.2-1.6,0.6c-0.4,0.4-0.6,0.9-0.6,1.6v41.4
				c0,0.6,0.2,1.1,0.6,1.6c0.4,0.4,0.9,0.6,1.6,0.6h11.1c4.4,0,8.4-1,11.8-2.9c3.4-1.9,6.1-4.7,8-8.1c1.9-3.5,2.9-7.5,2.9-11.9
				c0-4.4-1-8.4-2.9-11.8c-1.9-3.4-4.6-6.1-8-8.1c-3.4-1.9-7.4-2.9-11.8-2.9H210.8z M221.9,75.9H213V37.5h8.9c3.5,0,6.8,0.8,9.6,2.5
				c2.8,1.6,5,3.9,6.6,6.9c1.6,2.9,2.3,6.2,2.3,9.9c0,3.7-0.8,7-2.3,9.9c-1.6,2.9-3.8,5.3-6.6,6.9C228.6,75.1,225.4,75.9,221.9,75.9
				z M215,74h6.9c3.2,0,6.1-0.7,8.6-2.2l0,0c2.5-1.4,4.5-3.5,5.9-6.1c1.4-2.6,2.1-5.7,2.1-9c0-3.3-0.7-6.3-2.1-8.9
				c-1.4-2.6-3.4-4.6-5.9-6.1c-2.5-1.5-5.4-2.2-8.6-2.2H215V74z"/>
		</g>
		<g>
			<path class="st0" d="M276.3,47.7c1.2,0.7,1.8,1.5,1.8,2.4c0,0.3,0,0.5-0.1,0.6c-0.4,1.3-1.2,2-2.4,2c-0.2,0-0.5,0-0.9-0.1
				c-1.6-0.3-3-0.4-4-0.4c-2.9,0-5.3,0.7-7.1,2c-1.8,1.3-2.7,3.2-2.7,5.4v17.8c0,1-0.3,1.7-0.8,2.3c-0.5,0.5-1.3,0.8-2.3,0.8
				c-1,0-1.7-0.3-2.3-0.8c-0.5-0.5-0.8-1.3-0.8-2.3V50.2c0-1,0.3-1.7,0.8-2.3c0.5-0.5,1.3-0.8,2.3-0.8c2,0,3.1,1,3.1,3.1v1.2
				c1.2-1.4,2.7-2.5,4.5-3.4c1.8-0.8,3.7-1.2,5.7-1.2C273.4,46.8,275.1,47.1,276.3,47.7z"/>
			<path class="st0" d="M257.9,81.5c-1.2,0-2.2-0.3-2.9-1c-0.7-0.7-1.1-1.7-1.1-3V50.2c0-1.2,0.4-2.2,1.1-3c0.7-0.7,1.7-1.1,3-1.1
				c2.2,0,3.6,1.1,3.9,3c1-0.8,2-1.5,3.2-2c1.9-0.9,4-1.3,6.1-1.3c2.3,0,4.2,0.4,5.5,1.1l0,0c1.9,1,2.4,2.4,2.4,3.3
				c0,0.4,0,0.7-0.1,0.9c-0.5,1.7-1.7,2.6-3.4,2.6c-0.3,0-0.6,0-1.1-0.1c-1.5-0.3-2.8-0.4-3.8-0.4c-2.7,0-4.9,0.6-6.5,1.8
				c-1.5,1.2-2.3,2.7-2.3,4.7v17.8c0,1.2-0.3,2.2-1,2.9C260.2,81.2,259.2,81.5,257.9,81.5z M257.9,48.1c-0.7,0-1.2,0.2-1.6,0.5
				c-0.3,0.3-0.5,0.9-0.5,1.6v27.3c0,0.7,0.2,1.3,0.5,1.6c0.3,0.3,0.9,0.5,1.6,0.5c0.7,0,1.3-0.2,1.6-0.5c0.3-0.3,0.5-0.9,0.5-1.6
				V59.7c0-2.6,1-4.7,3.1-6.2c2-1.5,4.5-2.2,7.7-2.2c1.1,0,2.4,0.1,4.1,0.4c0.5,0.1,0.7,0.1,0.7,0.1c0.8,0,1.3-0.4,1.5-1.2
				c0,0,0-0.1,0-0.3c0-0.2,0-0.9-1.3-1.6c-1.1-0.6-2.6-0.9-4.6-0.9c-1.9,0-3.7,0.4-5.3,1.1c-1.7,0.8-3.1,1.8-4.2,3.1l-1.7,2v-3.8
				C260,48.7,259.4,48.1,257.9,48.1z"/>
		</g>
		<g>
			<path class="st0" d="M311.3,65.3c-0.5,0.5-1.2,0.8-2,0.8h-23.2c0.4,2.9,1.7,5.2,3.9,6.9c2.1,1.8,4.8,2.6,7.9,2.6
				c1.2,0,2.5-0.2,3.8-0.7c1.3-0.4,2.4-1,3.3-1.6c0.6-0.4,1.2-0.7,2-0.7c0.8,0,1.4,0.2,1.8,0.6c0.7,0.6,1.1,1.3,1.1,2.1
				c0,0.7-0.3,1.3-1,1.8c-1.4,1.1-3.1,2-5.2,2.7c-2.1,0.7-4,1-5.9,1c-3.3,0-6.3-0.7-9-2.2c-2.6-1.4-4.7-3.5-6.2-6
				c-1.5-2.6-2.2-5.5-2.2-8.7c0-3.3,0.7-6.2,2.1-8.8c1.4-2.6,3.4-4.6,5.9-6c2.5-1.4,5.3-2.2,8.5-2.2c3.1,0,5.8,0.7,8.1,2.1
				c2.3,1.4,4,3.3,5.3,5.8c1.2,2.5,1.8,5.3,1.8,8.6C312.1,64.1,311.8,64.7,311.3,65.3z M289.7,54.6c-1.9,1.6-3,3.8-3.5,6.5h20.3
				c-0.4-2.7-1.4-4.9-3.1-6.5c-1.7-1.6-3.8-2.4-6.5-2.4C293.9,52.1,291.5,53,289.7,54.6z"/>
			<path class="st0" d="M297.8,81.8c-3.5,0-6.7-0.8-9.5-2.3c-2.8-1.5-5-3.7-6.6-6.4c-1.6-2.7-2.4-5.8-2.4-9.2c0-3.4,0.7-6.5,2.2-9.2
				c1.5-2.7,3.6-4.9,6.2-6.4c2.6-1.5,5.7-2.3,9-2.3c3.3,0,6.2,0.7,8.6,2.2c2.4,1.5,4.3,3.6,5.6,6.2c1.3,2.6,1.9,5.6,1.9,9
				c0,1-0.4,1.9-1.1,2.6l0,0c-0.7,0.7-1.6,1-2.7,1h-22c0.5,2.1,1.6,3.8,3.3,5.2c2,1.6,4.3,2.4,7.2,2.4c1.1,0,2.3-0.2,3.5-0.6
				c1.2-0.4,2.2-0.9,3-1.5c0.7-0.6,1.6-0.9,2.6-0.9c1,0,1.9,0.3,2.5,0.9c0.9,0.8,1.4,1.7,1.4,2.8c0,1-0.5,1.9-1.4,2.6
				c-1.4,1.2-3.3,2.1-5.4,2.8C301.9,81.4,299.8,81.8,297.8,81.8z M296.9,47.9c-3,0-5.7,0.7-8,2c-2.3,1.3-4.2,3.3-5.5,5.7
				c-1.3,2.4-2,5.2-2,8.3c0,3.1,0.7,5.8,2.1,8.2c1.4,2.4,3.3,4.3,5.8,5.6c2.5,1.4,5.4,2,8.5,2c1.8,0,3.6-0.3,5.6-1
				c1.9-0.7,3.6-1.5,4.9-2.5c0.5-0.4,0.6-0.8,0.6-1.1c0-0.3-0.1-0.8-0.7-1.3c-0.3-0.3-0.7-0.4-1.2-0.4c-0.6,0-1,0.2-1.4,0.5
				c-0.9,0.7-2.1,1.3-3.6,1.8c-1.4,0.5-2.8,0.7-4.1,0.7c-3.3,0-6.2-1-8.5-2.8c-2.3-1.9-3.7-4.4-4.2-7.5l-0.2-1.1h24.4
				c0.6,0,1-0.2,1.3-0.5l0,0c0.3-0.3,0.5-0.7,0.5-1.2c0-3-0.6-5.8-1.7-8.1c-1.1-2.3-2.8-4.1-4.9-5.4
				C302.4,48.5,299.8,47.9,296.9,47.9z M307.6,62.1H285l0.2-1.2c0.5-2.9,1.8-5.3,3.8-7.1l0,0c2-1.8,4.7-2.7,7.9-2.7
				c2.9,0,5.4,0.9,7.2,2.7c1.8,1.8,2.9,4.2,3.3,7.1L307.6,62.1z M287.4,60.1h17.9c-0.4-2-1.3-3.6-2.6-4.9c-1.5-1.5-3.4-2.2-5.9-2.2
				c-2.7,0-4.9,0.7-6.6,2.2C288.9,56.6,287.9,58.2,287.4,60.1z"/>
		</g>
		<g>
			<path class="st0" d="M342.5,49.1c2.5,1.5,4.6,3.5,6,6.1c1.5,2.6,2.2,5.5,2.2,8.6v13.6c0,0.9-0.3,1.6-0.9,2.2
				c-0.6,0.6-1.3,0.9-2.2,0.9c-0.9,0-1.6-0.3-2.2-0.9c-0.6-0.6-0.9-1.3-0.9-2.2v-2.3c-1.4,1.8-3.2,3.1-5.2,4.1c-2,1-4.2,1.5-6.6,1.5
				c-2.9,0-5.6-0.7-8-2.2c-2.4-1.5-4.3-3.5-5.6-6.1c-1.4-2.6-2-5.5-2-8.6c0-3.2,0.7-6.1,2.2-8.6c1.5-2.6,3.5-4.6,6.1-6.1
				c2.6-1.5,5.4-2.2,8.6-2.2C337.1,46.9,340,47.6,342.5,49.1z M339.5,73.8c1.6-1,2.9-2.4,3.9-4.1c0.9-1.7,1.4-3.7,1.4-5.8
				c0-2.2-0.5-4.1-1.4-5.9c-0.9-1.8-2.2-3.1-3.9-4.1c-1.6-1-3.5-1.5-5.5-1.5c-2,0-3.9,0.5-5.5,1.5c-1.6,1-3,2.4-3.9,4.1
				c-1,1.8-1.4,3.7-1.4,5.9c0,2.2,0.5,4.1,1.4,5.8c1,1.7,2.3,3.1,3.9,4.1c1.6,1,3.5,1.5,5.5,1.5C336,75.3,337.9,74.8,339.5,73.8z"/>
			<path class="st0" d="M332.8,81.8c-3.1,0-6-0.8-8.5-2.3c-2.5-1.6-4.5-3.7-6-6.5c-1.4-2.7-2.2-5.8-2.2-9.1c0-3.3,0.8-6.4,2.3-9.1
				c1.5-2.7,3.7-4.9,6.4-6.5c2.7-1.6,5.8-2.4,9.1-2.4c3.3,0,6.3,0.8,9,2.4l0,0c2.7,1.6,4.8,3.7,6.4,6.5c1.6,2.7,2.4,5.8,2.4,9.1
				v13.6c0,1.2-0.4,2.1-1.2,2.9c-0.8,0.8-1.8,1.2-2.9,1.2c-1.2,0-2.1-0.4-2.9-1.2c-0.7-0.7-1.1-1.7-1.2-2.7c-1.1,1-2.4,1.9-3.8,2.5
				C337.6,81.3,335.3,81.8,332.8,81.8z M334,47.9c-2.9,0-5.7,0.7-8.1,2.1c-2.4,1.4-4.3,3.3-5.7,5.7c-1.4,2.4-2.1,5.2-2.1,8.2
				c0,3,0.7,5.8,1.9,8.2c1.3,2.4,3,4.3,5.3,5.7c2.2,1.4,4.7,2.1,7.5,2.1c2.2,0,4.3-0.5,6.2-1.4c1.9-0.9,3.5-2.2,4.9-3.8l1.7-2.1v5
				c0,0.6,0.2,1.1,0.6,1.5c0.4,0.4,0.9,0.6,1.5,0.6c0.6,0,1.1-0.2,1.5-0.6c0.4-0.4,0.6-0.9,0.6-1.5V63.9c0-3-0.7-5.7-2.1-8.2
				c-1.4-2.4-3.3-4.4-5.7-5.8l0,0C339.6,48.6,336.9,47.9,334,47.9z M334,76.3c-2.2,0-4.2-0.6-6-1.6c-1.8-1.1-3.2-2.6-4.3-4.5
				c-1-1.9-1.6-4-1.6-6.3c0-2.3,0.5-4.4,1.6-6.3c1-1.9,2.5-3.4,4.3-4.5c1.8-1.1,3.8-1.6,6-1.6c2.2,0,4.2,0.6,6,1.6
				c1.8,1.1,3.2,2.6,4.2,4.5c1,1.9,1.5,4,1.5,6.3c0,2.3-0.5,4.4-1.5,6.3c-1,1.9-2.4,3.4-4.2,4.5C338.2,75.7,336.2,76.3,334,76.3z
				 M334,53.4c-1.8,0-3.5,0.5-5,1.4c-1.5,0.9-2.7,2.2-3.6,3.8c-0.9,1.6-1.3,3.4-1.3,5.4c0,2,0.4,3.8,1.3,5.4
				c0.9,1.6,2.1,2.8,3.6,3.7c1.5,0.9,3.2,1.4,5,1.4c1.8,0,3.5-0.5,5-1.4c1.5-0.9,2.7-2.2,3.5-3.7c0.9-1.6,1.3-3.4,1.3-5.4
				c0-2-0.4-3.8-1.3-5.4c-0.8-1.6-2-2.8-3.5-3.7C337.5,53.8,335.8,53.4,334,53.4z"/>
		</g>
		<g>
			<path class="st0" d="M403.8,50.3c2.2,2.3,3.3,5.6,3.3,9.7v17.5c0,0.9-0.3,1.6-0.9,2.2s-1.3,0.9-2.3,0.9c-0.9,0-1.6-0.3-2.2-0.9
				c-0.6-0.6-0.9-1.3-0.9-2.2V60c0-2.5-0.6-4.4-1.9-5.7c-1.2-1.3-2.9-1.9-5-1.9c-2.1,0-3.9,0.7-5.2,2.2c-1.4,1.5-2,3.3-2,5.6v17.2
				c0,0.9-0.3,1.6-0.9,2.2c-0.6,0.6-1.3,0.9-2.3,0.9c-0.9,0-1.6-0.3-2.2-0.9c-0.6-0.6-0.9-1.3-0.9-2.2V60c0-2.5-0.6-4.4-1.9-5.7
				c-1.2-1.3-2.9-1.9-5-1.9c-2.2,0-3.9,0.7-5.3,2.2c-1.4,1.5-2,3.3-2,5.6v17.2c0,0.9-0.3,1.6-0.9,2.2c-0.6,0.6-1.3,0.9-2.3,0.9
				c-0.9,0-1.6-0.3-2.2-0.9c-0.6-0.6-0.9-1.3-0.9-2.2V50.3c0-0.9,0.3-1.7,0.9-2.3c0.6-0.6,1.3-0.9,2.2-0.9c0.9,0,1.6,0.3,2.2,0.8
				c0.6,0.5,0.9,1.3,0.9,2.2c1.1-1.1,2.3-1.9,3.8-2.5c1.5-0.6,3.1-0.9,4.8-0.9c2.1,0,3.9,0.4,5.6,1.3c1.6,0.8,3,2,4.1,3.6
				c1.2-1.5,2.7-2.7,4.6-3.5c1.8-0.9,3.9-1.3,6.1-1.3C398.7,46.8,401.6,48,403.8,50.3z"/>
			<path class="st0" d="M403.9,81.6c-1.2,0-2.1-0.4-2.9-1.2c-0.8-0.8-1.2-1.8-1.2-2.9V60c0-2.2-0.5-3.9-1.6-5
				c-1.1-1.1-2.5-1.6-4.3-1.6c-1.9,0-3.3,0.6-4.5,1.9c-1.2,1.3-1.8,2.9-1.8,5v17.2c0,1.2-0.4,2.1-1.1,2.9c-0.8,0.8-1.8,1.2-3,1.2
				c-1.2,0-2.1-0.4-2.9-1.2c-0.8-0.8-1.2-1.8-1.2-2.9V60c0-2.2-0.5-3.9-1.6-5c-1.1-1.1-2.5-1.6-4.3-1.6c-1.9,0-3.4,0.6-4.6,1.9
				c-1.2,1.3-1.8,2.9-1.8,5v17.2c0,1.2-0.4,2.1-1.1,2.9c-0.8,0.8-1.8,1.2-3,1.2c-1.2,0-2.1-0.4-2.9-1.2c-0.8-0.8-1.2-1.8-1.2-2.9
				V50.3c0-1.2,0.4-2.2,1.2-3c0.8-0.8,1.8-1.1,2.9-1.1c1.2,0,2.1,0.4,2.9,1.1c0.3,0.3,0.6,0.7,0.8,1.1c0.9-0.6,1.8-1.2,2.9-1.6
				c1.6-0.6,3.3-1,5.1-1c2.2,0,4.3,0.5,6,1.4c1.4,0.7,2.7,1.7,3.7,2.9c1.2-1.2,2.5-2.2,4.1-2.9c2-0.9,4.2-1.4,6.5-1.4
				c3.8,0,6.9,1.3,9.3,3.8h0c2.3,2.5,3.5,6,3.5,10.4v17.5c0,1.2-0.4,2.1-1.1,2.9C406.1,81.2,405.1,81.6,403.9,81.6z M394,51.5
				c2.3,0,4.3,0.7,5.7,2.2c1.4,1.5,2.1,3.6,2.1,6.3v17.5c0,0.6,0.2,1.1,0.6,1.5c0.4,0.4,0.9,0.6,1.5,0.6c0.7,0,1.2-0.2,1.6-0.6
				c0.4-0.4,0.6-0.9,0.6-1.5V60c0-3.9-1-6.9-3-9c-2-2.1-4.6-3.2-7.9-3.2c-2.1,0-4,0.4-5.7,1.2c-1.7,0.8-3.1,1.9-4.2,3.3l-0.8,1
				l-0.7-1.1c-1-1.4-2.2-2.5-3.7-3.3c-1.5-0.8-3.2-1.1-5.1-1.1c-1.6,0-3.1,0.3-4.4,0.8c-1.3,0.5-2.5,1.3-3.5,2.3l-1.6,1.6l-0.1-2.2
				c0-0.6-0.2-1.1-0.6-1.5c-0.4-0.4-0.9-0.5-1.5-0.5c-0.6,0-1.1,0.2-1.5,0.6c-0.4,0.4-0.6,0.9-0.6,1.6v27.2c0,0.6,0.2,1.1,0.6,1.5
				c0.4,0.4,0.9,0.6,1.5,0.6c0.7,0,1.2-0.2,1.6-0.6c0.4-0.4,0.6-0.9,0.6-1.5V60.3c0-2.5,0.8-4.6,2.3-6.3c1.6-1.7,3.6-2.5,6-2.5
				c2.3,0,4.3,0.7,5.7,2.2c1.4,1.5,2.1,3.6,2.1,6.3v17.5c0,0.6,0.2,1.1,0.6,1.5c0.4,0.4,0.9,0.6,1.5,0.6c0.7,0,1.2-0.2,1.6-0.6
				c0.4-0.4,0.6-0.9,0.6-1.5V60.3c0-2.5,0.8-4.6,2.3-6.3C389.6,52.3,391.6,51.5,394,51.5z"/>
		</g>
	</g>
	<g>
		<path class="st1" d="M67.1,49.1V16.6C67.1,7.4,59.7,0,50.5,0v49.1H67.1z"/>
		<path class="st1" d="M50.5,66.9c-0.4,9-7.8,16.2-17,16.2c-9.4,0-17-7.6-17-17c0-9.4,7.6-17,17-17h54.6c0-9.2-7.4-16.6-16.6-16.6
			h-38c-12.3,0-23.1,6.7-29,16.6c-2.9,5-4.6,10.8-4.6,17c0,18.5,15,33.6,33.6,33.6c9.3,0,17.7-3.8,23.8-9.9
			c5.9-5.9,9.5-13.9,9.7-22.9c0,0,0,0,0,0c0-0.3,0-0.6,0-1V55.2H50.5V66.9z"/>
		<path class="st2" d="M74.3,11.6l0,11.4h11.4c6.3,0,11.4-5.1,11.4-11.4c0-6.3-5.1-11.4-11.4-11.4C79.4,0.2,74.3,5.3,74.3,11.6z"/>
		<polygon class="st3" points="50.5,32.5 67.1,27.4 67.1,32.5 50.5,32.5 		"/>
	</g>
</g>
</svg>
