<?xml version="1.0" encoding="utf-8"?>
<!-- Generator: Adobe Illustrator 24.0.0, SVG Export Plug-In . SVG Version: 6.00 Build 0)  -->
<svg version="1.1" id="Layer_1" xmlns="http://www.w3.org/2000/svg" xmlns:xlink="http://www.w3.org/1999/xlink" x="0px" y="0px"
	 viewBox="0 0 210.2 42.6" style="enable-background:new 0 0 210.2 42.6;" xml:space="preserve">
<style type="text/css">
	.st0{fill:url(#SVGID_1_);}
	.st1{clip-path:url(#SVGID_3_);fill:#6BB831;}
	.st2{clip-path:url(#SVGID_3_);fill:#6CB931;}
	.st3{clip-path:url(#SVGID_3_);fill:#6DB931;}
	.st4{clip-path:url(#SVGID_3_);fill:#6EBA32;}
	.st5{clip-path:url(#SVGID_3_);fill:#6FBA32;}
	.st6{clip-path:url(#SVGID_3_);fill:#70BB32;}
	.st7{clip-path:url(#SVGID_3_);fill:#71BB32;}
	.st8{clip-path:url(#SVGID_3_);fill:#72BC33;}
	.st9{clip-path:url(#SVGID_3_);fill:#73BC33;}
	.st10{clip-path:url(#SVGID_3_);fill:#74BD33;}
	.st11{clip-path:url(#SVGID_3_);fill:#75BD33;}
	.st12{clip-path:url(#SVGID_3_);fill:#76BE33;}
	.st13{clip-path:url(#SVGID_3_);fill:#77BE34;}
	.st14{clip-path:url(#SVGID_3_);fill:#78BF34;}
	.st15{clip-path:url(#SVGID_3_);fill:#79BF34;}
	.st16{clip-path:url(#SVGID_3_);fill:#7AC034;}
	.st17{clip-path:url(#SVGID_3_);fill:#7BC035;}
	.st18{clip-path:url(#SVGID_3_);fill:#7CC135;}
	.st19{clip-path:url(#SVGID_3_);fill:#7DC135;}
	.st20{clip-path:url(#SVGID_3_);fill:#7EC235;}
	.st21{clip-path:url(#SVGID_3_);fill:#7FC336;}
	.st22{clip-path:url(#SVGID_3_);fill:#80C336;}
	.st23{clip-path:url(#SVGID_3_);fill:#81C436;}
	.st24{clip-path:url(#SVGID_3_);fill:#82C436;}
	.st25{clip-path:url(#SVGID_3_);fill:#83C536;}
	.st26{clip-path:url(#SVGID_3_);fill:#84C537;}
	.st27{clip-path:url(#SVGID_3_);fill:#85C637;}
	.st28{clip-path:url(#SVGID_3_);fill:#86C637;}
	.st29{clip-path:url(#SVGID_3_);fill:#87C737;}
	.st30{clip-path:url(#SVGID_3_);fill:#88C738;}
	.st31{clip-path:url(#SVGID_3_);fill:#89C838;}
	.st32{clip-path:url(#SVGID_3_);fill:#8AC838;}
	.st33{clip-path:url(#SVGID_3_);fill:#8BC938;}
	.st34{clip-path:url(#SVGID_3_);fill:#8CC938;}
	.st35{clip-path:url(#SVGID_3_);fill:#8DCA39;}
	.st36{clip-path:url(#SVGID_3_);fill:#8ECA39;}
	.st37{clip-path:url(#SVGID_3_);fill:#8FCB39;}
	.st38{clip-path:url(#SVGID_3_);fill:#90CB39;}
	.st39{clip-path:url(#SVGID_3_);fill:#91CC3A;}
	.st40{clip-path:url(#SVGID_3_);fill:#92CD3A;}
	.st41{clip-path:url(#SVGID_3_);fill:#93CD3A;}
	.st42{clip-path:url(#SVGID_3_);fill:#94CE3A;}
	.st43{clip-path:url(#SVGID_3_);fill:#95CE3A;}
	.st44{clip-path:url(#SVGID_3_);fill:#96CF3B;}
	.st45{clip-path:url(#SVGID_3_);fill:#97CF3B;}
	.st46{clip-path:url(#SVGID_3_);fill:#98D03B;}
	.st47{clip-path:url(#SVGID_3_);fill:#99D03B;}
	.st48{clip-path:url(#SVGID_3_);fill:#9BD13C;}
	.st49{clip-path:url(#SVGID_3_);fill:#9CD13C;}
	.st50{clip-path:url(#SVGID_3_);fill:#9DD23C;}
	.st51{clip-path:url(#SVGID_3_);fill:#9ED23C;}
	.st52{clip-path:url(#SVGID_3_);fill:#9FD33D;}
	.st53{clip-path:url(#SVGID_3_);fill:#A0D33D;}
	.st54{clip-path:url(#SVGID_3_);fill:#A1D43D;}
	.st55{clip-path:url(#SVGID_3_);fill:#A2D43D;}
	.st56{clip-path:url(#SVGID_3_);fill:#A3D53D;}
	.st57{clip-path:url(#SVGID_3_);fill:#A4D63E;}
	.st58{clip-path:url(#SVGID_3_);fill:#A5D63E;}
	.st59{clip-path:url(#SVGID_3_);fill:#A6D73E;}
	.st60{clip-path:url(#SVGID_3_);fill:#A7D73E;}
	.st61{clip-path:url(#SVGID_3_);fill:#A8D83F;}
	.st62{clip-path:url(#SVGID_3_);fill:#A9D83F;}
	.st63{clip-path:url(#SVGID_3_);fill:#AAD93F;}
	.st64{clip-path:url(#SVGID_3_);fill:#ABD93F;}
	.st65{clip-path:url(#SVGID_3_);fill:#ACDA3F;}
	.st66{clip-path:url(#SVGID_3_);fill:#ADDA40;}
	.st67{clip-path:url(#SVGID_3_);fill:#AEDB40;}
	.st68{clip-path:url(#SVGID_3_);fill:#AFDB40;}
	.st69{clip-path:url(#SVGID_3_);fill:#B0DC40;}
	.st70{clip-path:url(#SVGID_3_);fill:#B1DC41;}
	.st71{clip-path:url(#SVGID_3_);fill:#B2DD41;}
	.st72{clip-path:url(#SVGID_3_);fill:#B3DD41;}
	.st73{clip-path:url(#SVGID_3_);fill:#B4DE41;}
	.st74{clip-path:url(#SVGID_3_);fill:#B5DE41;}
	.st75{clip-path:url(#SVGID_3_);fill:#B6DF42;}
	.st76{clip-path:url(#SVGID_3_);fill:#B7E042;}
	.st77{clip-path:url(#SVGID_3_);fill:#B8E042;}
	.st78{clip-path:url(#SVGID_3_);fill:#B9E142;}
	.st79{clip-path:url(#SVGID_3_);fill:#BAE143;}
	.st80{clip-path:url(#SVGID_3_);fill:#BBE243;}
	.st81{clip-path:url(#SVGID_3_);fill:#BCE243;}
	.st82{clip-path:url(#SVGID_3_);fill:#BDE343;}
	.st83{clip-path:url(#SVGID_3_);fill:#BEE344;}
	.st84{clip-path:url(#SVGID_3_);fill:#BFE444;}
	.st85{clip-path:url(#SVGID_3_);fill:#C0E444;}
	.st86{clip-path:url(#SVGID_3_);fill:#C1E544;}
	.st87{clip-path:url(#SVGID_3_);fill:#C2E544;}
	.st88{clip-path:url(#SVGID_3_);fill:#C3E645;}
	.st89{clip-path:url(#SVGID_3_);fill:#C4E645;}
	.st90{clip-path:url(#SVGID_3_);fill:#C5E745;}
	.st91{clip-path:url(#SVGID_3_);fill:#C6E745;}
	.st92{clip-path:url(#SVGID_3_);fill:#C7E846;}
	.st93{clip-path:url(#SVGID_3_);fill:#C8E846;}
	.st94{clip-path:url(#SVGID_3_);fill:#C9E946;}
	.st95{clip-path:url(#SVGID_5_);fill:#6BB831;}
	.st96{clip-path:url(#SVGID_5_);fill:#6CB931;}
	.st97{clip-path:url(#SVGID_5_);fill:#6DB931;}
	.st98{clip-path:url(#SVGID_5_);fill:#6EBA32;}
	.st99{clip-path:url(#SVGID_5_);fill:#6FBA32;}
	.st100{clip-path:url(#SVGID_5_);fill:#70BB32;}
	.st101{clip-path:url(#SVGID_5_);fill:#71BB32;}
	.st102{clip-path:url(#SVGID_5_);fill:#72BC33;}
	.st103{clip-path:url(#SVGID_5_);fill:#73BC33;}
	.st104{clip-path:url(#SVGID_5_);fill:#74BD33;}
	.st105{clip-path:url(#SVGID_5_);fill:#75BD33;}
	.st106{clip-path:url(#SVGID_5_);fill:#76BE33;}
	.st107{clip-path:url(#SVGID_5_);fill:#77BE34;}
	.st108{clip-path:url(#SVGID_5_);fill:#78BF34;}
	.st109{clip-path:url(#SVGID_5_);fill:#79BF34;}
	.st110{clip-path:url(#SVGID_5_);fill:#7AC034;}
	.st111{clip-path:url(#SVGID_5_);fill:#7BC035;}
	.st112{clip-path:url(#SVGID_5_);fill:#7CC135;}
	.st113{clip-path:url(#SVGID_5_);fill:#7DC135;}
	.st114{clip-path:url(#SVGID_5_);fill:#7EC235;}
	.st115{clip-path:url(#SVGID_5_);fill:#7FC336;}
	.st116{clip-path:url(#SVGID_5_);fill:#80C336;}
	.st117{clip-path:url(#SVGID_5_);fill:#81C436;}
	.st118{clip-path:url(#SVGID_5_);fill:#82C436;}
	.st119{clip-path:url(#SVGID_5_);fill:#83C536;}
	.st120{clip-path:url(#SVGID_5_);fill:#84C537;}
	.st121{clip-path:url(#SVGID_5_);fill:#85C637;}
	.st122{clip-path:url(#SVGID_5_);fill:#86C637;}
	.st123{clip-path:url(#SVGID_5_);fill:#87C737;}
	.st124{clip-path:url(#SVGID_5_);fill:#88C738;}
	.st125{clip-path:url(#SVGID_5_);fill:#89C838;}
	.st126{clip-path:url(#SVGID_5_);fill:#8AC838;}
	.st127{clip-path:url(#SVGID_5_);fill:#8BC938;}
	.st128{clip-path:url(#SVGID_5_);fill:#8CC938;}
	.st129{clip-path:url(#SVGID_5_);fill:#8DCA39;}
	.st130{clip-path:url(#SVGID_5_);fill:#8ECA39;}
	.st131{clip-path:url(#SVGID_5_);fill:#8FCB39;}
	.st132{clip-path:url(#SVGID_5_);fill:#90CB39;}
	.st133{clip-path:url(#SVGID_5_);fill:#91CC3A;}
	.st134{clip-path:url(#SVGID_5_);fill:#92CD3A;}
	.st135{clip-path:url(#SVGID_5_);fill:#93CD3A;}
	.st136{clip-path:url(#SVGID_5_);fill:#94CE3A;}
	.st137{clip-path:url(#SVGID_5_);fill:#95CE3A;}
	.st138{clip-path:url(#SVGID_5_);fill:#96CF3B;}
	.st139{clip-path:url(#SVGID_5_);fill:#97CF3B;}
	.st140{clip-path:url(#SVGID_5_);fill:#98D03B;}
	.st141{clip-path:url(#SVGID_5_);fill:#99D03B;}
	.st142{clip-path:url(#SVGID_5_);fill:#9BD13C;}
	.st143{clip-path:url(#SVGID_5_);fill:#9CD13C;}
	.st144{clip-path:url(#SVGID_5_);fill:#9DD23C;}
	.st145{clip-path:url(#SVGID_5_);fill:#9ED23C;}
	.st146{clip-path:url(#SVGID_5_);fill:#9FD33D;}
	.st147{clip-path:url(#SVGID_5_);fill:#A0D33D;}
	.st148{clip-path:url(#SVGID_5_);fill:#A1D43D;}
	.st149{clip-path:url(#SVGID_5_);fill:#A2D43D;}
	.st150{clip-path:url(#SVGID_5_);fill:#A3D53D;}
	.st151{clip-path:url(#SVGID_5_);fill:#A4D63E;}
	.st152{clip-path:url(#SVGID_5_);fill:#A5D63E;}
	.st153{clip-path:url(#SVGID_5_);fill:#A6D73E;}
	.st154{clip-path:url(#SVGID_5_);fill:#A7D73E;}
	.st155{clip-path:url(#SVGID_5_);fill:#A8D83F;}
	.st156{clip-path:url(#SVGID_5_);fill:#A9D83F;}
	.st157{clip-path:url(#SVGID_5_);fill:#AAD93F;}
	.st158{clip-path:url(#SVGID_5_);fill:#ABD93F;}
	.st159{clip-path:url(#SVGID_5_);fill:#ACDA3F;}
	.st160{clip-path:url(#SVGID_5_);fill:#ADDA40;}
	.st161{clip-path:url(#SVGID_5_);fill:#AEDB40;}
	.st162{clip-path:url(#SVGID_5_);fill:#AFDB40;}
	.st163{clip-path:url(#SVGID_5_);fill:#B0DC40;}
	.st164{clip-path:url(#SVGID_5_);fill:#B1DC41;}
	.st165{clip-path:url(#SVGID_5_);fill:#B2DD41;}
	.st166{clip-path:url(#SVGID_5_);fill:#B3DD41;}
	.st167{clip-path:url(#SVGID_5_);fill:#B4DE41;}
	.st168{clip-path:url(#SVGID_5_);fill:#B5DE41;}
	.st169{clip-path:url(#SVGID_5_);fill:#B6DF42;}
	.st170{clip-path:url(#SVGID_5_);fill:#B7E042;}
	.st171{clip-path:url(#SVGID_5_);fill:#B8E042;}
	.st172{clip-path:url(#SVGID_5_);fill:#B9E142;}
	.st173{clip-path:url(#SVGID_5_);fill:#BAE143;}
	.st174{clip-path:url(#SVGID_5_);fill:#BBE243;}
	.st175{clip-path:url(#SVGID_5_);fill:#BCE243;}
	.st176{clip-path:url(#SVGID_5_);fill:#BDE343;}
	.st177{clip-path:url(#SVGID_5_);fill:#BEE344;}
	.st178{clip-path:url(#SVGID_5_);fill:#BFE444;}
	.st179{clip-path:url(#SVGID_5_);fill:#C0E444;}
	.st180{clip-path:url(#SVGID_5_);fill:#C1E544;}
	.st181{clip-path:url(#SVGID_5_);fill:#C2E544;}
	.st182{clip-path:url(#SVGID_5_);fill:#C3E645;}
	.st183{clip-path:url(#SVGID_5_);fill:#C4E645;}
	.st184{clip-path:url(#SVGID_5_);fill:#C5E745;}
	.st185{clip-path:url(#SVGID_5_);fill:#C6E745;}
	.st186{clip-path:url(#SVGID_5_);fill:#C7E846;}
	.st187{clip-path:url(#SVGID_5_);fill:#C8E846;}
	.st188{clip-path:url(#SVGID_5_);fill:#C9E946;}
	.st189{clip-path:url(#SVGID_7_);fill:#0073FF;}
	.st190{clip-path:url(#SVGID_7_);fill:#0074FF;}
	.st191{clip-path:url(#SVGID_7_);fill:#0075FF;}
	.st192{clip-path:url(#SVGID_7_);fill:#0076FF;}
	.st193{clip-path:url(#SVGID_7_);fill:#0077FF;}
	.st194{clip-path:url(#SVGID_7_);fill:#0078FF;}
	.st195{clip-path:url(#SVGID_7_);fill:#0079FF;}
	.st196{clip-path:url(#SVGID_7_);fill:#007AFF;}
	.st197{clip-path:url(#SVGID_7_);fill:#007BFF;}
	.st198{clip-path:url(#SVGID_7_);fill:#007CFF;}
	.st199{clip-path:url(#SVGID_7_);fill:#007DFF;}
	.st200{clip-path:url(#SVGID_7_);fill:#007EFF;}
	.st201{clip-path:url(#SVGID_7_);fill:#007FFF;}
	.st202{clip-path:url(#SVGID_7_);fill:#0080FF;}
	.st203{clip-path:url(#SVGID_7_);fill:#0081FF;}
	.st204{clip-path:url(#SVGID_7_);fill:#0082FF;}
	.st205{clip-path:url(#SVGID_7_);fill:#0083FF;}
	.st206{clip-path:url(#SVGID_7_);fill:#0084FF;}
	.st207{clip-path:url(#SVGID_7_);fill:#0085FF;}
	.st208{clip-path:url(#SVGID_7_);fill:#0086FF;}
	.st209{clip-path:url(#SVGID_7_);fill:#0087FF;}
	.st210{clip-path:url(#SVGID_7_);fill:#0088FF;}
	.st211{clip-path:url(#SVGID_7_);fill:#0089FF;}
	.st212{clip-path:url(#SVGID_7_);fill:#008AFF;}
	.st213{clip-path:url(#SVGID_7_);fill:#008BFF;}
	.st214{clip-path:url(#SVGID_7_);fill:#008CFF;}
	.st215{clip-path:url(#SVGID_7_);fill:#008DFF;}
	.st216{clip-path:url(#SVGID_7_);fill:#008EFF;}
	.st217{clip-path:url(#SVGID_7_);fill:#008FFF;}
	.st218{clip-path:url(#SVGID_7_);fill:#0090FF;}
	.st219{clip-path:url(#SVGID_7_);fill:#0091FF;}
	.st220{clip-path:url(#SVGID_7_);fill:#0092FF;}
	.st221{clip-path:url(#SVGID_7_);fill:#0093FF;}
	.st222{clip-path:url(#SVGID_7_);fill:#0094FF;}
	.st223{clip-path:url(#SVGID_7_);fill:#0095FF;}
	.st224{clip-path:url(#SVGID_7_);fill:#0096FF;}
	.st225{clip-path:url(#SVGID_7_);fill:#0097FF;}
	.st226{clip-path:url(#SVGID_7_);fill:#0098FF;}
	.st227{clip-path:url(#SVGID_7_);fill:#0099FF;}
	.st228{clip-path:url(#SVGID_7_);fill:#009AFF;}
	.st229{clip-path:url(#SVGID_7_);fill:#009BFF;}
	.st230{clip-path:url(#SVGID_7_);fill:#009CFF;}
	.st231{clip-path:url(#SVGID_7_);fill:#009DFF;}
	.st232{clip-path:url(#SVGID_7_);fill:#009EFF;}
	.st233{clip-path:url(#SVGID_7_);fill:#009FFF;}
	.st234{clip-path:url(#SVGID_7_);fill:#00A0FF;}
	.st235{clip-path:url(#SVGID_7_);fill:#00A1FF;}
	.st236{clip-path:url(#SVGID_7_);fill:#00A3FF;}
	.st237{clip-path:url(#SVGID_7_);fill:#00A4FF;}
	.st238{clip-path:url(#SVGID_7_);fill:#00A5FF;}
	.st239{clip-path:url(#SVGID_7_);fill:#00A6FF;}
	.st240{clip-path:url(#SVGID_7_);fill:#00A7FF;}
	.st241{clip-path:url(#SVGID_7_);fill:#00A8FF;}
	.st242{clip-path:url(#SVGID_7_);fill:#00A9FF;}
	.st243{clip-path:url(#SVGID_7_);fill:#00AAFF;}
	.st244{clip-path:url(#SVGID_7_);fill:#00ABFF;}
	.st245{clip-path:url(#SVGID_7_);fill:#00ACFF;}
	.st246{clip-path:url(#SVGID_7_);fill:#00ADFF;}
	.st247{clip-path:url(#SVGID_7_);fill:#00AEFF;}
	.st248{clip-path:url(#SVGID_7_);fill:#00AFFF;}
	.st249{clip-path:url(#SVGID_7_);fill:#00B0FF;}
	.st250{clip-path:url(#SVGID_7_);fill:#00B1FF;}
	.st251{clip-path:url(#SVGID_7_);fill:#00B2FF;}
	.st252{clip-path:url(#SVGID_7_);fill:#00B3FF;}
	.st253{clip-path:url(#SVGID_7_);fill:#00B4FF;}
	.st254{clip-path:url(#SVGID_7_);fill:#00B5FF;}
	.st255{clip-path:url(#SVGID_7_);fill:#00B6FF;}
	.st256{clip-path:url(#SVGID_7_);fill:#00B7FF;}
	.st257{clip-path:url(#SVGID_7_);fill:#00B8FF;}
	.st258{clip-path:url(#SVGID_7_);fill:#00B9FF;}
	.st259{clip-path:url(#SVGID_7_);fill:#00BAFF;}
	.st260{clip-path:url(#SVGID_7_);fill:#00BBFF;}
	.st261{clip-path:url(#SVGID_7_);fill:#00BCFF;}
	.st262{clip-path:url(#SVGID_7_);fill:#00BDFF;}
	.st263{clip-path:url(#SVGID_7_);fill:#00BEFF;}
	.st264{clip-path:url(#SVGID_7_);fill:#00BFFF;}
	.st265{clip-path:url(#SVGID_7_);fill:#00C0FF;}
	.st266{clip-path:url(#SVGID_7_);fill:#00C1FF;}
	.st267{clip-path:url(#SVGID_7_);fill:#00C2FF;}
	.st268{clip-path:url(#SVGID_7_);fill:#00C3FF;}
	.st269{clip-path:url(#SVGID_7_);fill:#00C4FF;}
	.st270{clip-path:url(#SVGID_7_);fill:#00C5FF;}
	.st271{clip-path:url(#SVGID_7_);fill:#00C6FF;}
	.st272{clip-path:url(#SVGID_7_);fill:#00C7FF;}
	.st273{clip-path:url(#SVGID_7_);fill:#00C8FF;}
	.st274{clip-path:url(#SVGID_7_);fill:#00C9FF;}
	.st275{clip-path:url(#SVGID_7_);fill:#00CAFF;}
	.st276{clip-path:url(#SVGID_7_);fill:#00CBFF;}
	.st277{clip-path:url(#SVGID_7_);fill:#00CCFF;}
	.st278{clip-path:url(#SVGID_7_);fill:#00CDFF;}
	.st279{clip-path:url(#SVGID_7_);fill:#00CEFF;}
	.st280{clip-path:url(#SVGID_7_);fill:#00CFFF;}
	.st281{clip-path:url(#SVGID_7_);fill:#00D0FF;}
	.st282{clip-path:url(#SVGID_7_);fill:#00D1FF;}
	.st283{clip-path:url(#SVGID_9_);fill:#0073FF;}
	.st284{clip-path:url(#SVGID_9_);fill:#0074FF;}
	.st285{clip-path:url(#SVGID_9_);fill:#0075FF;}
	.st286{clip-path:url(#SVGID_9_);fill:#0076FF;}
	.st287{clip-path:url(#SVGID_9_);fill:#0077FF;}
	.st288{clip-path:url(#SVGID_9_);fill:#0078FF;}
	.st289{clip-path:url(#SVGID_9_);fill:#0079FF;}
	.st290{clip-path:url(#SVGID_9_);fill:#007AFF;}
	.st291{clip-path:url(#SVGID_9_);fill:#007BFF;}
	.st292{clip-path:url(#SVGID_9_);fill:#007CFF;}
	.st293{clip-path:url(#SVGID_9_);fill:#007DFF;}
	.st294{clip-path:url(#SVGID_9_);fill:#007EFF;}
	.st295{clip-path:url(#SVGID_9_);fill:#007FFF;}
	.st296{clip-path:url(#SVGID_9_);fill:#0080FF;}
	.st297{clip-path:url(#SVGID_9_);fill:#0081FF;}
	.st298{clip-path:url(#SVGID_9_);fill:#0082FF;}
	.st299{clip-path:url(#SVGID_9_);fill:#0083FF;}
	.st300{clip-path:url(#SVGID_9_);fill:#0084FF;}
	.st301{clip-path:url(#SVGID_9_);fill:#0085FF;}
	.st302{clip-path:url(#SVGID_9_);fill:#0086FF;}
	.st303{clip-path:url(#SVGID_9_);fill:#0087FF;}
	.st304{clip-path:url(#SVGID_9_);fill:#0088FF;}
	.st305{clip-path:url(#SVGID_9_);fill:#0089FF;}
	.st306{clip-path:url(#SVGID_9_);fill:#008AFF;}
	.st307{clip-path:url(#SVGID_9_);fill:#008BFF;}
	.st308{clip-path:url(#SVGID_9_);fill:#008CFF;}
	.st309{clip-path:url(#SVGID_9_);fill:#008DFF;}
	.st310{clip-path:url(#SVGID_9_);fill:#008EFF;}
	.st311{clip-path:url(#SVGID_9_);fill:#008FFF;}
	.st312{clip-path:url(#SVGID_9_);fill:#0090FF;}
	.st313{clip-path:url(#SVGID_9_);fill:#0091FF;}
	.st314{clip-path:url(#SVGID_9_);fill:#0092FF;}
	.st315{clip-path:url(#SVGID_9_);fill:#0093FF;}
	.st316{clip-path:url(#SVGID_9_);fill:#0094FF;}
	.st317{clip-path:url(#SVGID_9_);fill:#0095FF;}
	.st318{clip-path:url(#SVGID_9_);fill:#0096FF;}
	.st319{clip-path:url(#SVGID_9_);fill:#0097FF;}
	.st320{clip-path:url(#SVGID_9_);fill:#0098FF;}
	.st321{clip-path:url(#SVGID_9_);fill:#0099FF;}
	.st322{clip-path:url(#SVGID_9_);fill:#009AFF;}
	.st323{clip-path:url(#SVGID_9_);fill:#009BFF;}
	.st324{clip-path:url(#SVGID_9_);fill:#009CFF;}
	.st325{clip-path:url(#SVGID_9_);fill:#009DFF;}
	.st326{clip-path:url(#SVGID_9_);fill:#009EFF;}
	.st327{clip-path:url(#SVGID_9_);fill:#009FFF;}
	.st328{clip-path:url(#SVGID_9_);fill:#00A0FF;}
	.st329{clip-path:url(#SVGID_9_);fill:#00A1FF;}
	.st330{clip-path:url(#SVGID_9_);fill:#00A3FF;}
	.st331{clip-path:url(#SVGID_9_);fill:#00A4FF;}
	.st332{clip-path:url(#SVGID_9_);fill:#00A5FF;}
	.st333{clip-path:url(#SVGID_9_);fill:#00A6FF;}
	.st334{clip-path:url(#SVGID_9_);fill:#00A7FF;}
	.st335{clip-path:url(#SVGID_9_);fill:#00A8FF;}
	.st336{clip-path:url(#SVGID_9_);fill:#00A9FF;}
	.st337{clip-path:url(#SVGID_9_);fill:#00AAFF;}
	.st338{clip-path:url(#SVGID_9_);fill:#00ABFF;}
	.st339{clip-path:url(#SVGID_9_);fill:#00ACFF;}
	.st340{clip-path:url(#SVGID_9_);fill:#00ADFF;}
	.st341{clip-path:url(#SVGID_9_);fill:#00AEFF;}
	.st342{clip-path:url(#SVGID_9_);fill:#00AFFF;}
	.st343{clip-path:url(#SVGID_9_);fill:#00B0FF;}
	.st344{clip-path:url(#SVGID_9_);fill:#00B1FF;}
	.st345{clip-path:url(#SVGID_9_);fill:#00B2FF;}
	.st346{clip-path:url(#SVGID_9_);fill:#00B3FF;}
	.st347{clip-path:url(#SVGID_9_);fill:#00B4FF;}
	.st348{clip-path:url(#SVGID_9_);fill:#00B5FF;}
	.st349{clip-path:url(#SVGID_9_);fill:#00B6FF;}
	.st350{clip-path:url(#SVGID_9_);fill:#00B7FF;}
	.st351{clip-path:url(#SVGID_9_);fill:#00B8FF;}
	.st352{clip-path:url(#SVGID_9_);fill:#00B9FF;}
	.st353{clip-path:url(#SVGID_9_);fill:#00BAFF;}
	.st354{clip-path:url(#SVGID_9_);fill:#00BBFF;}
	.st355{clip-path:url(#SVGID_9_);fill:#00BCFF;}
	.st356{clip-path:url(#SVGID_9_);fill:#00BDFF;}
	.st357{clip-path:url(#SVGID_9_);fill:#00BEFF;}
	.st358{clip-path:url(#SVGID_9_);fill:#00BFFF;}
	.st359{clip-path:url(#SVGID_9_);fill:#00C0FF;}
	.st360{clip-path:url(#SVGID_9_);fill:#00C1FF;}
	.st361{clip-path:url(#SVGID_9_);fill:#00C2FF;}
	.st362{clip-path:url(#SVGID_9_);fill:#00C3FF;}
	.st363{clip-path:url(#SVGID_9_);fill:#00C4FF;}
	.st364{clip-path:url(#SVGID_9_);fill:#00C5FF;}
	.st365{clip-path:url(#SVGID_9_);fill:#00C6FF;}
	.st366{clip-path:url(#SVGID_9_);fill:#00C7FF;}
	.st367{clip-path:url(#SVGID_9_);fill:#00C8FF;}
	.st368{clip-path:url(#SVGID_9_);fill:#00C9FF;}
	.st369{clip-path:url(#SVGID_9_);fill:#00CAFF;}
	.st370{clip-path:url(#SVGID_9_);fill:#00CBFF;}
	.st371{clip-path:url(#SVGID_9_);fill:#00CCFF;}
	.st372{clip-path:url(#SVGID_9_);fill:#00CDFF;}
	.st373{clip-path:url(#SVGID_9_);fill:#00CEFF;}
	.st374{clip-path:url(#SVGID_9_);fill:#00CFFF;}
	.st375{clip-path:url(#SVGID_9_);fill:#00D0FF;}
	.st376{clip-path:url(#SVGID_9_);fill:#00D1FF;}
	.st377{fill:#7F7F7F;}
	.st378{fill:#2D2929;}
	.st379{fill:#004DC6;}
	.st380{fill:#FF3553;}
	.st381{enable-background:new    ;}
	.st382{fill:#474444;}
</style>
<radialGradient id="SVGID_1_" cx="-9863.0293" cy="6283.8257" r="0" gradientTransform="matrix(0 1 1 0 -6696.4253 9956.7295)" gradientUnits="userSpaceOnUse">
	<stop  offset="0" style="stop-color:#B8E62A"/>
	<stop  offset="1" style="stop-color:#4DAD12"/>
</radialGradient>
<path class="st0" d="M-412.6,93.7"/>
<g>
	<g>
		<g>
			<g>
				<defs>
					<path id="SVGID_2_" d="M32.6,20.3c2.4-0.6,4.1,0.1,3.9-3.6C36.2,12.4,30,1.9,18.7,2.5C4.8,3.3,29.1,15.5,30,18.3
						C30.8,21.1,32.6,20.3,32.6,20.3z"/>
				</defs>
				<clipPath id="SVGID_3_">
					<use xlink:href="#SVGID_2_"  style="overflow:visible;"/>
				</clipPath>
				<rect x="4.8" y="1.9" class="st1" width="31.9" height="19.2"/>
				<path class="st1" d="M37.7,4.8V0.9H4.8v-3.6c-1,2.3-1.5,4.9-1.5,7.5c0,10.7,8.7,19.4,19.4,19.4s19.4-8.7,19.4-19.4H37.7z"/>
				<path class="st2" d="M37.7,4.8V0.9H5v-3.5c-1,2.3-1.5,4.8-1.5,7.5C3.5,15.4,12.1,24,22.7,24s19.2-8.6,19.2-19.2H37.7z"/>
				<path class="st3" d="M37.7,4.8V0.9H5.2v-3.4c-1,2.3-1.5,4.8-1.5,7.4c0,10.5,8.5,19,19,19s19-8.5,19-19H37.7z"/>
				<path class="st4" d="M37.7,4.8V0.9H5.4v-3.4C4.5-0.2,3.9,2.3,3.9,4.8c0,10.4,8.4,18.8,18.8,18.8s18.8-8.4,18.8-18.8H37.7z"/>
				<path class="st5" d="M37.7,4.8V0.9H5.6v-3.3C4.7-0.2,4.1,2.3,4.1,4.8c0,10.2,8.3,18.6,18.6,18.6s18.6-8.3,18.6-18.6H37.7z"/>
				<path class="st6" d="M37.7,4.8V0.9H5.8v-3.2C4.9-0.1,4.3,2.3,4.3,4.8c0,10.1,8.2,18.3,18.3,18.3S41,15,41,4.8H37.7z"/>
				<path class="st7" d="M37.7,4.8V0.9H6v-3.1C5.1,0,4.5,2.3,4.5,4.8c0,10,8.1,18.1,18.1,18.1s18.1-8.1,18.1-18.1H37.7z"/>
				<path class="st8" d="M37.7,4.8V0.9H6.2v-3C5.3,0,4.8,2.4,4.8,4.8c0,9.9,8,17.9,17.9,17.9s17.9-8,17.9-17.9H37.7z"/>
				<path class="st9" d="M37.7,4.8V0.9H6.4v-3C5.5,0.1,5,2.4,5,4.8c0,9.8,7.9,17.7,17.7,17.7s17.7-7.9,17.7-17.7H37.7z"/>
				<path class="st10" d="M37.7,4.8V0.9H6.5V-2C5.7,0.1,5.2,2.4,5.2,4.8c0,9.7,7.8,17.5,17.5,17.5s17.5-7.8,17.5-17.5H37.7z"/>
				<path class="st11" d="M37.7,4.8V0.9h-31v-2.8C5.9,0.2,5.4,2.5,5.4,4.8c0,9.6,7.8,17.3,17.3,17.3S40,14.4,40,4.8H37.7z"/>
				<path class="st12" d="M37.7,4.8V0.9H6.9v-2.7c-0.9,2-1.3,4.3-1.3,6.7c0,9.4,7.7,17.1,17.1,17.1s17.1-7.7,17.1-17.1H37.7z"/>
				<path class="st13" d="M37.7,4.8V0.9H7.1v-2.6c-0.9,2-1.3,4.2-1.3,6.6c0,9.3,7.6,16.9,16.9,16.9s16.9-7.6,16.9-16.9H37.7z"/>
				<path class="st14" d="M37.7,4.8V0.9H7.3v-2.6C6.5,0.3,6,2.5,6,4.8c0,9.2,7.5,16.7,16.7,16.7s16.7-7.5,16.7-16.7H37.7z"/>
				<path class="st15" d="M37.7,4.8V0.9H7.5v-2.5c-0.8,2-1.3,4.1-1.3,6.4c0,9.1,7.4,16.5,16.5,16.5S39.2,14,39.2,4.8H37.7z"/>
				<path class="st16" d="M39,4.8c0-2.2-0.5-4.4-1.3-6.3v2.4h-30v-2.4C6.9,0.5,6.4,2.6,6.4,4.8c0,9,7.3,16.3,16.3,16.3
					S39,13.8,39,4.8z"/>
				<path class="st17" d="M38.8,4.8c0-2.2-0.4-4.3-1.3-6.3v2.3H7.9v-2.3c-0.8,1.9-1.3,4-1.3,6.3c0,8.9,7.2,16.1,16.1,16.1
					S38.8,13.7,38.8,4.8z"/>
				<path class="st18" d="M38.6,4.8c0-2.2-0.4-4.3-1.2-6.2v2.2H8.1v-2.2c-0.8,1.9-1.2,4-1.2,6.2c0,8.8,7.1,15.9,15.9,15.9
					S38.6,13.6,38.6,4.8z"/>
				<path class="st19" d="M38.4,4.8c0-2.2-0.4-4.2-1.2-6.1v2.2H8.3v-2.2C7.5,0.6,7,2.7,7,4.8c0,8.7,7,15.7,15.7,15.7
					S38.4,13.5,38.4,4.8z"/>
				<path class="st20" d="M38.1,4.8c0-4.3-1.7-8.1-4.5-10.9v7H11.8v-7C9-3.3,7.2,0.6,7.2,4.8c0,8.5,6.9,15.5,15.5,15.5
					S38.1,13.4,38.1,4.8z"/>
				<path class="st21" d="M37.9,4.8c0-4.2-1.7-8-4.5-10.8v6.8H11.9v-6.8C9.1-3.2,7.4,0.6,7.4,4.8c0,8.4,6.8,15.3,15.3,15.3
					S37.9,13.3,37.9,4.8z"/>
				<path class="st22" d="M37.7,4.8c0-4.2-1.7-7.9-4.4-10.6v6.7H12v-6.7C9.3-3.1,7.6,0.7,7.6,4.8c0,8.3,6.7,15,15,15
					S37.7,13.2,37.7,4.8z"/>
				<path class="st23" d="M37.5,4.8c0-4.1-1.7-7.8-4.3-10.5v6.5h-21v-6.5C9.5-3,7.8,0.7,7.8,4.8c0,8.2,6.6,14.8,14.8,14.8
					S37.5,13,37.5,4.8z"/>
				<path class="st24" d="M37.3,4.8c0-4-1.6-7.7-4.3-10.3v6.4H12.3v-6.4C9.7-2.9,8.1,0.8,8.1,4.8c0,8.1,6.6,14.6,14.6,14.6
					S37.3,12.9,37.3,4.8z"/>
				<path class="st25" d="M37.1,4.8c0-4-1.6-7.6-4.2-10.2v6.3H12.5v-6.3C9.9-2.7,8.3,0.9,8.3,4.8c0,8,6.5,14.4,14.4,14.4
					S37.1,12.8,37.1,4.8z"/>
				<path class="st26" d="M36.9,4.8c0-3.9-1.6-7.5-4.2-10.1v6.1H12.6v-6.1C10.1-2.6,8.5,0.9,8.5,4.8c0,7.9,6.4,14.2,14.2,14.2
					S36.9,12.7,36.9,4.8z"/>
				<path class="st27" d="M36.7,4.8c0-3.9-1.6-7.4-4.1-9.9v6H12.8v-6c-2.5,2.5-4.1,6-4.1,9.9c0,7.7,6.3,14,14,14S36.7,12.6,36.7,4.8
					z"/>
				<path class="st28" d="M36.5,4.8c0-3.8-1.5-7.3-4-9.8v5.8H12.9v-5.8c-2.5,2.5-4,6-4,9.8c0,7.6,6.2,13.8,13.8,13.8
					S36.5,12.5,36.5,4.8z"/>
				<path class="st29" d="M36.3,4.8c0-3.8-1.5-7.2-4-9.6v5.7H13.1v-5.7c-2.5,2.5-4,5.9-4,9.6c0,7.5,6.1,13.6,13.6,13.6
					S36.3,12.4,36.3,4.8z"/>
				<path class="st30" d="M36.1,4.8c0-3.7-1.5-7.1-3.9-9.5v5.5H13.2v-5.5c-2.4,2.4-3.9,5.8-3.9,9.5c0,7.4,6,13.4,13.4,13.4
					S36.1,12.2,36.1,4.8z"/>
				<path class="st31" d="M35.9,4.8c0-3.6-1.5-6.9-3.9-9.3v5.4H13.4v-5.4C11-2.1,9.5,1.2,9.5,4.8c0,7.3,5.9,13.2,13.2,13.2
					S35.9,12.1,35.9,4.8z"/>
				<path class="st32" d="M35.7,4.8c0-3.6-1.5-6.8-3.8-9.2v5.2H13.5v-5.2C11.2-2,9.7,1.3,9.7,4.8c0,7.2,5.8,13,13,13
					S35.7,12,35.7,4.8z"/>
				<path class="st33" d="M35.5,4.8c0-3.5-1.4-6.7-3.7-9v5.1H13.7v-5.1c-2.3,2.3-3.7,5.5-3.7,9c0,7.1,5.7,12.8,12.8,12.8
					S35.5,11.9,35.5,4.8z"/>
				<path class="st34" d="M35.3,4.8c0-3.5-1.4-6.6-3.7-8.9v4.9H13.8V-4c-2.3,2.3-3.7,5.4-3.7,8.9c0,6.9,5.6,12.6,12.6,12.6
					S35.3,11.8,35.3,4.8z"/>
				<path class="st35" d="M35.1,4.8c0-3.4-1.4-6.5-3.6-8.7v4.8H13.9v-4.8c-2.2,2.2-3.6,5.3-3.6,8.7c0,6.8,5.5,12.4,12.4,12.4
					S35.1,11.7,35.1,4.8z"/>
				<path class="st36" d="M34.9,4.8c0-3.4-1.4-6.4-3.6-8.6v4.7H14.1v-4.7c-2.2,2.2-3.6,5.2-3.6,8.6C10.5,11.6,16,17,22.7,17
					S34.9,11.6,34.9,4.8z"/>
				<path class="st37" d="M34.6,4.8c0-3.3-1.3-6.3-3.5-8.5v4.5H14.2v-4.5c-2.2,2.2-3.5,5.2-3.5,8.5c0,6.6,5.4,12,12,12
					S34.6,11.5,34.6,4.8z"/>
				<path class="st38" d="M34.4,4.8c0-3.2-1.3-6.2-3.4-8.3v4.4H14.4v-4.4c-2.1,2.1-3.4,5.1-3.4,8.3c0,6.5,5.3,11.8,11.8,11.8
					S34.4,11.3,34.4,4.8z"/>
				<path class="st39" d="M34.2,4.8c0-3.2-1.3-6.1-3.4-8.2v4.2H14.5v-4.2c-2.1,2.1-3.4,5-3.4,8.2c0,6.4,5.2,11.5,11.5,11.5
					S34.2,11.2,34.2,4.8z"/>
				<path class="st40" d="M34,4.8c0-3.1-1.3-6-3.3-8v4.1h-16v-4.1c-2.1,2.1-3.3,4.9-3.3,8c0,6.3,5.1,11.3,11.3,11.3S34,11.1,34,4.8z
					"/>
				<path class="st41" d="M33.8,4.8c0-3.1-1.2-5.9-3.3-7.9v3.9H14.8V-3c-2,2-3.3,4.8-3.3,7.9c0,6.1,5,11.1,11.1,11.1
					S33.8,11,33.8,4.8z"/>
				<circle class="st42" cx="22.7" cy="4.8" r="10.9"/>
				<circle class="st43" cx="22.7" cy="4.8" r="10.7"/>
				<circle class="st44" cx="22.7" cy="4.8" r="10.5"/>
				<circle class="st45" cx="22.7" cy="4.8" r="10.3"/>
				<circle class="st46" cx="22.7" cy="4.8" r="10.1"/>
				<circle class="st47" cx="22.7" cy="4.8" r="9.9"/>
				<circle class="st48" cx="22.7" cy="4.8" r="9.7"/>
				<circle class="st49" cx="22.7" cy="4.8" r="9.5"/>
				<circle class="st50" cx="22.7" cy="4.8" r="9.3"/>
				<circle class="st51" cx="22.7" cy="4.8" r="9.1"/>
				<circle class="st52" cx="22.7" cy="4.8" r="8.9"/>
				<circle class="st53" cx="22.7" cy="4.8" r="8.7"/>
				<circle class="st54" cx="22.7" cy="4.8" r="8.5"/>
				<circle class="st55" cx="22.7" cy="4.8" r="8.2"/>
				<circle class="st56" cx="22.7" cy="4.8" r="8"/>
				<circle class="st57" cx="22.7" cy="4.8" r="7.8"/>
				<circle class="st58" cx="22.7" cy="4.8" r="7.6"/>
				<circle class="st59" cx="22.7" cy="4.8" r="7.4"/>
				<circle class="st60" cx="22.7" cy="4.8" r="7.2"/>
				<circle class="st61" cx="22.7" cy="4.8" r="7"/>
				<circle class="st62" cx="22.7" cy="4.8" r="6.8"/>
				<circle class="st63" cx="22.7" cy="4.8" r="6.6"/>
				<circle class="st64" cx="22.7" cy="4.8" r="6.4"/>
				<circle class="st65" cx="22.7" cy="4.8" r="6.2"/>
				<circle class="st66" cx="22.7" cy="4.8" r="6"/>
				<circle class="st67" cx="22.7" cy="4.8" r="5.8"/>
				<circle class="st68" cx="22.7" cy="4.8" r="5.6"/>
				<circle class="st69" cx="22.7" cy="4.8" r="5.4"/>
				<circle class="st70" cx="22.7" cy="4.8" r="5.2"/>
				<circle class="st71" cx="22.7" cy="4.8" r="4.9"/>
				<circle class="st72" cx="22.7" cy="4.8" r="4.7"/>
				<circle class="st73" cx="22.7" cy="4.8" r="4.5"/>
				<circle class="st74" cx="22.7" cy="4.8" r="4.3"/>
				<circle class="st75" cx="22.7" cy="4.8" r="4.1"/>
				<circle class="st76" cx="22.7" cy="4.8" r="3.9"/>
				<circle class="st77" cx="22.7" cy="4.8" r="3.7"/>
				<circle class="st78" cx="22.7" cy="4.8" r="3.5"/>
				<circle class="st79" cx="22.7" cy="4.8" r="3.3"/>
				<circle class="st80" cx="22.7" cy="4.8" r="3.1"/>
				<circle class="st81" cx="22.7" cy="4.8" r="2.9"/>
				<circle class="st82" cx="22.7" cy="4.8" r="2.7"/>
				<circle class="st83" cx="22.7" cy="4.8" r="2.5"/>
				<circle class="st84" cx="22.7" cy="4.8" r="2.3"/>
				<circle class="st85" cx="22.7" cy="4.8" r="2.1"/>
				<circle class="st86" cx="22.7" cy="4.8" r="1.9"/>
				<circle class="st87" cx="22.7" cy="4.8" r="1.6"/>
				<circle class="st88" cx="22.7" cy="4.8" r="1.4"/>
				<circle class="st89" cx="22.7" cy="4.8" r="1.2"/>
				<circle class="st90" cx="22.7" cy="4.8" r="1"/>
				<circle class="st91" cx="22.7" cy="4.8" r="0.8"/>
				<circle class="st92" cx="22.7" cy="4.8" r="0.6"/>
				<circle class="st93" cx="22.7" cy="4.8" r="0.4"/>
				<circle class="st94" cx="22.7" cy="4.8" r="0.2"/>
			</g>
		</g>
		<g>
			<g>
				<defs>
					<path id="SVGID_4_" d="M9.4,5.1C6.8,6.1,5.5,14.3,17,26c0.1,0.1,12.3,12.3,19.1,1.5c0.9-3.7-4.4,3-12-5.7
						C20.5,17.7,21,9.2,21.6,5.2c0,0-2.2-1.9-6.3-1.4C11.1,4.2,9.4,5.1,9.4,5.1z"/>
				</defs>
				<clipPath id="SVGID_5_">
					<use xlink:href="#SVGID_4_"  style="overflow:visible;"/>
				</clipPath>
				<rect x="5.5" y="3.3" class="st95" width="31.5" height="35"/>
				<path class="st95" d="M27.6,39.3H38V13.7h0c-3.2-1.3-6.7-2.1-10.4-2.1C12.9,11.6,1,23.6,1,38.3h3.5v1H27.6z"/>
				<path class="st96" d="M27.6,39.3H38V16.4h4.4c-1.4-0.9-2.9-1.8-4.5-2.4c-3.2-1.3-6.6-2.1-10.3-2.1c-14.6,0-26.4,11.8-26.4,26.4
					h3.3v1H27.6z"/>
				<path class="st97" d="M27.6,39.3H38V16.7h4.2c-1.4-0.9-2.9-1.7-4.4-2.4c-3.1-1.3-6.6-2.1-10.2-2.1c-14.4,0-26.1,11.7-26.1,26.1
					h3v1H27.6z"/>
				<path class="st98" d="M27.6,39.3H38V16.9h4.1c-1.4-0.9-2.8-1.7-4.4-2.4c-3.1-1.3-6.5-2-10-2c-14.3,0-25.8,11.6-25.8,25.8h2.7v1
					H27.6z"/>
				<path class="st99" d="M27.6,39.3H38V17.1h3.9c-1.4-0.9-2.8-1.7-4.3-2.4c-3.1-1.3-6.4-2-9.9-2c-14.1,0-25.5,11.4-25.5,25.5h2.4v1
					H27.6z"/>
				<path class="st100" d="M27.6,39.3H38V17.4h3.7c-1.3-0.9-2.8-1.7-4.3-2.3c-3-1.3-6.3-2-9.8-2c-13.9,0-25.2,11.3-25.2,25.2h2.1v1
					H27.6z"/>
				<path class="st101" d="M27.6,39.3H38V17.6h3.6c-1.3-0.9-2.7-1.7-4.2-2.3c-3-1.3-6.3-2-9.7-2c-13.8,0-25,11.2-25,25h1.8v1H27.6z"
					/>
				<path class="st102" d="M27.6,39.3H38V17.8h3.4c-1.3-0.9-2.7-1.7-4.2-2.3c-3-1.2-6.2-1.9-9.6-1.9c-13.6,0-24.7,11-24.7,24.7h1.6
					v1H27.6z"/>
				<path class="st103" d="M27.6,39.3H38V21.1h6.9c-4.4-4.4-10.5-7.1-17.3-7.1c-13.5,0-24.4,10.9-24.4,24.4h1.3v1H27.6z"/>
				<path class="st104" d="M27.6,39.3H38v-18h6.7c-4.4-4.4-10.4-7.1-17.1-7.1C14.3,14.2,3.5,25,3.5,38.3h1v1H27.6z"/>
				<path class="st105" d="M27.6,39.3H38V21.5h6.5c-4.3-4.3-10.3-7-16.9-7c-13.2,0-23.8,10.7-23.8,23.8h0.7v1H27.6z"/>
				<path class="st106" d="M27.6,39.3H38V21.7h6.3c-4.3-4.3-10.1-6.9-16.6-6.9c-13,0-23.5,10.5-23.5,23.5c0,1.6,0.2,3.2,0.5,4.7
					v-3.8H27.6z"/>
				<path class="st107" d="M27.6,39.3H38V21.9h6.1c-4.2-4.2-10-6.8-16.4-6.8c-12.8,0-23.3,10.4-23.3,23.3c0,1.6,0.2,3.2,0.5,4.7
					v-3.7H27.6z"/>
				<path class="st108" d="M27.6,39.3H38V22.1h5.9c-4.2-4.2-9.9-6.7-16.2-6.7c-12.7,0-23,10.3-23,23c0,1.6,0.2,3.1,0.5,4.6v-3.6
					H27.6z"/>
				<path class="st109" d="M27.6,39.3H38v-17h5.7c-4.1-4.1-9.8-6.6-16-6.6c-12.5,0-22.7,10.2-22.7,22.7c0,1.6,0.2,3.1,0.5,4.6v-3.6
					H27.6z"/>
				<path class="st110" d="M27.6,39.3H38V22.5h5.5c-4.1-4.1-9.7-6.6-15.8-6.6c-12.4,0-22.4,10-22.4,22.4c0,1.5,0.2,3.1,0.5,4.5v-3.5
					H27.6z"/>
				<path class="st111" d="M27.6,39.3H38V22.7h5.3c-4-4-9.5-6.5-15.6-6.5c-12.2,0-22.1,9.9-22.1,22.1c0,1.5,0.2,3,0.4,4.5v-3.5H27.6
					z"/>
				<path class="st112" d="M27.6,39.3H38V22.9h5.1c-4-4-9.4-6.4-15.4-6.4c-12.1,0-21.8,9.8-21.8,21.8c0,1.5,0.2,3,0.4,4.4v-3.4H27.6
					z"/>
				<path class="st113" d="M27.6,39.3H38V23.1h4.9c-3.9-3.9-9.3-6.3-15.2-6.3c-11.9,0-21.6,9.7-21.6,21.6c0,1.5,0.2,2.9,0.4,4.3
					v-3.4H27.6z"/>
				<path class="st114" d="M27.6,39.3H38v-16h4.7c-3.9-3.9-9.2-6.2-15-6.2C15.9,17,6.3,26.6,6.3,38.3c0,1.5,0.1,2.9,0.4,4.3v-3.3
					H27.6z"/>
				<path class="st115" d="M27.6,39.3H38V23.5h4.5c-3.8-3.8-9-6.1-14.8-6.1c-11.6,0-21,9.4-21,21c0,1.4,0.1,2.9,0.4,4.2v-3.2H27.6z"
					/>
				<path class="st116" d="M27.6,39.3H38V23.7h4.3c-3.7-3.7-8.9-6.1-14.6-6.1c-11.4,0-20.7,9.3-20.7,20.7c0,1.4,0.1,2.8,0.4,4.2
					v-3.2H27.6z"/>
				<path class="st117" d="M27.6,39.3H38V23.9h4.1c-3.7-3.7-8.8-6-14.4-6C16.3,17.9,7.2,27,7.2,38.3c0,2.8,0.6,5.5,1.6,8v-7H27.6z"
					/>
				<path class="st118" d="M27.6,39.3H38V24.1h3.9c-3.6-3.6-8.7-5.9-14.2-5.9c-11.1,0-20.1,9-20.1,20.1c0,2.8,0.6,5.4,1.6,7.8v-6.9
					H27.6z"/>
				<path class="st119" d="M27.6,39.3H38v-15h3.7c-3.6-3.6-8.6-5.8-14-5.8c-11,0-19.9,8.9-19.9,19.9c0,2.7,0.6,5.4,1.6,7.7v-6.7
					H27.6z"/>
				<path class="st120" d="M27.6,39.3H38V24.5h3.5c-3.5-3.5-8.4-5.7-13.8-5.7c-10.8,0-19.6,8.8-19.6,19.6c0,2.7,0.5,5.3,1.5,7.6
					v-6.6H27.6z"/>
				<path class="st121" d="M27.6,39.3H38V24.7h3.3C37.8,21.2,33,19,27.6,19C17,19,8.3,27.7,8.3,38.3c0,2.7,0.5,5.2,1.5,7.5v-6.5
					H27.6z"/>
				<path class="st122" d="M27.6,39.3H38V24.9h3.1c-3.4-3.4-8.2-5.6-13.4-5.6c-10.5,0-19,8.5-19,19c0,2.6,0.5,5.1,1.5,7.4v-6.4H27.6
					z"/>
				<path class="st123" d="M27.6,39.3H38V25.1h2.9c-3.4-3.4-8.1-5.5-13.2-5.5C17.3,19.6,8.9,28,8.9,38.3c0,2.6,0.5,5,1.5,7.3v-6.3
					H27.6z"/>
				<path class="st124" d="M27.6,39.3H38v-14h2.7c-3.3-3.3-7.9-5.4-13-5.4c-10.2,0-18.4,8.3-18.4,18.4c0,2.5,0.5,5,1.4,7.2v-6.2
					H27.6z"/>
				<path class="st125" d="M27.6,39.3H38V25.5h2.5c-3.3-3.3-7.8-5.3-12.8-5.3c-10,0-18.2,8.1-18.2,18.2c0,2.5,0.5,4.9,1.4,7.1v-6.1
					H27.6z"/>
				<path class="st126" d="M27.6,39.3H38V25.7h2.3c-3.2-3.2-7.7-5.2-12.6-5.2c-9.9,0-17.9,8-17.9,17.9c0,2.5,0.5,4.8,1.4,7v-6H27.6z
					"/>
				<path class="st127" d="M27.6,39.3H38V25.9h2.1c-3.2-3.2-7.6-5.2-12.4-5.2c-9.7,0-17.6,7.9-17.6,17.6c0,2.4,0.5,4.7,1.4,6.8v-5.9
					H27.6z"/>
				<path class="st128" d="M27.6,39.3H38v-1h6.9c0-9.6-7.7-17.3-17.3-17.3s-17.3,7.7-17.3,17.3c0,2.4,0.5,4.7,1.4,6.7v-5.7H27.6z"/>
				<path class="st129" d="M27.6,39.3H38v-1h6.6c0-9.4-7.6-17-17-17s-17,7.6-17,17c0,2.4,0.5,4.6,1.3,6.6v-5.6H27.6z"/>
				<path class="st130" d="M27.6,39.3H38v-1h6.4c0-9.2-7.5-16.7-16.7-16.7s-16.7,7.5-16.7,16.7c0,2.3,0.5,4.5,1.3,6.5v-5.5H27.6z"/>
				<path class="st131" d="M27.6,39.3H38v-1h6.1c0-9.1-7.4-16.5-16.5-16.5s-16.5,7.4-16.5,16.5c0,2.3,0.5,4.4,1.3,6.4v-5.4H27.6z"/>
				<path class="st132" d="M27.6,39.3H38v-1h5.8c0-8.9-7.2-16.2-16.2-16.2s-16.2,7.2-16.2,16.2c0,2.2,0.5,4.4,1.3,6.3v-5.3H27.6z"/>
				<path class="st133" d="M27.6,39.3H38v-1h5.5c0-8.8-7.1-15.9-15.9-15.9s-15.9,7.1-15.9,15.9c0,2.2,0.4,4.3,1.2,6.2v-5.2H27.6z"/>
				<path class="st134" d="M27.6,39.3H38v-1h5.2c0-8.6-7-15.6-15.6-15.6S12,29.7,12,38.3c0,2.2,0.4,4.2,1.2,6.1v-5.1H27.6z"/>
				<path class="st135" d="M27.6,39.3H38v-1h4.9c0-8.5-6.9-15.3-15.3-15.3s-15.3,6.9-15.3,15.3c0,2.1,0.4,4.1,1.2,6v-5H27.6z"/>
				<path class="st136" d="M27.6,39.3H38v-1h4.7c0-8.3-6.7-15-15-15s-15,6.7-15,15c0,2.1,0.4,4.1,1.2,5.9v-4.9H27.6z"/>
				<path class="st137" d="M27.6,39.3H38v-1h4.4c0-8.1-6.6-14.8-14.8-14.8s-14.8,6.6-14.8,14.8c0,2,0.4,4,1.2,5.7v-4.8H27.6z"/>
				<path class="st138" d="M27.6,39.3h10.2H38v-1h4.1c0-8-6.5-14.5-14.5-14.5s-14.5,6.5-14.5,14.5c0,2,0.4,3.9,1.1,5.6v-4.6H27.6z"
					/>
				<path class="st139" d="M27.6,39.3h10H38v-1h3.8c0-7.8-6.4-14.2-14.2-14.2s-14.2,6.4-14.2,14.2c0,2,0.4,3.8,1.1,5.5v-4.5H27.6z"
					/>
				<path class="st140" d="M27.6,39.3h9.8H38v-1h3.5c0-7.7-6.2-13.9-13.9-13.9s-13.9,6.2-13.9,13.9c0,1.9,0.4,3.7,1.1,5.4v-4.4H27.6
					z"/>
				<path class="st141" d="M27.6,39.3h9.6H38v-1h3.2c0-7.5-6.1-13.6-13.6-13.6S14,30.8,14,38.3c0,1.9,0.4,3.7,1.1,5.3v-4.3H27.6z"/>
				<path class="st142" d="M27.6,39.3h9.4H38v-1h3C41,30.9,35,25,27.6,25s-13.3,6-13.3,13.3c0,1.8,0.4,3.6,1,5.2v-4.2H27.6z"/>
				<path class="st143" d="M27.6,39.3h9.2H38v-1h2.7c0-7.2-5.8-13-13-13s-13,5.8-13,13c0,1.8,0.4,3.5,1,5.1v-4.1H27.6z"/>
				<path class="st144" d="M27.6,39.3h9H38v-1h2.4c0-7.1-5.7-12.8-12.8-12.8s-12.8,5.7-12.8,12.8c0,1.8,0.4,3.4,1,5v-4H27.6z"/>
				<path class="st145" d="M27.6,39.3h8.8H38v-1h2.1c0-6.9-5.6-12.5-12.5-12.5s-12.5,5.6-12.5,12.5c0,1.7,0.3,3.4,1,4.9v-3.9H27.6z"
					/>
				<path class="st146" d="M27.6,39.3h8.6H38v-1h1.8c0-6.7-5.5-12.2-12.2-12.2s-12.2,5.5-12.2,12.2c0,1.7,0.3,3.3,1,4.7v-3.8H27.6z"
					/>
				<path class="st147" d="M27.6,39.3h8.4H38v-1h1.5c0-6.6-5.3-11.9-11.9-11.9s-11.9,5.3-11.9,11.9c0,1.6,0.3,3.2,0.9,4.6v-3.7H27.6
					z"/>
				<path class="st148" d="M27.6,39.3h8.2H38v-1h1.3c0-6.4-5.2-11.6-11.6-11.6S16,31.9,16,38.3c0,1.6,0.3,3.1,0.9,4.5v-3.5H27.6z"/>
				<path class="st149" d="M27.6,39.3h8H38v-1h1C39,32,33.9,27,27.6,27S16.3,32,16.3,38.3c0,1.6,0.3,3.1,0.9,4.4v-3.4H27.6z"/>
				<path class="st150" d="M27.6,39.3h7.8v6.8c2-2,3.2-4.8,3.2-7.8c0-6.1-5-11.1-11.1-11.1s-11.1,5-11.1,11.1c0,3.1,1.2,5.8,3.2,7.8
					v-6.8H27.6z"/>
				<path class="st151" d="M27.6,39.3h7.6v6.6c2-2,3.2-4.6,3.2-7.6c0-6-4.8-10.8-10.8-10.8s-10.8,4.8-10.8,10.8c0,3,1.2,5.7,3.2,7.6
					v-6.6H27.6z"/>
				<path class="st152" d="M27.6,39.3H35v6.4c1.9-1.9,3.1-4.5,3.1-7.4c0-5.8-4.7-10.5-10.5-10.5s-10.5,4.7-10.5,10.5
					c0,2.9,1.2,5.5,3.1,7.4v-6.4H27.6z"/>
				<path class="st153" d="M27.6,39.3h7.2v6.2c1.8-1.8,3-4.4,3-7.2c0-5.6-4.6-10.2-10.2-10.2s-10.2,4.6-10.2,10.2
					c0,2.8,1.1,5.4,3,7.2v-6.2H27.6z"/>
				<path class="st154" d="M27.6,39.3h7v6c1.8-1.8,2.9-4.3,2.9-7c0-5.5-4.4-9.9-9.9-9.9s-9.9,4.4-9.9,9.9c0,2.7,1.1,5.2,2.9,7v-6
					H27.6z"/>
				<path class="st155" d="M27.6,39.3h6.8v5.8c1.7-1.7,2.8-4.2,2.8-6.8c0-5.3-4.3-9.6-9.6-9.6S18,33,18,38.3c0,2.7,1.1,5.1,2.8,6.8
					v-5.8H27.6z"/>
				<path class="st156" d="M27.6,39.3h6.6v5.6c1.7-1.7,2.7-4,2.7-6.6c0-5.2-4.2-9.4-9.4-9.4s-9.4,4.2-9.4,9.4c0,2.6,1,4.9,2.7,6.6
					v-5.6H27.6z"/>
				<path class="st157" d="M27.6,39.3H34v5.4c1.6-1.6,2.7-3.9,2.7-6.4c0-5-4.1-9.1-9.1-9.1s-9.1,4.1-9.1,9.1c0,2.5,1,4.8,2.7,6.4
					v-5.4H27.6z"/>
				<path class="st158" d="M27.6,39.3h6.2v5.2c1.6-1.6,2.6-3.8,2.6-6.2c0-4.9-3.9-8.8-8.8-8.8s-8.8,3.9-8.8,8.8c0,2.4,1,4.6,2.6,6.2
					v-5.2H27.6z"/>
				<path class="st159" d="M27.6,39.3h6v5c1.5-1.5,2.5-3.7,2.5-6c0-4.7-3.8-8.5-8.5-8.5s-8.5,3.8-8.5,8.5c0,2.4,1,4.5,2.5,6v-5H27.6
					z"/>
				<path class="st160" d="M27.6,39.3h5.8v4.8c1.5-1.5,2.4-3.5,2.4-5.8c0-4.5-3.7-8.2-8.2-8.2s-8.2,3.7-8.2,8.2
					c0,2.3,0.9,4.3,2.4,5.8v-4.8H27.6z"/>
				<circle class="st161" cx="27.6" cy="38.3" r="7.9"/>
				<circle class="st162" cx="27.6" cy="38.3" r="7.7"/>
				<circle class="st163" cx="27.6" cy="38.3" r="7.4"/>
				<circle class="st164" cx="27.6" cy="38.3" r="7.1"/>
				<circle class="st165" cx="27.6" cy="38.3" r="6.8"/>
				<circle class="st166" cx="27.6" cy="38.3" r="6.5"/>
				<circle class="st167" cx="27.6" cy="38.3" r="6.2"/>
				<circle class="st168" cx="27.6" cy="38.3" r="6"/>
				<circle class="st169" cx="27.6" cy="38.3" r="5.7"/>
				<circle class="st170" cx="27.6" cy="38.3" r="5.4"/>
				<circle class="st171" cx="27.6" cy="38.3" r="5.1"/>
				<circle class="st172" cx="27.6" cy="38.3" r="4.8"/>
				<circle class="st173" cx="27.6" cy="38.3" r="4.5"/>
				<circle class="st174" cx="27.6" cy="38.3" r="4.3"/>
				<circle class="st175" cx="27.6" cy="38.3" r="4"/>
				<circle class="st176" cx="27.6" cy="38.3" r="3.7"/>
				<circle class="st177" cx="27.6" cy="38.3" r="3.4"/>
				<circle class="st178" cx="27.6" cy="38.3" r="3.1"/>
				<circle class="st179" cx="27.6" cy="38.3" r="2.8"/>
				<circle class="st180" cx="27.6" cy="38.3" r="2.6"/>
				<circle class="st181" cx="27.6" cy="38.3" r="2.3"/>
				<circle class="st182" cx="27.6" cy="38.3" r="2"/>
				<circle class="st183" cx="27.6" cy="38.3" r="1.7"/>
				<circle class="st184" cx="27.6" cy="38.3" r="1.4"/>
				<circle class="st185" cx="27.6" cy="38.3" r="1.1"/>
				<circle class="st186" cx="27.6" cy="38.3" r="0.9"/>
				<circle class="st187" cx="27.6" cy="38.3" r="0.6"/>
				<circle class="st188" cx="27.6" cy="38.3" r="0.3"/>
			</g>
		</g>
		<g>
			<g>
				<defs>
					<path id="SVGID_6_" d="M15.1,7.4c3.4,3.6,4.4,8,7.9,11.4c0.9,0.9,3.2,3,5.7,4.1c4.4,2.1,7.5,0.7,7.9-3.6c0.1-0.9,0-1.7-0.1-2.6
						c-0.7,2.6-3.4,1-5.3-1.2c-1.3-1.5-2.9-4.9-4.1-7.7c-1.1-2.5-2.8-4.5-5-5c-2.8-0.4-4.2-0.3-6.6,0C15,2.9,14.6,3,14.2,3.1
						c-2.3,0.6-3.2,1.2-4.8,2C10.2,4.7,12.1,4.1,15.1,7.4z"/>
				</defs>
				<clipPath id="SVGID_7_">
					<use xlink:href="#SVGID_6_"  style="overflow:visible;"/>
				</clipPath>
				<rect x="9.4" y="2.4" class="st189" width="27.3" height="22.6"/>
				<polygon class="st189" points="37.7,10.6 37.7,1.4 8.4,1.4 8.4,26 37.7,26 				"/>
				<polygon class="st190" points="37.7,10.6 37.7,1.4 8.4,1.4 8.4,26 37.7,26 				"/>
				<polygon class="st191" points="37.7,10.6 37.7,1.4 8.4,1.4 8.4,26 37.7,26 				"/>
				<polygon class="st192" points="37.7,10.6 37.7,1.4 8.4,1.4 8.4,26 37.7,26 				"/>
				<polygon class="st193" points="37.7,10.6 37.7,1.4 8.4,1.4 8.4,26 37.7,26 				"/>
				<polygon class="st194" points="37.7,10.6 37.7,1.4 8.4,1.4 8.4,26 37.7,26 				"/>
				<polygon class="st195" points="37.7,10.6 37.7,1.4 8.4,1.4 8.4,26 37.7,26 				"/>
				<polygon class="st196" points="37.7,10.6 37.7,1.4 8.4,1.4 8.4,26 37.7,26 				"/>
				<polygon class="st197" points="37.7,10.6 37.7,1.4 8.4,1.4 8.4,26 37.7,26 				"/>
				<polygon class="st198" points="37.7,10.6 37.7,1.4 8.4,1.4 8.4,26 37.7,26 				"/>
				<polygon class="st199" points="37.7,10.6 37.7,1.4 8.4,1.4 8.4,26 37.7,26 				"/>
				<polygon class="st200" points="37.7,10.6 37.7,1.4 8.4,1.4 8.4,26 37.7,26 				"/>
				<polygon class="st201" points="37.7,10.6 37.7,1.4 8.4,1.4 8.4,26 37.7,26 				"/>
				<polygon class="st202" points="37.7,10.6 37.7,1.4 8.4,1.4 8.4,26 37.7,26 				"/>
				<polygon class="st203" points="37.7,10.6 37.7,1.4 8.4,1.4 8.4,26 37.7,26 				"/>
				<polygon class="st204" points="37.7,10.6 37.7,1.4 8.4,1.4 8.4,26 37.7,26 				"/>
				<polygon class="st205" points="37.7,10.6 37.7,1.4 8.4,1.4 8.4,26 37.7,26 				"/>
				<polygon class="st206" points="37.7,10.6 37.7,1.4 8.4,1.4 8.4,26 37.7,26 				"/>
				<polygon class="st207" points="37.7,10.6 37.7,1.4 8.4,1.4 8.4,26 37.7,26 				"/>
				<polygon class="st208" points="37.7,10.6 37.7,1.4 8.4,1.4 8.4,26 37.7,26 				"/>
				<polygon class="st209" points="37.7,10.6 37.7,1.4 8.4,1.4 8.4,26 37.7,26 				"/>
				<polygon class="st210" points="37.7,10.6 37.7,1.4 8.4,1.4 8.4,26 37.7,26 				"/>
				<polygon class="st211" points="37.7,10.6 37.7,1.4 8.4,1.4 8.4,26 37.7,26 				"/>
				<polygon class="st212" points="37.7,10.6 37.7,1.4 8.4,1.4 8.4,26 37.7,26 				"/>
				<polygon class="st213" points="37.7,10.6 37.7,1.4 8.4,1.4 8.4,26 37.7,26 				"/>
				<polygon class="st214" points="37.7,10.6 37.7,1.4 8.4,1.4 8.4,26 37.7,26 				"/>
				<path class="st215" d="M37.7,10.6V1.4H8.4V26h26.3v6.8c5.7-5.7,9.2-13.5,9.2-22.2H37.7z"/>
				<path class="st216" d="M37.7,10.6V1.4H8.4V26h26v6.5c5.6-5.6,9-13.3,9-21.8H37.7z"/>
				<path class="st217" d="M37.7,10.6V1.4H8.4V26h25.7v6.2C39.6,26.7,43,19,43,10.6H37.7z"/>
				<path class="st218" d="M37.7,10.6V1.4H8.4V26h25.3v5.8c5.4-5.4,8.8-12.9,8.8-21.2H37.7z"/>
				<path class="st219" d="M37.7,10.6V1.4H8.4V26h25v5.5c5.3-5.3,8.6-12.7,8.6-20.9H37.7z"/>
				<path class="st220" d="M37.7,10.6V1.4H8.4V26h24.7v5.2c5.3-5.3,8.5-12.5,8.5-20.5H37.7z"/>
				<path class="st221" d="M37.7,10.6V1.4H8.4V26h24.4v4.9c5.2-5.2,8.4-12.3,8.4-20.2H37.7z"/>
				<path class="st222" d="M37.7,10.6V1.4H8.4V26h24v4.5c5.1-5.1,8.2-12.1,8.2-19.9H37.7z"/>
				<path class="st223" d="M37.7,10.6V1.4H8.4V26h23.7v4.2c5-5,8.1-11.9,8.1-19.6H37.7z"/>
				<path class="st224" d="M39.8,10.6c0-3.8-0.8-7.3-2.1-10.6v1.4H8.4V26h23.4v3.9C36.7,25,39.8,18.2,39.8,10.6z"/>
				<path class="st225" d="M39.3,10.6c0-3.7-0.7-7.2-2.1-10.4v1.2H8.4V26h23.1v3.6C36.3,24.7,39.3,18,39.3,10.6z"/>
				<path class="st226" d="M38.8,10.6c0-3.6-0.7-7.1-2.1-10.2v1H8.4V26h22.7v3.2C35.9,24.5,38.8,17.9,38.8,10.6z"/>
				<path class="st227" d="M38.4,10.6c0-3.6-0.7-7-2-10.1v0.8H8.4V26h22.4v2.9C35.5,24.2,38.4,17.8,38.4,10.6z"/>
				<path class="st228" d="M37.9,10.6c0-3.5-0.7-6.8-2-9.9v0.6H8.4V26h22.1v2.6C35.1,24,37.9,17.6,37.9,10.6z"/>
				<path class="st229" d="M37.5,10.6c0-3.4-0.7-6.7-2-9.7v0.5H8.4V26h21.8v2.2C34.7,23.7,37.5,17.5,37.5,10.6z"/>
				<path class="st230" d="M37,10.6c0-3.4-0.7-6.6-1.9-9.5v0.3H8.4V26h21.4v1.9C34.3,23.5,37,17.4,37,10.6z"/>
				<path class="st231" d="M36.5,10.6c0-3.3-0.7-6.5-1.9-9.3v0.1H8.4V26h21.1v1.6C33.8,23.3,36.5,17.3,36.5,10.6z"/>
				<path class="st232" d="M36.1,10.6c0-3.2-0.7-6.3-1.8-9.2c-0.6-1.4-1.3-2.7-2.2-4v3.9H8.4V26h20.8v1.3
					C33.4,23,36.1,17.1,36.1,10.6z"/>
				<path class="st233" d="M35.6,10.6c0-3.2-0.6-6.2-1.8-9c-0.6-1.4-1.3-2.7-2.1-3.9v3.7H8.4V26h20.5v0.9C33,22.8,35.6,17,35.6,10.6
					z"/>
				<path class="st234" d="M35.1,10.6c0-6.2-2.5-11.9-6.6-16v6.7H8.4V26h20.1v0.6C32.6,22.5,35.1,16.9,35.1,10.6z"/>
				<path class="st235" d="M34.7,10.6C34.7,4.5,32.2-1,28.2-5v6.4H8.4V26h4.2v6.8C24.8,32.8,34.7,22.9,34.7,10.6z"/>
				<path class="st236" d="M34.2,10.6c0-6-2.4-11.4-6.3-15.3v6.1H8.4V26h4.2v6.3C24.5,32.3,34.2,22.6,34.2,10.6z"/>
				<path class="st237" d="M33.8,10.6c0-5.9-2.4-11.2-6.2-15v5.8H8.4V26h4.2v5.8C24.3,31.9,33.8,22.4,33.8,10.6z"/>
				<path class="st238" d="M33.3,10.6C33.3,4.9,31-0.3,27.2-4v5.4H8.4V26h4.2v5.4C24,31.4,33.3,22.1,33.3,10.6z"/>
				<path class="st239" d="M32.8,10.6C32.8,5,30.6,0,26.9-3.7v5.1H8.4V26h4.2v4.9C23.8,30.9,32.8,21.8,32.8,10.6z"/>
				<path class="st240" d="M32.4,10.6c0-5.5-2.2-10.4-5.8-14v4.8H8.4V26h4.2v4.5C23.5,30.5,32.4,21.6,32.4,10.6z"/>
				<path class="st241" d="M31.9,10.6c0-5.3-2.2-10.2-5.7-13.7v4.5H8.4V26h4.2v4C23.2,30,31.9,21.3,31.9,10.6z"/>
				<path class="st242" d="M31.5,10.6c0-5.2-2.1-9.9-5.5-13.4v4.1H8.4V26h4.2v3.5C23,29.5,31.5,21.1,31.5,10.6z"/>
				<path class="st243" d="M31,10.6c0-5.1-2.1-9.7-5.4-13v3.8H8.4V26h4.2v3.1C22.7,29.1,31,20.8,31,10.6z"/>
				<path class="st244" d="M30.5,10.6c0-5-2-9.5-5.3-12.7v3.5H8.4V26h4.2v2.6C22.5,28.6,30.5,20.6,30.5,10.6z"/>
				<path class="st245" d="M30.1,10.6c0-4.8-2-9.2-5.1-12.4v3.2H8.4V26h4.2v2.2C22.2,28.2,30.1,20.3,30.1,10.6z"/>
				<path class="st246" d="M29.6,10.6c0-4.7-1.9-9-5-12.1v2.8H8.4V26h4.2v1.7C22,27.7,29.6,20.1,29.6,10.6z"/>
				<path class="st247" d="M29.2,10.6c0-4.6-1.9-8.7-4.9-11.7v2.5H8.4v24.5H6.1c2,0.8,4.2,1.3,6.5,1.3
					C21.7,27.2,29.2,19.8,29.2,10.6z"/>
				<path class="st248" d="M28.7,10.6c0-8.9-7.2-16.1-16.1-16.1v6.9H8.4v24.1H6.3c1.9,0.8,4.1,1.3,6.3,1.3
					C21.5,26.8,28.7,19.6,28.7,10.6z"/>
				<path class="st249" d="M28.2,10.6C28.2,2,21.2-5,12.6-5v6.4H8.4v20.3H1.5c2.8,2.8,6.8,4.6,11.1,4.6
					C21.2,26.3,28.2,19.3,28.2,10.6z"/>
				<path class="st250" d="M27.8,10.6c0-8.4-6.8-15.2-15.2-15.2v6H8.4v20H1.8c2.8,2.8,6.6,4.5,10.8,4.5C21,25.9,27.8,19,27.8,10.6z"
					/>
				<path class="st251" d="M27.3,10.6c0-8.1-6.6-14.8-14.8-14.8v5.5H8.4v19.7H2.1c2.7,2.7,6.4,4.3,10.4,4.3
					C20.7,25.4,27.3,18.8,27.3,10.6z"/>
				<path class="st252" d="M26.8,10.6c0-7.9-6.4-14.3-14.3-14.3v5.1H8.4v19.3h-6c2.6,2.6,6.2,4.2,10.1,4.2
					C20.4,24.9,26.8,18.5,26.8,10.6z"/>
				<path class="st253" d="M26.4,10.6c0-7.6-6.2-13.8-13.8-13.8v4.6H8.4v19H2.8c2.5,2.5,6,4.1,9.8,4.1
					C20.2,24.5,26.4,18.3,26.4,10.6z"/>
				<path class="st254" d="M25.9,10.6c0-7.4-6-13.4-13.4-13.4v4.1H8.4v18.7H3.1c2.4,2.4,5.8,3.9,9.5,3.9C19.9,24,25.9,18,25.9,10.6z
					"/>
				<path class="st255" d="M25.5,10.6c0-7.1-5.8-12.9-12.9-12.9C9-2.3,5.8-0.8,3.4,1.5h5v18.3h-5c2.3,2.3,5.6,3.8,9.1,3.8
					C19.7,23.6,25.5,17.8,25.5,10.6z"/>
				<path class="st256" d="M25,10.6c0-6.9-5.6-12.4-12.4-12.4C9.1-1.8,6-0.4,3.7,1.8h4.7v17.6H3.7c2.3,2.3,5.4,3.6,8.8,3.6
					C19.4,23.1,25,17.5,25,10.6z"/>
				<path class="st257" d="M24.5,10.6c0-6.6-5.4-12-12-12C9.2-1.3,6.2,0,4.1,2.2h4.3v17H4.1c2.2,2.2,5.2,3.5,8.5,3.5
					C19.2,22.6,24.5,17.3,24.5,10.6z"/>
				<path class="st258" d="M24.1,10.6c0-6.4-5.2-11.5-11.5-11.5c-3.2,0-6.1,1.3-8.2,3.4h4v16.3h-4c2.1,2.1,5,3.4,8.2,3.4
					C18.9,22.2,24.1,17,24.1,10.6z"/>
				<circle class="st259" cx="12.6" cy="10.6" r="11.1"/>
				<circle class="st260" cx="12.6" cy="10.6" r="10.6"/>
				<circle class="st261" cx="12.6" cy="10.6" r="10.1"/>
				<circle class="st262" cx="12.6" cy="10.6" r="9.7"/>
				<circle class="st263" cx="12.6" cy="10.6" r="9.2"/>
				<circle class="st264" cx="12.6" cy="10.6" r="8.8"/>
				<circle class="st265" cx="12.6" cy="10.6" r="8.3"/>
				<circle class="st266" cx="12.6" cy="10.6" r="7.8"/>
				<circle class="st267" cx="12.6" cy="10.6" r="7.4"/>
				<circle class="st268" cx="12.6" cy="10.6" r="6.9"/>
				<circle class="st269" cx="12.6" cy="10.6" r="6.5"/>
				<circle class="st270" cx="12.6" cy="10.6" r="6"/>
				<circle class="st271" cx="12.6" cy="10.6" r="5.5"/>
				<circle class="st272" cx="12.6" cy="10.6" r="5.1"/>
				<circle class="st273" cx="12.6" cy="10.6" r="4.6"/>
				<circle class="st274" cx="12.6" cy="10.6" r="4.1"/>
				<circle class="st275" cx="12.6" cy="10.6" r="3.7"/>
				<circle class="st276" cx="12.6" cy="10.6" r="3.2"/>
				<circle class="st277" cx="12.6" cy="10.6" r="2.8"/>
				<circle class="st278" cx="12.6" cy="10.6" r="2.3"/>
				<circle class="st279" cx="12.6" cy="10.6" r="1.8"/>
				<circle class="st280" cx="12.6" cy="10.6" r="1.4"/>
				<circle class="st281" cx="12.6" cy="10.6" r="0.9"/>
				<circle class="st282" cx="12.6" cy="10.6" r="0.5"/>
			</g>
		</g>
		<g>
			<g>
				<defs>
					<path id="SVGID_8_" d="M36,27.5c-3.6,3.9-12.9,3.3-26.4-13c-4.3-5.2-7.3-2.7-8.4,0.3c-0.5,1.4-0.7,2.5-0.9,3.5
						c-0.1,0.4-0.2,1.4-0.2,1.4c-0.5,5.3,1.2,10.9,5.3,15c6.6,6.6,17.1,7.2,24.4,1.6c0.1-0.1,0.2-0.1,0.3-0.2
						C32.8,33.9,34.9,30.9,36,27.5z"/>
				</defs>
				<clipPath id="SVGID_9_">
					<use xlink:href="#SVGID_8_"  style="overflow:visible;"/>
				</clipPath>
				<rect x="-0.4" y="9.3" class="st283" width="36.4" height="32.6"/>
				<path class="st283" d="M37,10.6V8.3H-1.4v34.6h38.2v3.7c2.3-1.6,4.5-3.3,6.4-5.3H37V10.6z"/>
				<path class="st284" d="M37,10.6V8.3H-1.4v34.6h37.9v3.3c2.3-1.5,4.4-3.3,6.3-5.2H37V10.6z"/>
				<path class="st285" d="M37,10.6V8.3H-1.4v34.6h30.5v6.8c5.1-2.1,9.6-5.3,13.5-9.1H37V10.6z"/>
				<path class="st286" d="M37,10.6V8.3H-1.4v34.6h30.3v6.4c5-2.1,9.5-5.2,13.3-9H37V10.6z"/>
				<path class="st287" d="M37,10.6V8.3H-1.4v34.6h30.1v6c5-2.1,9.4-5.1,13.2-8.9H37V10.6z"/>
				<path class="st288" d="M37,10.6V8.3H-1.4v34.6h29.9v5.6c4.9-2.1,9.3-5.1,13-8.8H37V10.6z"/>
				<path class="st289" d="M37,10.6V8.3H-1.4v34.6h29.7V48c4.9-2.1,9.2-5,12.9-8.7H37V10.6z"/>
				<path class="st290" d="M37,10.6V8.3H-1.4v34.6h29.6v4.7c4.8-2,9.1-5,12.8-8.6H37V10.6z"/>
				<path class="st291" d="M37,10.6V8.3H-1.4v34.6H28v4.3c4.7-2,9-4.9,12.6-8.5H37V10.6z"/>
				<path class="st292" d="M37,10.6V8.3H-1.4v34.6h14v6.9c10.8,0,20.6-4.4,27.7-11.5H37V10.6z"/>
				<path class="st293" d="M37,10.6V8.3H-1.4v34.6h14v6.5c10.7,0,20.4-4.3,27.4-11.3H37V10.6z"/>
				<path class="st294" d="M37,10.6V8.3H-1.4v34.6h14v6c10.6,0,20.1-4.3,27.1-11.2H37V10.6z"/>
				<path class="st295" d="M37,10.6V8.3H-1.4v34.6h14v5.5c10.4,0,19.9-4.2,26.7-11.1H37V10.6z"/>
				<path class="st296" d="M37,10.6V8.3H-1.4v34.6h14V48C22.9,48,32.2,43.8,39,37h-2V10.6z"/>
				<path class="st297" d="M37,10.6V8.3H-1.4v34.6h14v4.6c10.2,0,19.4-4.1,26.1-10.8H37V10.6z"/>
				<path class="st298" d="M37,10.6V8.3H-1.4v34.6h14v4.2c10.1,0,19.2-4.1,25.8-10.7H37V10.6z"/>
				<path class="st299" d="M37,10.6V8.3H-1.4v34.6h14v3.7c9.9,0,18.9-4,25.4-10.5h-1V10.6z"/>
				<path class="st300" d="M37,10.6V8.3H-1.4v31.8h-5.9c1.9,1.3,3.9,2.4,6,3.3v-0.5h13.8v3.2c9.8,0,18.7-4,25.1-10.4H37V10.6z"/>
				<path class="st301" d="M37,10.6V8.3H-1.4v31.4H-7c1.9,1.3,3.9,2.3,6,3.2v0h13.6v2.8c9.7,0,18.4-3.9,24.8-10.3H37V10.6z"/>
				<path class="st302" d="M37,10.6V8.3H-1.4v31h-5.4c1.8,1.2,3.8,2.3,5.9,3.2c4.1,1.7,8.7,2.7,13.5,2.7c9.5,0,18.2-3.9,24.5-10.1h0
					V10.6z"/>
				<path class="st303" d="M37,10.6V8.3H-1.4v30.6h-5.1c1.8,1.2,3.8,2.3,5.8,3.1c4.1,1.7,8.6,2.7,13.3,2.7c9.4,0,18-3.8,24.1-10
					c3.1-3.1,5.6-6.8,7.3-10.8h-7V10.6z"/>
				<path class="st304" d="M37,10.6V8.3H-1.4v30.3h-4.9c1.8,1.2,3.7,2.3,5.7,3.1c4,1.7,8.5,2.6,13.1,2.6c9.3,0,17.7-3.8,23.8-9.9
					c3-3,5.5-6.7,7.2-10.7H37V10.6z"/>
				<path class="st305" d="M37,10.6V8.3H-1.4v29.9H-6c1.8,1.2,3.7,2.2,5.6,3.1c4,1.7,8.3,2.6,12.9,2.6c9.2,0,17.5-3.7,23.5-9.7
					c3-3,5.4-6.6,7.1-10.6H37V10.6z"/>
				<path class="st306" d="M37,10.6V8.3H-1.4v29.5h-4.4c1.7,1.2,3.6,2.2,5.6,3c3.9,1.7,8.2,2.6,12.7,2.6c9,0,17.2-3.7,23.1-9.6
					c3-3,5.4-6.5,7-10.4H37V10.6z"/>
				<path class="st307" d="M37,10.6V8.3H-1.4v29.1h-4.1c1.7,1.2,3.6,2.2,5.5,3c3.9,1.6,8.1,2.5,12.6,2.5c8.9,0,17-3.6,22.8-9.5
					c2.9-2.9,5.3-6.4,6.9-10.3H37V10.6z"/>
				<path class="st308" d="M37,10.6V8.3H-1.4V37h-3.8c1.7,1.1,3.5,2.1,5.4,2.9c3.8,1.6,8,2.5,12.4,2.5c8.8,0,16.7-3.6,22.5-9.3
					c2.9-2.9,5.2-6.3,6.8-10.1H37V10.6z"/>
				<path class="st309" d="M37,10.6V8.3H-1.4v28.3H-5c1.7,1.1,3.5,2.1,5.3,2.9C4.1,41.1,8.2,42,12.6,42c17.3,0,31.4-14,31.4-31.4H37
					z"/>
				<path class="st310" d="M37,10.6V8.3H-1.4v28h-3.3c1.6,1.1,3.4,2.1,5.2,2.8c3.7,1.6,7.8,2.4,12,2.4c17.1,0,30.9-13.8,30.9-30.9
					H37z"/>
				<path class="st311" d="M37,10.6V8.3H-1.4v27.6h-3.1c1.6,1.1,3.3,2,5.2,2.8c3.6,1.5,7.6,2.4,11.8,2.4C29.4,41.1,43,27.4,43,10.6
					H37z"/>
				<path class="st312" d="M37,10.6V8.3H-1.4v27.2h-2.8c1.6,1.1,3.3,2,5.1,2.8c3.6,1.5,7.5,2.4,11.7,2.4c16.6,0,30-13.4,30-30H37z"
					/>
				<path class="st313" d="M37,10.6V8.3H-1.4v23.2h-6.9c5.3,5.3,12.7,8.6,20.9,8.6c16.3,0,29.5-13.2,29.5-29.5H37z"/>
				<path class="st314" d="M37,10.6V8.3H-1.4v22.9H-8c5.3,5.3,12.5,8.5,20.5,8.5c16,0,29-13,29-29H37z"/>
				<path class="st315" d="M37,10.6V8.3H-1.4v22.6h-6.3c5.2,5.2,12.3,8.4,20.2,8.4c15.8,0,28.6-12.8,28.6-28.6H37z"/>
				<path class="st316" d="M37,10.6V8.3H-1.4v22.2h-5.9c5.1,5.1,12.1,8.2,19.9,8.2c15.5,0,28.1-12.6,28.1-28.1H37z"/>
				<path class="st317" d="M37,10.6V8.3H-1.4v21.9H-7c5,5,11.9,8.1,19.6,8.1c15.3,0,27.7-12.4,27.7-27.7H37z"/>
				<path class="st318" d="M37,10.6V8.3H-1.4v21.6h-5.3c4.9,4.9,11.7,8,19.2,8c15,0,27.2-12.2,27.2-27.2H37z"/>
				<path class="st319" d="M37,10.6V8.3H-1.4v21.3h-5c4.8,4.8,11.5,7.8,18.9,7.8c14.8,0,26.7-12,26.7-26.7H37z"/>
				<path class="st320" d="M37,10.6V8.3H-1.4v20.9H-6c4.8,4.8,11.3,7.7,18.6,7.7c14.5,0,26.3-11.8,26.3-26.3H37z"/>
				<path class="st321" d="M37,10.6V8.3H-1.4v20.6h-4.3c4.7,4.7,11.1,7.6,18.3,7.6c14.3,0,25.8-11.6,25.8-25.8H37z"/>
				<path class="st322" d="M37,10.6V8.3H-1.4v20.3h-4C-0.8,33.2,5.5,36,12.6,36c14,0,25.4-11.4,25.4-25.4H37z"/>
				<path class="st323" d="M37.5,10.6c0-1.7-0.2-3.4-0.5-5v2.7H-1.4v19.9h-3.7c4.5,4.5,10.7,7.3,17.6,7.3
					C26.3,35.5,37.5,24.4,37.5,10.6z"/>
				<path class="st324" d="M37,10.6c0-1.7-0.2-3.3-0.5-4.9v2.6H-1.4v19.6h-3.3c4.4,4.4,10.5,7.2,17.3,7.2C26,35.1,37,24.1,37,10.6z"
					/>
				<path class="st325" d="M36.5,10.6c0-3.3-0.7-6.5-1.9-9.3v7h-36v19.3h-3c4.3,4.3,10.3,7,17,7C25.8,34.6,36.5,23.9,36.5,10.6z"/>
				<path class="st326" d="M36.1,10.6c0-3.2-0.7-6.3-1.8-9.2v6.8H-1.4v19h-2.7c4.3,4.3,10.1,6.9,16.6,6.9
					C25.5,34.2,36.1,23.6,36.1,10.6z"/>
				<path class="st327" d="M35.6,10.6c0-3.2-0.6-6.2-1.8-9v6.6H-1.4v18.6h-2.4c4.2,4.2,9.9,6.8,16.3,6.8
					C25.3,33.7,35.6,23.4,35.6,10.6z"/>
				<path class="st328" d="M35.1,10.6c0-3.1-0.6-6.1-1.8-8.8v6.5H-1.4v18.3h-2c4.1,4.1,9.7,6.6,16,6.6C25,33.2,35.1,23.1,35.1,10.6z
					"/>
				<path class="st329" d="M34.7,10.6c0-3.1-0.6-6-1.7-8.6v6.3H-1.4v18h-1.7c4,4,9.5,6.5,15.7,6.5C24.8,32.8,34.7,22.9,34.7,10.6z"
					/>
				<path class="st330" d="M34.2,10.6c0-3-0.6-5.8-1.7-8.4v6.1H-1.4V26h-1.4c3.9,3.9,9.3,6.3,15.3,6.3
					C24.5,32.3,34.2,22.6,34.2,10.6z"/>
				<path class="st331" d="M33.8,10.6c0-2.9-0.6-5.7-1.7-8.3v5.9H-1.4v17.3h-1c3.8,3.8,9.1,6.2,15,6.2
					C24.3,31.9,33.8,22.4,33.8,10.6z"/>
				<path class="st332" d="M33.3,10.6c0-2.9-0.6-5.6-1.6-8.1v5.7H-1.4v2.3h-6.8c0,11.5,9.3,20.7,20.7,20.7S33.3,22.1,33.3,10.6z"/>
				<path class="st333" d="M32.8,10.6c0-2.8-0.6-5.5-1.6-7.9v5.6H-1.4v2.3h-6.3c0,11.2,9.1,20.3,20.3,20.3S32.8,21.8,32.8,10.6z"/>
				<path class="st334" d="M32.4,10.6c0-2.7-0.6-5.3-1.6-7.7v5.4H-1.4v2.3h-5.9c0,11,8.9,19.8,19.8,19.8S32.4,21.6,32.4,10.6z"/>
				<path class="st335" d="M31.9,10.6c0-2.7-0.5-5.2-1.5-7.5v5.2H-1.4v2.3h-5.4C-6.8,21.3,1.9,30,12.6,30S31.9,21.3,31.9,10.6z"/>
				<path class="st336" d="M31.5,10.6c0-2.6-0.5-5.1-1.5-7.4v5H-1.4v2.3h-5c0,10.4,8.5,18.9,18.9,18.9S31.5,21.1,31.5,10.6z"/>
				<path class="st337" d="M31,10.6c0-2.5-0.5-5-1.4-7.2v4.8H-1.4v2.3h-4.5c0,10.2,8.3,18.4,18.4,18.4S31,20.8,31,10.6z"/>
				<path class="st338" d="M30.5,10.6c0-2.5-0.5-4.8-1.4-7v4.7H-1.4v2.3h-4c0,9.9,8.1,18,18,18S30.5,20.6,30.5,10.6z"/>
				<path class="st339" d="M30.1,10.6c0-2.4-0.5-4.7-1.4-6.8v4.5H-1.4v2.3H-5c0,9.7,7.8,17.5,17.5,17.5S30.1,20.3,30.1,10.6z"/>
				<path class="st340" d="M29.6,10.6c0-2.4-0.5-4.6-1.3-6.6v4.3H-1.4v2.3h-3.1c0,9.4,7.6,17.1,17.1,17.1S29.6,20.1,29.6,10.6z"/>
				<path class="st341" d="M29.2,10.6c0-2.3-0.5-4.5-1.3-6.5v4.1H-1.4v2.3H-4c0,9.2,7.4,16.6,16.6,16.6S29.2,19.8,29.2,10.6z"/>
				<path class="st342" d="M28.7,10.6c0-2.2-0.5-4.4-1.3-6.3v3.9H-1.4v2.3h-2.2c0,8.9,7.2,16.1,16.1,16.1S28.7,19.6,28.7,10.6z"/>
				<path class="st343" d="M28.2,10.6c0-2.2-0.4-4.2-1.2-6.1v3.8H-1.4v2.3h-1.7c0,8.7,7,15.7,15.7,15.7S28.2,19.3,28.2,10.6z"/>
				<path class="st344" d="M27.8,10.6c0-2.1-0.4-4.1-1.2-5.9v3.6h-28v2.3h-1.3c0,8.4,6.8,15.2,15.2,15.2S27.8,19,27.8,10.6z"/>
				<path class="st345" d="M27.3,10.6c0-2-0.4-4-1.2-5.7v3.4H-1V4.9c-0.7,1.8-1.2,3.7-1.2,5.7c0,8.1,6.6,14.8,14.8,14.8
					S27.3,18.8,27.3,10.6z"/>
				<path class="st346" d="M26.8,10.6c0-2-0.4-3.9-1.1-5.6v3.2H-0.6V5.1c-0.7,1.7-1.1,3.6-1.1,5.6c0,7.9,6.4,14.3,14.3,14.3
					S26.8,18.5,26.8,10.6z"/>
				<path class="st347" d="M26.4,10.6c0-1.9-0.4-3.7-1.1-5.4v3H-0.2v-3c-0.7,1.7-1.1,3.5-1.1,5.4c0,7.6,6.2,13.8,13.8,13.8
					S26.4,18.3,26.4,10.6z"/>
				<path class="st348" d="M25.9,10.6c0-1.8-0.4-3.6-1.1-5.2v2.9H0.2V5.4C-0.4,7-0.8,8.8-0.8,10.6c0,7.4,6,13.4,13.4,13.4
					S25.9,18,25.9,10.6z"/>
				<path class="st349" d="M25.5,10.6c0-3.6-1.4-6.8-3.8-9.1v6.8H3.4V1.5c-2.3,2.3-3.8,5.6-3.8,9.1c0,7.1,5.8,12.9,12.9,12.9
					S25.5,17.8,25.5,10.6z"/>
				<path class="st350" d="M25,10.6c0-3.4-1.4-6.6-3.6-8.8v6.5H3.7V1.8c-2.3,2.3-3.6,5.4-3.6,8.8c0,6.9,5.6,12.4,12.4,12.4
					S25,17.5,25,10.6z"/>
				<path class="st351" d="M24.5,10.6c0-3.3-1.3-6.3-3.5-8.5v6.1h-17V2.2c-2.2,2.2-3.5,5.2-3.5,8.5c0,6.6,5.4,12,12,12
					S24.5,17.3,24.5,10.6z"/>
				<path class="st352" d="M24.1,10.6c0-3.2-1.3-6.1-3.4-8.2v5.8H4.4V2.5C2.3,4.6,1,7.5,1,10.6C1,17,6.2,22.2,12.6,22.2
					S24.1,17,24.1,10.6z"/>
				<path class="st353" d="M23.6,10.6c0-3.1-1.2-5.8-3.2-7.8v5.5H4.7V2.8c-2,2-3.2,4.8-3.2,7.8c0,6.1,5,11.1,11.1,11.1
					S23.6,16.8,23.6,10.6z"/>
				<path class="st354" d="M23.2,10.6c0-2.9-1.2-5.6-3.1-7.5v5.2h-15V3.1c-1.9,1.9-3.1,4.6-3.1,7.5c0,5.9,4.7,10.6,10.6,10.6
					S23.2,16.5,23.2,10.6z"/>
				<path class="st355" d="M22.7,10.6c0-2.8-1.1-5.3-3-7.2v4.8H5.4V3.5c-1.8,1.8-3,4.4-3,7.2c0,5.6,4.5,10.1,10.1,10.1
					S22.7,16.2,22.7,10.6z"/>
				<path class="st356" d="M22.2,10.6c0-2.7-1.1-5.1-2.8-6.8v4.5H5.7V3.8C4,5.5,2.9,8,2.9,10.6c0,5.3,4.3,9.7,9.7,9.7
					S22.2,16,22.2,10.6z"/>
				<circle class="st357" cx="12.6" cy="10.6" r="9.2"/>
				<circle class="st358" cx="12.6" cy="10.6" r="8.8"/>
				<circle class="st359" cx="12.6" cy="10.6" r="8.3"/>
				<circle class="st360" cx="12.6" cy="10.6" r="7.8"/>
				<circle class="st361" cx="12.6" cy="10.6" r="7.4"/>
				<circle class="st362" cx="12.6" cy="10.6" r="6.9"/>
				<circle class="st363" cx="12.6" cy="10.6" r="6.5"/>
				<circle class="st364" cx="12.6" cy="10.6" r="6"/>
				<circle class="st365" cx="12.6" cy="10.6" r="5.5"/>
				<circle class="st366" cx="12.6" cy="10.6" r="5.1"/>
				<circle class="st367" cx="12.6" cy="10.6" r="4.6"/>
				<circle class="st368" cx="12.6" cy="10.6" r="4.1"/>
				<circle class="st369" cx="12.6" cy="10.6" r="3.7"/>
				<circle class="st370" cx="12.6" cy="10.6" r="3.2"/>
				<circle class="st371" cx="12.6" cy="10.6" r="2.8"/>
				<circle class="st372" cx="12.6" cy="10.6" r="2.3"/>
				<circle class="st373" cx="12.6" cy="10.6" r="1.8"/>
				<circle class="st374" cx="12.6" cy="10.6" r="1.4"/>
				<circle class="st375" cx="12.6" cy="10.6" r="0.9"/>
				<circle class="st376" cx="12.6" cy="10.6" r="0.5"/>
			</g>
		</g>
	</g>
	<g>
		<g>
			<g>
				<path class="st377" d="M46.5,38.6l-0.8,0.9v1.9c0,0.1,0,0.1-0.1,0.1h-0.3c-0.1,0-0.1,0-0.1-0.1v-5.6c0-0.1,0-0.1,0.1-0.1h0.3
					c0.1,0,0.1,0,0.1,0.1v3l2.4-3c0.1-0.1,0.2-0.1,0.3-0.1h0.4h0.1c0,0,0,0,0,0.1l-2,2.4l2.2,3.2c0,0.1,0,0.1,0,0.1h-0.4
					c-0.1,0-0.1,0-0.1,0s-0.1,0-0.1-0.1L46.5,38.6z"/>
			</g>
			<g>
				<path class="st377" d="M53.7,39.3c0,0.3,0,0.6-0.1,0.9c-0.1,0.3-0.2,0.5-0.4,0.7s-0.4,0.4-0.7,0.5s-0.5,0.2-0.9,0.2
					s-0.6-0.1-0.9-0.2c-0.3-0.1-0.5-0.3-0.7-0.5c-0.1-0.2-0.3-0.4-0.3-0.7c-0.1-0.3-0.1-0.5-0.1-0.9c0-0.6,0.2-1.1,0.5-1.5
					c0.4-0.5,0.9-0.7,1.5-0.7c0.3,0,0.6,0.1,0.9,0.2c0.2,0.1,0.5,0.3,0.6,0.5C53.6,38.2,53.7,38.7,53.7,39.3z M53.2,39.3
					c0-0.2,0-0.5-0.1-0.7s-0.2-0.4-0.3-0.6c-0.3-0.3-0.6-0.5-1.1-0.5c-0.2,0-0.4,0-0.6,0.1c-0.2,0.1-0.3,0.2-0.5,0.4
					c-0.1,0.2-0.2,0.4-0.3,0.6c-0.1,0.2-0.1,0.4-0.1,0.7c0,0.2,0,0.5,0.1,0.7s0.2,0.4,0.3,0.6c0.3,0.3,0.6,0.5,1.1,0.5
					c0.2,0,0.4,0,0.6-0.1c0.2-0.1,0.3-0.2,0.5-0.4c0.1-0.2,0.2-0.3,0.3-0.6C53.1,39.8,53.2,39.6,53.2,39.3z"/>
			</g>
			<g>
				<path class="st377" d="M56.8,37.7c-0.1,0-0.2,0-0.4,0c-0.4,0-0.7,0.2-0.9,0.6c-0.1,0.3-0.2,0.7-0.2,1.1v2c0,0.1,0,0.1-0.1,0.1
					h-0.3c-0.1,0-0.1,0-0.1-0.1v-3.2c0-0.2,0-0.3,0-0.5c0-0.1,0-0.2,0-0.4c0-0.1,0-0.1,0.1-0.1h0.3c0.1,0,0.1,0,0.1,0.1v0.8
					c0.3-0.7,0.6-1,1.1-1c0.1,0,0.2,0,0.4,0c0,0,0.1,0,0.1,0.1s0,0.1,0,0.1v0.3C56.9,37.7,56.9,37.7,56.8,37.7L56.8,37.7z"/>
			</g>
			<g>
				<path class="st377" d="M57.9,39.5c0,0.3,0,0.5,0.1,0.7s0.2,0.4,0.3,0.5s0.3,0.2,0.4,0.3c0.2,0.1,0.4,0.1,0.6,0.1
					c0.2,0,0.4,0,0.6-0.1c0.2,0,0.4-0.1,0.5-0.2c0.1,0,0.1,0,0.1,0.1v0.4c0,0,0,0.1-0.1,0.1c-0.2,0.1-0.4,0.1-0.5,0.2
					c-0.2,0-0.4,0.1-0.6,0.1c-0.6,0-1.1-0.2-1.5-0.6c-0.3-0.4-0.5-0.9-0.5-1.7c0-0.7,0.2-1.2,0.5-1.6c0.3-0.4,0.8-0.6,1.3-0.6
					c0.3,0,0.5,0.1,0.8,0.2c0.2,0.1,0.4,0.3,0.5,0.5c0.3,0.4,0.4,0.9,0.4,1.5c0,0.1,0,0.1,0,0.2v0.1c0,0,0,0-0.1,0c0,0-0.1,0-0.2,0
					h-2.6V39.5z M60.2,39c0-0.2,0-0.4-0.1-0.6c0-0.2-0.1-0.3-0.2-0.5c-0.2-0.3-0.5-0.5-0.8-0.5c-0.4,0-0.7,0.2-0.9,0.5
					C58.1,38,58,38.2,58,38.4c-0.1,0.2-0.1,0.4-0.1,0.5L60.2,39L60.2,39z"/>
			</g>
			<g>
				<path class="st377" d="M62.1,37.9C62,37.9,62,37.9,62.1,37.9C62,37.9,62,37.9,62.1,37.9L62,37.6c0-0.1,0-0.1,0.1-0.2
					c0.2-0.1,0.4-0.2,0.6-0.2c0.2,0,0.4-0.1,0.7-0.1c0.5,0,0.9,0.1,1.1,0.4s0.4,0.6,0.4,1.1v2c0,0.2,0,0.3,0,0.4c0,0.1,0,0.2,0,0.4
					c0,0.1,0,0.1-0.1,0.1h-0.3c-0.1,0-0.1,0-0.1-0.1v-0.6c-0.1,0.3-0.3,0.5-0.6,0.6c-0.3,0.1-0.5,0.2-0.8,0.2
					c-0.5,0-0.9-0.2-1.2-0.5c-0.1-0.1-0.1-0.2-0.2-0.4s-0.1-0.3-0.1-0.4c0-0.3,0.1-0.6,0.2-0.8c0.1-0.2,0.4-0.4,0.7-0.5
					c0.4-0.1,0.9-0.2,1.7-0.2h0.1v-0.2c0-0.3-0.1-0.6-0.2-0.7c-0.1-0.2-0.4-0.3-0.7-0.3c-0.2,0-0.5,0-0.7,0.1
					C62.4,37.7,62.2,37.8,62.1,37.9z M64.3,39.2L64.3,39.2c-0.4,0-0.6,0-0.9,0c-0.2,0-0.4,0.1-0.6,0.1c-0.2,0.1-0.4,0.2-0.5,0.3
					s-0.2,0.3-0.2,0.5c0,0.1,0,0.3,0.1,0.4c0,0.1,0.1,0.2,0.2,0.3c0.2,0.1,0.4,0.2,0.6,0.2c0.2,0,0.3,0,0.5-0.1s0.3-0.2,0.4-0.3
					s0.2-0.3,0.3-0.5s0.1-0.4,0.1-0.7V39.2z"/>
			</g>
			<g>
				<path class="st377" d="M74.3,41.3C74.3,41.4,74.3,41.4,74.3,41.3l-0.5,0.1c-0.1,0-0.1,0-0.1-0.1v-5.2c-0.4,1-0.7,1.8-1,2.6
					c-0.1,0.3-0.3,0.6-0.4,0.9c-0.1,0.3-0.2,0.6-0.3,0.8s-0.2,0.4-0.2,0.6c-0.1,0.2-0.1,0.2-0.1,0.2c0,0.1-0.1,0.1-0.1,0.1h-0.4
					h-0.1c0,0,0,0,0-0.1L68.9,36v5.2c0,0.1,0,0.1-0.1,0.1h-0.4c-0.1,0-0.1,0-0.1-0.1v-5.5c0-0.1,0-0.2,0-0.2s0.1,0,0.2,0h0.6h0.1
					c0,0,0,0,0,0.1l2.1,5l2-5.1c0-0.1,0.1-0.1,0.1-0.1H74c0.1,0,0.2,0,0.2,0s0,0.1,0,0.2v5.7H74.3z"/>
			</g>
			<g>
				<path class="st377" d="M79.5,39.3c0,0.3,0,0.6-0.1,0.9c-0.1,0.3-0.2,0.5-0.4,0.7c-0.2,0.2-0.4,0.4-0.7,0.5
					c-0.3,0.1-0.5,0.2-0.9,0.2s-0.6-0.1-0.9-0.2c-0.3-0.1-0.5-0.3-0.7-0.5c-0.1-0.2-0.3-0.4-0.3-0.7c-0.1-0.3-0.1-0.5-0.1-0.9
					c0-0.6,0.2-1.1,0.5-1.5c0.4-0.5,0.9-0.7,1.5-0.7c0.3,0,0.6,0.1,0.9,0.2c0.3,0.1,0.5,0.3,0.6,0.5C79.4,38.2,79.5,38.7,79.5,39.3z
					 M79,39.3c0-0.2,0-0.5-0.1-0.7s-0.2-0.4-0.3-0.6c-0.3-0.3-0.6-0.5-1.1-0.5c-0.2,0-0.4,0-0.6,0.1s-0.3,0.2-0.5,0.4
					c-0.1,0.2-0.2,0.4-0.3,0.6S76,39,76,39.3c0,0.2,0,0.5,0.1,0.7s0.2,0.4,0.3,0.6c0.3,0.3,0.6,0.5,1.1,0.5c0.2,0,0.4,0,0.6-0.1
					s0.3-0.2,0.5-0.4c0.1-0.2,0.2-0.3,0.3-0.6C78.9,39.8,79,39.6,79,39.3z"/>
			</g>
			<g>
				<path class="st377" d="M82.1,41.3c0,0.1-0.1,0.1-0.2,0.1h-0.4c-0.1,0-0.1,0-0.1-0.1l-1.4-4v-0.1c0,0,0,0,0.1,0h0.4
					c0.1,0,0.1,0,0.1,0.1l1.2,3.6l1.2-3.6c0,0,0-0.1,0.1-0.1h0.1h0.3h0.1c0,0,0,0,0,0.1L82.1,41.3z"/>
			</g>
			<g>
				<path class="st377" d="M84.6,39.5c0,0.3,0,0.5,0.1,0.7s0.2,0.4,0.3,0.5c0.1,0.1,0.3,0.2,0.4,0.3c0.2,0.1,0.4,0.1,0.6,0.1
					s0.4,0,0.6-0.1c0.2,0,0.4-0.1,0.5-0.2c0.1,0,0.1,0,0.1,0.1v0.4c0,0,0,0.1-0.1,0.1c-0.2,0.1-0.4,0.1-0.5,0.2
					c-0.2,0-0.4,0.1-0.6,0.1c-0.6,0-1.1-0.2-1.5-0.6c-0.3-0.4-0.5-0.9-0.5-1.7c0-0.7,0.2-1.2,0.5-1.6c0.3-0.4,0.8-0.6,1.3-0.6
					c0.3,0,0.5,0.1,0.8,0.2c0.2,0.1,0.4,0.3,0.5,0.5c0.3,0.4,0.4,0.9,0.4,1.5c0,0.1,0,0.1,0,0.2v0.1c0,0,0,0-0.1,0c0,0-0.1,0-0.2,0
					h-2.6V39.5z M87,39c0-0.2,0-0.4-0.1-0.6c0-0.2-0.1-0.3-0.2-0.5c-0.2-0.3-0.5-0.5-0.8-0.5c-0.4,0-0.7,0.2-0.9,0.5
					c-0.1,0.1-0.2,0.3-0.2,0.5c-0.1,0.2-0.1,0.4-0.1,0.5L87,39L87,39z"/>
			</g>
			<g>
				<path class="st377" d="M91.3,41.4h-0.4c-0.1,0-0.1,0-0.1-0.1v-5.6c0-0.1,0-0.1,0.1-0.1h0.4c0.1,0,0.1,0,0.1,0.1L91.3,41.4
					C91.4,41.4,91.3,41.4,91.3,41.4z"/>
			</g>
			<g>
				<path class="st377" d="M92.7,38.2c0-0.2,0-0.4,0-0.5s0-0.2,0-0.4c0-0.1,0-0.1,0.1-0.1h0.3c0.1,0,0.1,0,0.1,0.1v0.4
					c0.1-0.2,0.3-0.3,0.5-0.5c0.2-0.1,0.5-0.2,0.7-0.2c0.3,0,0.6,0.1,0.8,0.2c0.2,0.2,0.4,0.4,0.4,0.7c0.1-0.3,0.3-0.5,0.5-0.7
					s0.5-0.2,0.8-0.2c0.2,0,0.4,0,0.6,0.1s0.3,0.2,0.4,0.3s0.2,0.3,0.3,0.4c0.1,0.2,0.1,0.4,0.1,0.5v2.8c0,0.1,0,0.1-0.1,0.1H98
					c-0.1,0-0.1,0-0.1-0.1v-2.7c0-0.7-0.3-1.1-0.9-1.1c-0.2,0-0.3,0-0.5,0.1c-0.1,0.1-0.3,0.2-0.4,0.3s-0.2,0.3-0.2,0.5
					s-0.1,0.4-0.1,0.6V41c0,0.1,0,0.1-0.1,0.1h-0.3c-0.1,0-0.1,0-0.1-0.1v-2.7c0-0.7-0.3-1.1-0.9-1.1c-0.4,0-0.6,0.1-0.8,0.3
					c-0.2,0.2-0.3,0.5-0.3,0.9v2.5c0,0.1,0,0.1-0.1,0.1h-0.3c-0.1,0-0.1,0-0.1-0.1L92.7,38.2L92.7,38.2z"/>
			</g>
			<g>
				<path class="st377" d="M99.7,37.3C99.7,37.2,99.7,37.2,99.7,37.3l0.4-0.1c0.1,0,0.1,0,0.1,0.1v0.6c0.1-0.2,0.3-0.4,0.5-0.6
					c0.2-0.1,0.5-0.2,0.9-0.2c0.3,0,0.6,0.1,0.8,0.2s0.4,0.3,0.5,0.4c0.1,0.2,0.2,0.4,0.3,0.7c0.1,0.3,0.1,0.5,0.1,0.8
					s0,0.6-0.1,0.9c-0.1,0.3-0.2,0.5-0.3,0.7c-0.1,0.2-0.3,0.4-0.5,0.5s-0.5,0.2-0.7,0.2c-0.3,0-0.6-0.1-0.8-0.2
					c-0.2-0.1-0.4-0.3-0.5-0.5v1.7c0,0.1,0,0.1-0.1,0.1H100h-0.1c0,0,0,0,0-0.1v-5.2H99.7z M102.7,39.3c0-0.2,0-0.4-0.1-0.6
					c0-0.2-0.1-0.4-0.2-0.5s-0.2-0.3-0.4-0.4c-0.2-0.1-0.4-0.1-0.6-0.1s-0.4,0-0.6,0.1s-0.3,0.2-0.4,0.4s-0.2,0.3-0.2,0.5
					s-0.1,0.4-0.1,0.6c0,0.6,0.1,1.1,0.3,1.4c0.2,0.3,0.5,0.5,0.9,0.5c0.2,0,0.4,0,0.5-0.1s0.3-0.2,0.4-0.4s0.2-0.4,0.2-0.6
					S102.7,39.5,102.7,39.3z"/>
			</g>
			<g>
				<path class="st377" d="M105,41.4h-0.3c-0.1,0-0.1,0-0.1-0.1v-6c0-0.1,0-0.1,0.1-0.1h0.3c0.1,0,0.1,0,0.1,0.1L105,41.4
					C105.1,41.4,105,41.4,105,41.4z"/>
			</g>
			<g>
				<path class="st377" d="M106.7,39.5c0,0.3,0,0.5,0.1,0.7s0.2,0.4,0.3,0.5c0.1,0.1,0.3,0.2,0.4,0.3c0.2,0.1,0.4,0.1,0.6,0.1
					s0.4,0,0.6-0.1c0.2,0,0.4-0.1,0.5-0.2c0.1,0,0.1,0,0.1,0.1v0.4c0,0,0,0.1-0.1,0.1c-0.2,0.1-0.4,0.1-0.5,0.2
					c-0.2,0-0.4,0.1-0.6,0.1c-0.6,0-1.1-0.2-1.5-0.6c-0.3-0.4-0.5-0.9-0.5-1.7c0-0.7,0.2-1.2,0.5-1.6c0.3-0.4,0.8-0.6,1.3-0.6
					c0.3,0,0.5,0.1,0.8,0.2c0.2,0.1,0.4,0.3,0.5,0.5c0.3,0.4,0.4,0.9,0.4,1.5c0,0.1,0,0.1,0,0.2v0.1c0,0,0,0-0.1,0c0,0-0.1,0-0.2,0
					h-2.6V39.5z M109,39c0-0.2,0-0.4-0.1-0.6c0-0.2-0.1-0.3-0.2-0.5c-0.2-0.3-0.5-0.5-0.8-0.5c-0.4,0-0.7,0.2-0.9,0.5
					c-0.1,0.1-0.2,0.3-0.2,0.5c-0.1,0.2-0.1,0.4-0.1,0.5L109,39L109,39z"/>
			</g>
			<g>
				<path class="st377" d="M110.6,38.2c0-0.2,0-0.4,0-0.5s0-0.2,0-0.4c0-0.1,0-0.1,0.1-0.1h0.3c0.1,0,0.1,0,0.1,0.1v0.4
					c0.1-0.2,0.3-0.3,0.5-0.5c0.2-0.1,0.5-0.2,0.7-0.2c0.3,0,0.6,0.1,0.8,0.2s0.4,0.4,0.4,0.7c0.1-0.3,0.3-0.5,0.5-0.7
					s0.5-0.2,0.8-0.2c0.2,0,0.4,0,0.5,0.1c0.2,0.1,0.3,0.2,0.4,0.3s0.2,0.3,0.3,0.4s0.1,0.4,0.1,0.5v2.8c0,0.1,0,0.1-0.1,0.1h-0.3
					c-0.1,0-0.1,0-0.1-0.1v-2.7c0-0.7-0.3-1.1-0.9-1.1c-0.2,0-0.3,0-0.5,0.1c-0.1,0.1-0.3,0.2-0.4,0.3s-0.2,0.3-0.2,0.5
					s-0.1,0.4-0.1,0.6V41c0,0.1,0,0.1-0.1,0.1h-0.3c-0.1,0-0.1,0-0.1-0.1v-2.7c0-0.7-0.3-1.1-0.9-1.1c-0.4,0-0.6,0.1-0.8,0.3
					c-0.2,0.2-0.3,0.5-0.3,0.9v2.5c0,0.1,0,0.1-0.1,0.1h-0.3c-0.1,0-0.1,0-0.1-0.1L110.6,38.2L110.6,38.2z"/>
			</g>
			<g>
				<path class="st377" d="M118,39.5c0,0.3,0,0.5,0.1,0.7s0.2,0.4,0.3,0.5c0.1,0.1,0.3,0.2,0.4,0.3c0.2,0.1,0.4,0.1,0.6,0.1
					s0.4,0,0.6-0.1c0.2,0,0.4-0.1,0.5-0.2c0.1,0,0.1,0,0.1,0.1v0.4c0,0,0,0.1-0.1,0.1c-0.2,0.1-0.4,0.1-0.5,0.2
					c-0.2,0-0.4,0.1-0.6,0.1c-0.6,0-1.1-0.2-1.5-0.6c-0.3-0.4-0.5-0.9-0.5-1.7c0-0.7,0.2-1.2,0.5-1.6c0.3-0.4,0.8-0.6,1.3-0.6
					c0.3,0,0.5,0.1,0.8,0.2c0.2,0.1,0.4,0.3,0.5,0.5c0.3,0.4,0.4,0.9,0.4,1.5c0,0.1,0,0.1,0,0.2v0.1c0,0,0,0-0.1,0c0,0-0.1,0-0.2,0
					H118V39.5z M120.3,39c0-0.2,0-0.4-0.1-0.6c0-0.2-0.1-0.3-0.2-0.5c-0.2-0.3-0.5-0.5-0.8-0.5c-0.4,0-0.7,0.2-0.9,0.5
					c-0.1,0.1-0.2,0.3-0.2,0.5c-0.1,0.2-0.1,0.4-0.1,0.5L120.3,39L120.3,39z"/>
			</g>
			<g>
				<path class="st377" d="M125.3,41.3C125.3,41.4,125.3,41.4,125.3,41.3l-0.4,0.1c-0.1,0-0.1,0-0.1-0.1v-2.5c0-0.5-0.1-0.8-0.3-1
					s-0.4-0.3-0.7-0.3c-0.4,0-0.7,0.1-1,0.4c-0.2,0.2-0.3,0.6-0.3,1v2.4c0,0.1,0,0.1-0.1,0.1h-0.3c-0.1,0-0.1,0-0.1-0.1v-3.1
					c0-0.2,0-0.4,0-0.5s0-0.2,0-0.4v-0.1h0.1h0.3c0.1,0,0.1,0,0.1,0.1v0.4c0.1-0.2,0.3-0.4,0.5-0.5s0.5-0.2,0.8-0.2
					c0.5,0,0.9,0.1,1.1,0.4c0.3,0.3,0.4,0.7,0.4,1.2V41.3z"/>
			</g>
			<g>
				<path class="st377" d="M128.7,41.4c-0.2,0.1-0.4,0.1-0.6,0.1c-0.4,0-0.7-0.1-0.8-0.4c-0.1-0.2-0.1-0.5-0.1-1v-2.5h-0.7
					c-0.1,0-0.1,0-0.1-0.1v-0.2c0-0.1,0-0.1,0.1-0.1h0.7v-1.1c0-0.1,0-0.1,0.1-0.1h0.3c0.1,0,0.1,0,0.1,0.1v1.1h0.9
					c0.1,0,0.1,0,0.1,0.1v0.2c0,0.1,0,0.1-0.1,0.1h-0.9v2.8c0,0.5,0.2,0.7,0.6,0.7c0.1,0,0.3,0,0.5-0.1h0.1c0,0,0,0,0,0.1v0.2
					C128.8,41.4,128.7,41.4,128.7,41.4z"/>
			</g>
		</g>
		<g>
			<g>
				<path class="st378" d="M81.6,22.2H71.5l0.3-3.1h10.1L81.6,22.2z"/>
			</g>
			<g>
				<path class="st378" d="M106.8,29.9v-1.4c1.6-0.2,1.9-0.4,1.9-2.8v-6.9c0-3.3-1.6-3.9-2.8-3.9c-0.8,0-1.7,0.2-3,1.2
					c0,0.5,0.1,1.1,0.1,1.7v8.1c0,2.2,0.1,2.4,2,2.7V30h-9v-1.4c1.8-0.2,1.9-0.4,1.9-2.7v-7.3c0-2.8-1.1-3.8-2.6-3.8
					c-1,0-2,0.4-3.1,1.2v9.8c0,2.2,0.2,2.4,1.7,2.7v1.4h-9.2v-1.4c2.2-0.3,2.3-0.4,2.3-2.8v-8.5c0-2.2,0-2.6-1.9-2.9V13
					c2.2-0.2,4.5-0.8,7-1.5c0,1,0,2.1,0,3c0.9-0.6,1.6-1.1,2.4-1.6c1.2-0.8,2.2-1.2,3.4-1.2c2.2,0,3.7,1.2,4.5,3
					c1-0.7,1.8-1.3,2.8-2c0.9-0.6,2-1.1,3.2-1.1c3.5,0,5.3,2.4,5.3,6.4v7.8c0,2.2,0.2,2.4,2.2,2.7v1.4
					C115.9,29.9,106.8,29.9,106.8,29.9z"/>
			</g>
			<g>
				<path class="st378" d="M118,29.9v-1.4c2.2-0.3,2.4-0.4,2.4-3.3v-7.8c0-2.7-0.2-2.8-2.1-3.1V13c2.5-0.3,5-0.8,7.2-1.4
					c0,1.7,0,3.3,0,5v8.7c0,2.7,0.2,3,2.5,3.3V30h-10V29.9z M122.7,9.2c-1.5,0-2.9-1.3-2.9-2.8c0-1.6,1.4-2.8,2.9-2.8
					c1.6,0,2.9,1.2,2.9,2.8C125.6,7.9,124.3,9.2,122.7,9.2z"/>
			</g>
			<g>
				<g>
					<path class="st379" d="M49.6,0"/>
				</g>
				<g>
					<path class="st379" d="M43.9,28.4v1.5h12.2v-1.5c-3.1-0.4-3.4-0.5-3.4-3.9v-1.1c-1.6,0.9-3.5,1.3-5.4,1.1l0,0
						C47.3,27.9,46.9,28.1,43.9,28.4z"/>
				</g>
				<g>
					<path class="st379" d="M57.8,16.3c-0.2,0.6-0.4,1.9-0.5,1.9l0,0c-0.3,0.8-0.7,1.5-1.2,2.2c2.6,3.6,5.4,7.5,6.9,9.5h8v-1.5
						c-2-0.3-2.6-0.6-4-2.5c-2.9-3.7-5.9-7.8-8.4-11.2c-0.1,0.2-0.2,0.3-0.2,0.5C58.2,15.1,58,15.7,57.8,16.3z"/>
				</g>
				<g>
					<path class="st380" d="M38.7,13.1"/>
				</g>
				<g>
					<path class="st380" d="M49.6,0"/>
				</g>
				<g>
					<path class="st380" d="M43.8,4"/>
				</g>
				<g>
					<path class="st380" d="M52.7,23.4v-5.9c0.6-0.1,1.3,0.1,2.1,1.3c0.4,0.5,0.8,1.1,1.2,1.7c0.5-0.7,0.9-1.4,1.2-2.2l0,0
						c0.1,0,0.4-1.2,0.5-1.9c0.2-0.6,0.4-1.2,0.4-1.2c0.1-0.2,0.2-0.3,0.2-0.5c-0.1-0.2-0.2-0.3-0.3-0.5c1.8-1.9,3.7-3.9,5.3-5.6
						c2.5-2.7,4-2.9,6.8-3.3V3.9H59.7v1.5l0.8,0.1c1.8,0.2,2.1,0.8,1.1,2.1c-1.2,1.5-3,3.7-5.7,6.4c-1.3,1.2-2.3,1.9-3.1,2.1V9.3
						c0-3.4,0.4-3.6,3.3-3.9V3.9H43.9v1.5c3,0.3,3.4,0.6,3.4,3.9v15.2C49.3,24.6,51.1,24.2,52.7,23.4z"/>
				</g>
			</g>
		</g>
	</g>
	<g>
		<g class="st381">
			<path class="st382" d="M154.2,30.4c0,0.6-0.8,1.9-1,2.2c-0.3,0.4-1.2,0.3-1.2-0.2v-6.8c0-0.9-0.2-1.2-0.6-1.5c0,0,0,0,0,0
				l-3.1,0.1c-0.6,0-1.7,0.1-2.2,0c-0.3-0.1-0.4-0.3-0.3-0.7l0.3-1.4c1.3,0.3,4.5,0.3,5.1,0.3c2.3,0,4.2,0,5.7-0.1
				c3.5-0.1,5.1-0.2,7.4-0.4c1.1-0.1,1.7-0.2,2,0.1l1,0.8c0.4,0.3,0.4,0.6,0.2,0.9c-0.2,0.4-0.4,0.5-0.6,0.5c-0.2,0-1.1-0.2-1.6-0.3
				c-0.8-0.1-2.5-0.1-4.5-0.1c0.8,0.4,0.8,1,0.8,1.6v5.1c0,0.6-0.8,1.9-1,2.2c-0.3,0.4-1.2,0.3-1.2-0.2v-6.8c0-0.9-0.2-1.2-0.6-1.5
				c-0.1-0.1-0.2-0.2-0.2-0.3l-1.6,0l-3,0.1c0.5,0.4,0.5,0.9,0.5,1.4V30.4z M156.5,10.9c3,0,5.4,1.8,5.4,4.7c0,2.9-2.4,4.7-5.4,4.7
				c-3.1,0-5.4-1.8-5.4-4.7C151.1,12.7,153.4,10.9,156.5,10.9z M153.3,15.6c0,2,1.4,3,3.1,3c1.8,0,3.1-1,3.1-3c0-1.9-1.3-3-3.1-3
				C154.6,12.6,153.3,13.8,153.3,15.6z"/>
			<path class="st382" d="M169.7,14.7c-0.8,0-1.3,0-1.5-0.1c-0.2-0.1-0.3-0.3-0.3-0.5l0.2-1.5c1.2,0.2,2.3,0.3,3.4,0.4
				c0.6,0,1.3,0,2,0v-1.2c0-0.6,0-0.7-0.5-1.2c-0.3-0.3,0.1-1,0.4-0.9l1.6,0.5c0.8,0.2,0.8,0.5,0.8,1.1v1.5c1-0.1,2.4-0.2,2.7-0.2
				c1.1-0.1,1.4-0.1,1.7,0.1l0.6,0.4c0.8,0.5,0.9,0.7,0.6,1.1c-0.3,0.6-0.5,0.6-1,0.6c-0.2,0-0.9-0.2-1.4-0.2
				c-1.6-0.1-2.4-0.2-4.1-0.1C173.5,14.4,171.3,14.6,169.7,14.7z M174.8,15.6c2.7,0,4.7,1.6,4.7,4.2c0,2.4-1.8,4.2-4.7,4.2
				c-2.9,0-4.8-1.7-4.8-4.2C170,17.2,171.8,15.6,174.8,15.6z M172.2,19.8c0,1.2,0.8,2.4,2.6,2.4c1.7,0,2.5-1.2,2.5-2.4
				s-0.8-2.4-2.5-2.4C173,17.4,172.2,18.5,172.2,19.8z M185.1,29.8c0,1.2-1.2,2.5-1.7,2.9c-0.2,0.2-0.6,0.1-0.6-0.1v-5.5l-2.6,0
				c-0.2,0-2.3,0.1-2.8,0.1c-2.3,0.1-3.3,0.1-3.6,0.2c-0.3,0-0.8,0.1-1.2-0.2c-0.2-0.1-0.2-0.4-0.2-0.6l0.1-1.2
				c1.2,0.2,2.9,0.2,4.8,0.2c1.5,0,2.7,0,3,0l4.2-0.1c0.2,0,0.3,0.1,0.4,0.1c0.1,0.1,0.2,0.3,0.2,0.4V29.8z M183.2,11.9
				c0-0.7-0.2-1-0.8-1.3c-0.4-0.3,0.1-1.3,0.7-1l1.6,0.7c0.8,0.3,0.8,0.5,0.8,1.1v6.8l0.3,0c0.5,0,0.8,0,1.6-0.3
				c0.6-0.2,0.8-0.3,1.3,0l1.2,0.7c0.3,0.1,0.3,0.4,0.1,0.6l-0.5,0.5c-0.2,0.2-0.6,0.3-0.9,0.2c-0.3-0.1-0.5-0.1-0.9-0.1h-2.4v1.6
				c0,1.2-1.2,2.5-1.7,2.9c-0.2,0.2-0.6,0.1-0.6-0.1V11.9z"/>
			<path class="st382" d="M198.9,23.6c0,0.6-0.9,1.8-1.2,2.2c-0.3,0.3-1,0.3-1-0.2v-2.3c0-0.4,0-0.7-0.1-1c-0.2,0-0.4,0-0.5,0
				c-1,0.1-3.2,0.2-4.3,0.2c-0.3,0-0.7,0-1.2-0.2c-0.2-0.1-0.2-0.3-0.1-0.6l0.2-1.2c1.3,0.2,3.3,0.2,5.2,0.1
				c2.4-0.1,6.3-0.7,8.6-1.5c0.1,0,0.5,0.1,0.6,0.2c0.5,0.3,0.8,0.9,0.4,1c-1.8,0.7-4.5,1.2-6.7,1.6c0.1,0.1,0.1,0.3,0.1,0.5V23.6z
				 M198,11c2.9,0,4.8,1.9,4.8,4.1c0,2.4-1.9,4.1-4.8,4.1c-3.1,0-4.8-1.8-4.8-4.1C193.2,12.8,194.9,11,198,11z M195.5,15.1
				c0,1.3,0.9,2.4,2.5,2.4c1.7,0,2.5-1.1,2.5-2.4c0-1.3-0.8-2.4-2.5-2.4C196.4,12.7,195.5,13.8,195.5,15.1z M198.5,32.4
				c-0.7,0-1.8-0.1-1.8-1.4v-1.6c0-0.8,0-1.2-0.6-1.3c-0.4-0.1-0.6-0.3-0.6-0.6v-0.9l2.3,0.3c1.1,0.1,1.1,0.9,1.1,1.7v1.4
				c0,0.5,0,0.8,0.6,0.8h3.5c1.5,0,2.9-0.2,3.6-0.4c0.4-0.1,0.6-0.1,1,0l1,0.4c0.7,0.3,0.7,0.5,0.6,0.9c-0.1,0.6-0.2,0.7-1,0.7
				H198.5z M206.5,24.8l-4,0.2c-0.4,0-0.6-0.1-0.7-0.3l-0.7-1.1c-0.1-0.2,0.1-0.6,0.5-0.6l0.6,0.1c0.2,0,0.6,0.1,0.8,0.1l3.6-0.1
				V11.9c0-0.7-0.2-1-0.8-1.3c-0.4-0.3,0.1-1.3,0.7-1l1.6,0.7c0.8,0.3,0.8,0.5,0.8,1.1v13.8c0,1.2-1.2,2.5-1.7,2.9
				c-0.2,0.2-0.6,0.1-0.6-0.1V24.8z"/>
		</g>
	</g>
</g>
</svg>
