<?xml version="1.0" encoding="utf-8"?>
<!-- Generator: Adobe Illustrator 24.0.0, SVG Export Plug-In . SVG Version: 6.00 Build 0)  -->
<svg version="1.1" id="Layer_1" xmlns="http://www.w3.org/2000/svg" xmlns:xlink="http://www.w3.org/1999/xlink" x="0px" y="0px"
	 viewBox="0 0 234 42.6" style="enable-background:new 0 0 234 42.6;" xml:space="preserve">
<style type="text/css">
	.st0{enable-background:new    ;}
	.st1{fill:#474444;}
	.st2{clip-path:url(#SVGID_2_);fill:#6BB831;}
	.st3{clip-path:url(#SVGID_2_);fill:#6CB931;}
	.st4{clip-path:url(#SVGID_2_);fill:#6DB931;}
	.st5{clip-path:url(#SVGID_2_);fill:#6EBA32;}
	.st6{clip-path:url(#SVGID_2_);fill:#6FBA32;}
	.st7{clip-path:url(#SVGID_2_);fill:#70BB32;}
	.st8{clip-path:url(#SVGID_2_);fill:#71BB32;}
	.st9{clip-path:url(#SVGID_2_);fill:#72BC33;}
	.st10{clip-path:url(#SVGID_2_);fill:#73BC33;}
	.st11{clip-path:url(#SVGID_2_);fill:#74BD33;}
	.st12{clip-path:url(#SVGID_2_);fill:#75BD33;}
	.st13{clip-path:url(#SVGID_2_);fill:#76BE33;}
	.st14{clip-path:url(#SVGID_2_);fill:#77BE34;}
	.st15{clip-path:url(#SVGID_2_);fill:#78BF34;}
	.st16{clip-path:url(#SVGID_2_);fill:#79BF34;}
	.st17{clip-path:url(#SVGID_2_);fill:#7AC034;}
	.st18{clip-path:url(#SVGID_2_);fill:#7BC035;}
	.st19{clip-path:url(#SVGID_2_);fill:#7CC135;}
	.st20{clip-path:url(#SVGID_2_);fill:#7DC135;}
	.st21{clip-path:url(#SVGID_2_);fill:#7EC235;}
	.st22{clip-path:url(#SVGID_2_);fill:#7FC336;}
	.st23{clip-path:url(#SVGID_2_);fill:#80C336;}
	.st24{clip-path:url(#SVGID_2_);fill:#81C436;}
	.st25{clip-path:url(#SVGID_2_);fill:#82C436;}
	.st26{clip-path:url(#SVGID_2_);fill:#83C536;}
	.st27{clip-path:url(#SVGID_2_);fill:#84C537;}
	.st28{clip-path:url(#SVGID_2_);fill:#85C637;}
	.st29{clip-path:url(#SVGID_2_);fill:#86C637;}
	.st30{clip-path:url(#SVGID_2_);fill:#87C737;}
	.st31{clip-path:url(#SVGID_2_);fill:#88C738;}
	.st32{clip-path:url(#SVGID_2_);fill:#89C838;}
	.st33{clip-path:url(#SVGID_2_);fill:#8AC838;}
	.st34{clip-path:url(#SVGID_2_);fill:#8BC938;}
	.st35{clip-path:url(#SVGID_2_);fill:#8CC938;}
	.st36{clip-path:url(#SVGID_2_);fill:#8DCA39;}
	.st37{clip-path:url(#SVGID_2_);fill:#8ECA39;}
	.st38{clip-path:url(#SVGID_2_);fill:#8FCB39;}
	.st39{clip-path:url(#SVGID_2_);fill:#90CB39;}
	.st40{clip-path:url(#SVGID_2_);fill:#91CC3A;}
	.st41{clip-path:url(#SVGID_2_);fill:#92CD3A;}
	.st42{clip-path:url(#SVGID_2_);fill:#93CD3A;}
	.st43{clip-path:url(#SVGID_2_);fill:#94CE3A;}
	.st44{clip-path:url(#SVGID_2_);fill:#95CE3A;}
	.st45{clip-path:url(#SVGID_2_);fill:#96CF3B;}
	.st46{clip-path:url(#SVGID_2_);fill:#97CF3B;}
	.st47{clip-path:url(#SVGID_2_);fill:#98D03B;}
	.st48{clip-path:url(#SVGID_2_);fill:#99D03B;}
	.st49{clip-path:url(#SVGID_2_);fill:#9BD13C;}
	.st50{clip-path:url(#SVGID_2_);fill:#9CD13C;}
	.st51{clip-path:url(#SVGID_2_);fill:#9DD23C;}
	.st52{clip-path:url(#SVGID_2_);fill:#9ED23C;}
	.st53{clip-path:url(#SVGID_2_);fill:#9FD33D;}
	.st54{clip-path:url(#SVGID_2_);fill:#A0D33D;}
	.st55{clip-path:url(#SVGID_2_);fill:#A1D43D;}
	.st56{clip-path:url(#SVGID_2_);fill:#A2D43D;}
	.st57{clip-path:url(#SVGID_2_);fill:#A3D53D;}
	.st58{clip-path:url(#SVGID_2_);fill:#A4D63E;}
	.st59{clip-path:url(#SVGID_2_);fill:#A5D63E;}
	.st60{clip-path:url(#SVGID_2_);fill:#A6D73E;}
	.st61{clip-path:url(#SVGID_2_);fill:#A7D73E;}
	.st62{clip-path:url(#SVGID_2_);fill:#A8D83F;}
	.st63{clip-path:url(#SVGID_2_);fill:#A9D83F;}
	.st64{clip-path:url(#SVGID_2_);fill:#AAD93F;}
	.st65{clip-path:url(#SVGID_2_);fill:#ABD93F;}
	.st66{clip-path:url(#SVGID_2_);fill:#ACDA3F;}
	.st67{clip-path:url(#SVGID_2_);fill:#ADDA40;}
	.st68{clip-path:url(#SVGID_2_);fill:#AEDB40;}
	.st69{clip-path:url(#SVGID_2_);fill:#AFDB40;}
	.st70{clip-path:url(#SVGID_2_);fill:#B0DC40;}
	.st71{clip-path:url(#SVGID_2_);fill:#B1DC41;}
	.st72{clip-path:url(#SVGID_2_);fill:#B2DD41;}
	.st73{clip-path:url(#SVGID_2_);fill:#B3DD41;}
	.st74{clip-path:url(#SVGID_2_);fill:#B4DE41;}
	.st75{clip-path:url(#SVGID_2_);fill:#B5DE41;}
	.st76{clip-path:url(#SVGID_2_);fill:#B6DF42;}
	.st77{clip-path:url(#SVGID_2_);fill:#B7E042;}
	.st78{clip-path:url(#SVGID_2_);fill:#B8E042;}
	.st79{clip-path:url(#SVGID_2_);fill:#B9E142;}
	.st80{clip-path:url(#SVGID_2_);fill:#BAE143;}
	.st81{clip-path:url(#SVGID_2_);fill:#BBE243;}
	.st82{clip-path:url(#SVGID_2_);fill:#BCE243;}
	.st83{clip-path:url(#SVGID_2_);fill:#BDE343;}
	.st84{clip-path:url(#SVGID_2_);fill:#BEE344;}
	.st85{clip-path:url(#SVGID_2_);fill:#BFE444;}
	.st86{clip-path:url(#SVGID_2_);fill:#C0E444;}
	.st87{clip-path:url(#SVGID_2_);fill:#C1E544;}
	.st88{clip-path:url(#SVGID_2_);fill:#C2E544;}
	.st89{clip-path:url(#SVGID_2_);fill:#C3E645;}
	.st90{clip-path:url(#SVGID_2_);fill:#C4E645;}
	.st91{clip-path:url(#SVGID_2_);fill:#C5E745;}
	.st92{clip-path:url(#SVGID_2_);fill:#C6E745;}
	.st93{clip-path:url(#SVGID_2_);fill:#C7E846;}
	.st94{clip-path:url(#SVGID_2_);fill:#C8E846;}
	.st95{clip-path:url(#SVGID_2_);fill:#C9E946;}
	.st96{clip-path:url(#SVGID_4_);fill:#6BB831;}
	.st97{clip-path:url(#SVGID_4_);fill:#6CB931;}
	.st98{clip-path:url(#SVGID_4_);fill:#6DB931;}
	.st99{clip-path:url(#SVGID_4_);fill:#6EBA32;}
	.st100{clip-path:url(#SVGID_4_);fill:#6FBA32;}
	.st101{clip-path:url(#SVGID_4_);fill:#70BB32;}
	.st102{clip-path:url(#SVGID_4_);fill:#71BB32;}
	.st103{clip-path:url(#SVGID_4_);fill:#72BC33;}
	.st104{clip-path:url(#SVGID_4_);fill:#73BC33;}
	.st105{clip-path:url(#SVGID_4_);fill:#74BD33;}
	.st106{clip-path:url(#SVGID_4_);fill:#75BD33;}
	.st107{clip-path:url(#SVGID_4_);fill:#76BE33;}
	.st108{clip-path:url(#SVGID_4_);fill:#77BE34;}
	.st109{clip-path:url(#SVGID_4_);fill:#78BF34;}
	.st110{clip-path:url(#SVGID_4_);fill:#79BF34;}
	.st111{clip-path:url(#SVGID_4_);fill:#7AC034;}
	.st112{clip-path:url(#SVGID_4_);fill:#7BC035;}
	.st113{clip-path:url(#SVGID_4_);fill:#7CC135;}
	.st114{clip-path:url(#SVGID_4_);fill:#7DC135;}
	.st115{clip-path:url(#SVGID_4_);fill:#7EC235;}
	.st116{clip-path:url(#SVGID_4_);fill:#7FC336;}
	.st117{clip-path:url(#SVGID_4_);fill:#80C336;}
	.st118{clip-path:url(#SVGID_4_);fill:#81C436;}
	.st119{clip-path:url(#SVGID_4_);fill:#82C436;}
	.st120{clip-path:url(#SVGID_4_);fill:#83C536;}
	.st121{clip-path:url(#SVGID_4_);fill:#84C537;}
	.st122{clip-path:url(#SVGID_4_);fill:#85C637;}
	.st123{clip-path:url(#SVGID_4_);fill:#86C637;}
	.st124{clip-path:url(#SVGID_4_);fill:#87C737;}
	.st125{clip-path:url(#SVGID_4_);fill:#88C738;}
	.st126{clip-path:url(#SVGID_4_);fill:#89C838;}
	.st127{clip-path:url(#SVGID_4_);fill:#8AC838;}
	.st128{clip-path:url(#SVGID_4_);fill:#8BC938;}
	.st129{clip-path:url(#SVGID_4_);fill:#8CC938;}
	.st130{clip-path:url(#SVGID_4_);fill:#8DCA39;}
	.st131{clip-path:url(#SVGID_4_);fill:#8ECA39;}
	.st132{clip-path:url(#SVGID_4_);fill:#8FCB39;}
	.st133{clip-path:url(#SVGID_4_);fill:#90CB39;}
	.st134{clip-path:url(#SVGID_4_);fill:#91CC3A;}
	.st135{clip-path:url(#SVGID_4_);fill:#92CD3A;}
	.st136{clip-path:url(#SVGID_4_);fill:#93CD3A;}
	.st137{clip-path:url(#SVGID_4_);fill:#94CE3A;}
	.st138{clip-path:url(#SVGID_4_);fill:#95CE3A;}
	.st139{clip-path:url(#SVGID_4_);fill:#96CF3B;}
	.st140{clip-path:url(#SVGID_4_);fill:#97CF3B;}
	.st141{clip-path:url(#SVGID_4_);fill:#98D03B;}
	.st142{clip-path:url(#SVGID_4_);fill:#99D03B;}
	.st143{clip-path:url(#SVGID_4_);fill:#9BD13C;}
	.st144{clip-path:url(#SVGID_4_);fill:#9CD13C;}
	.st145{clip-path:url(#SVGID_4_);fill:#9DD23C;}
	.st146{clip-path:url(#SVGID_4_);fill:#9ED23C;}
	.st147{clip-path:url(#SVGID_4_);fill:#9FD33D;}
	.st148{clip-path:url(#SVGID_4_);fill:#A0D33D;}
	.st149{clip-path:url(#SVGID_4_);fill:#A1D43D;}
	.st150{clip-path:url(#SVGID_4_);fill:#A2D43D;}
	.st151{clip-path:url(#SVGID_4_);fill:#A3D53D;}
	.st152{clip-path:url(#SVGID_4_);fill:#A4D63E;}
	.st153{clip-path:url(#SVGID_4_);fill:#A5D63E;}
	.st154{clip-path:url(#SVGID_4_);fill:#A6D73E;}
	.st155{clip-path:url(#SVGID_4_);fill:#A7D73E;}
	.st156{clip-path:url(#SVGID_4_);fill:#A8D83F;}
	.st157{clip-path:url(#SVGID_4_);fill:#A9D83F;}
	.st158{clip-path:url(#SVGID_4_);fill:#AAD93F;}
	.st159{clip-path:url(#SVGID_4_);fill:#ABD93F;}
	.st160{clip-path:url(#SVGID_4_);fill:#ACDA3F;}
	.st161{clip-path:url(#SVGID_4_);fill:#ADDA40;}
	.st162{clip-path:url(#SVGID_4_);fill:#AEDB40;}
	.st163{clip-path:url(#SVGID_4_);fill:#AFDB40;}
	.st164{clip-path:url(#SVGID_4_);fill:#B0DC40;}
	.st165{clip-path:url(#SVGID_4_);fill:#B1DC41;}
	.st166{clip-path:url(#SVGID_4_);fill:#B2DD41;}
	.st167{clip-path:url(#SVGID_4_);fill:#B3DD41;}
	.st168{clip-path:url(#SVGID_4_);fill:#B4DE41;}
	.st169{clip-path:url(#SVGID_4_);fill:#B5DE41;}
	.st170{clip-path:url(#SVGID_4_);fill:#B6DF42;}
	.st171{clip-path:url(#SVGID_4_);fill:#B7E042;}
	.st172{clip-path:url(#SVGID_4_);fill:#B8E042;}
	.st173{clip-path:url(#SVGID_4_);fill:#B9E142;}
	.st174{clip-path:url(#SVGID_4_);fill:#BAE143;}
	.st175{clip-path:url(#SVGID_4_);fill:#BBE243;}
	.st176{clip-path:url(#SVGID_4_);fill:#BCE243;}
	.st177{clip-path:url(#SVGID_4_);fill:#BDE343;}
	.st178{clip-path:url(#SVGID_4_);fill:#BEE344;}
	.st179{clip-path:url(#SVGID_4_);fill:#BFE444;}
	.st180{clip-path:url(#SVGID_4_);fill:#C0E444;}
	.st181{clip-path:url(#SVGID_4_);fill:#C1E544;}
	.st182{clip-path:url(#SVGID_4_);fill:#C2E544;}
	.st183{clip-path:url(#SVGID_4_);fill:#C3E645;}
	.st184{clip-path:url(#SVGID_4_);fill:#C4E645;}
	.st185{clip-path:url(#SVGID_4_);fill:#C5E745;}
	.st186{clip-path:url(#SVGID_4_);fill:#C6E745;}
	.st187{clip-path:url(#SVGID_4_);fill:#C7E846;}
	.st188{clip-path:url(#SVGID_4_);fill:#C8E846;}
	.st189{clip-path:url(#SVGID_4_);fill:#C9E946;}
	.st190{clip-path:url(#SVGID_6_);fill:#0073FF;}
	.st191{clip-path:url(#SVGID_6_);fill:#0074FF;}
	.st192{clip-path:url(#SVGID_6_);fill:#0075FF;}
	.st193{clip-path:url(#SVGID_6_);fill:#0076FF;}
	.st194{clip-path:url(#SVGID_6_);fill:#0077FF;}
	.st195{clip-path:url(#SVGID_6_);fill:#0078FF;}
	.st196{clip-path:url(#SVGID_6_);fill:#0079FF;}
	.st197{clip-path:url(#SVGID_6_);fill:#007AFF;}
	.st198{clip-path:url(#SVGID_6_);fill:#007BFF;}
	.st199{clip-path:url(#SVGID_6_);fill:#007CFF;}
	.st200{clip-path:url(#SVGID_6_);fill:#007DFF;}
	.st201{clip-path:url(#SVGID_6_);fill:#007EFF;}
	.st202{clip-path:url(#SVGID_6_);fill:#007FFF;}
	.st203{clip-path:url(#SVGID_6_);fill:#0080FF;}
	.st204{clip-path:url(#SVGID_6_);fill:#0081FF;}
	.st205{clip-path:url(#SVGID_6_);fill:#0082FF;}
	.st206{clip-path:url(#SVGID_6_);fill:#0083FF;}
	.st207{clip-path:url(#SVGID_6_);fill:#0084FF;}
	.st208{clip-path:url(#SVGID_6_);fill:#0085FF;}
	.st209{clip-path:url(#SVGID_6_);fill:#0086FF;}
	.st210{clip-path:url(#SVGID_6_);fill:#0087FF;}
	.st211{clip-path:url(#SVGID_6_);fill:#0088FF;}
	.st212{clip-path:url(#SVGID_6_);fill:#0089FF;}
	.st213{clip-path:url(#SVGID_6_);fill:#008AFF;}
	.st214{clip-path:url(#SVGID_6_);fill:#008BFF;}
	.st215{clip-path:url(#SVGID_6_);fill:#008CFF;}
	.st216{clip-path:url(#SVGID_6_);fill:#008DFF;}
	.st217{clip-path:url(#SVGID_6_);fill:#008EFF;}
	.st218{clip-path:url(#SVGID_6_);fill:#008FFF;}
	.st219{clip-path:url(#SVGID_6_);fill:#0090FF;}
	.st220{clip-path:url(#SVGID_6_);fill:#0091FF;}
	.st221{clip-path:url(#SVGID_6_);fill:#0092FF;}
	.st222{clip-path:url(#SVGID_6_);fill:#0093FF;}
	.st223{clip-path:url(#SVGID_6_);fill:#0094FF;}
	.st224{clip-path:url(#SVGID_6_);fill:#0095FF;}
	.st225{clip-path:url(#SVGID_6_);fill:#0096FF;}
	.st226{clip-path:url(#SVGID_6_);fill:#0097FF;}
	.st227{clip-path:url(#SVGID_6_);fill:#0098FF;}
	.st228{clip-path:url(#SVGID_6_);fill:#0099FF;}
	.st229{clip-path:url(#SVGID_6_);fill:#009AFF;}
	.st230{clip-path:url(#SVGID_6_);fill:#009BFF;}
	.st231{clip-path:url(#SVGID_6_);fill:#009CFF;}
	.st232{clip-path:url(#SVGID_6_);fill:#009DFF;}
	.st233{clip-path:url(#SVGID_6_);fill:#009EFF;}
	.st234{clip-path:url(#SVGID_6_);fill:#009FFF;}
	.st235{clip-path:url(#SVGID_6_);fill:#00A0FF;}
	.st236{clip-path:url(#SVGID_6_);fill:#00A1FF;}
	.st237{clip-path:url(#SVGID_6_);fill:#00A3FF;}
	.st238{clip-path:url(#SVGID_6_);fill:#00A4FF;}
	.st239{clip-path:url(#SVGID_6_);fill:#00A5FF;}
	.st240{clip-path:url(#SVGID_6_);fill:#00A6FF;}
	.st241{clip-path:url(#SVGID_6_);fill:#00A7FF;}
	.st242{clip-path:url(#SVGID_6_);fill:#00A8FF;}
	.st243{clip-path:url(#SVGID_6_);fill:#00A9FF;}
	.st244{clip-path:url(#SVGID_6_);fill:#00AAFF;}
	.st245{clip-path:url(#SVGID_6_);fill:#00ABFF;}
	.st246{clip-path:url(#SVGID_6_);fill:#00ACFF;}
	.st247{clip-path:url(#SVGID_6_);fill:#00ADFF;}
	.st248{clip-path:url(#SVGID_6_);fill:#00AEFF;}
	.st249{clip-path:url(#SVGID_6_);fill:#00AFFF;}
	.st250{clip-path:url(#SVGID_6_);fill:#00B0FF;}
	.st251{clip-path:url(#SVGID_6_);fill:#00B1FF;}
	.st252{clip-path:url(#SVGID_6_);fill:#00B2FF;}
	.st253{clip-path:url(#SVGID_6_);fill:#00B3FF;}
	.st254{clip-path:url(#SVGID_6_);fill:#00B4FF;}
	.st255{clip-path:url(#SVGID_6_);fill:#00B5FF;}
	.st256{clip-path:url(#SVGID_6_);fill:#00B6FF;}
	.st257{clip-path:url(#SVGID_6_);fill:#00B7FF;}
	.st258{clip-path:url(#SVGID_6_);fill:#00B8FF;}
	.st259{clip-path:url(#SVGID_6_);fill:#00B9FF;}
	.st260{clip-path:url(#SVGID_6_);fill:#00BAFF;}
	.st261{clip-path:url(#SVGID_6_);fill:#00BBFF;}
	.st262{clip-path:url(#SVGID_6_);fill:#00BCFF;}
	.st263{clip-path:url(#SVGID_6_);fill:#00BDFF;}
	.st264{clip-path:url(#SVGID_6_);fill:#00BEFF;}
	.st265{clip-path:url(#SVGID_6_);fill:#00BFFF;}
	.st266{clip-path:url(#SVGID_6_);fill:#00C0FF;}
	.st267{clip-path:url(#SVGID_6_);fill:#00C1FF;}
	.st268{clip-path:url(#SVGID_6_);fill:#00C2FF;}
	.st269{clip-path:url(#SVGID_6_);fill:#00C3FF;}
	.st270{clip-path:url(#SVGID_6_);fill:#00C4FF;}
	.st271{clip-path:url(#SVGID_6_);fill:#00C5FF;}
	.st272{clip-path:url(#SVGID_6_);fill:#00C6FF;}
	.st273{clip-path:url(#SVGID_6_);fill:#00C7FF;}
	.st274{clip-path:url(#SVGID_6_);fill:#00C8FF;}
	.st275{clip-path:url(#SVGID_6_);fill:#00C9FF;}
	.st276{clip-path:url(#SVGID_6_);fill:#00CAFF;}
	.st277{clip-path:url(#SVGID_6_);fill:#00CBFF;}
	.st278{clip-path:url(#SVGID_6_);fill:#00CCFF;}
	.st279{clip-path:url(#SVGID_6_);fill:#00CDFF;}
	.st280{clip-path:url(#SVGID_6_);fill:#00CEFF;}
	.st281{clip-path:url(#SVGID_6_);fill:#00CFFF;}
	.st282{clip-path:url(#SVGID_6_);fill:#00D0FF;}
	.st283{clip-path:url(#SVGID_6_);fill:#00D1FF;}
	.st284{clip-path:url(#SVGID_8_);fill:#0073FF;}
	.st285{clip-path:url(#SVGID_8_);fill:#0074FF;}
	.st286{clip-path:url(#SVGID_8_);fill:#0075FF;}
	.st287{clip-path:url(#SVGID_8_);fill:#0076FF;}
	.st288{clip-path:url(#SVGID_8_);fill:#0077FF;}
	.st289{clip-path:url(#SVGID_8_);fill:#0078FF;}
	.st290{clip-path:url(#SVGID_8_);fill:#0079FF;}
	.st291{clip-path:url(#SVGID_8_);fill:#007AFF;}
	.st292{clip-path:url(#SVGID_8_);fill:#007BFF;}
	.st293{clip-path:url(#SVGID_8_);fill:#007CFF;}
	.st294{clip-path:url(#SVGID_8_);fill:#007DFF;}
	.st295{clip-path:url(#SVGID_8_);fill:#007EFF;}
	.st296{clip-path:url(#SVGID_8_);fill:#007FFF;}
	.st297{clip-path:url(#SVGID_8_);fill:#0080FF;}
	.st298{clip-path:url(#SVGID_8_);fill:#0081FF;}
	.st299{clip-path:url(#SVGID_8_);fill:#0082FF;}
	.st300{clip-path:url(#SVGID_8_);fill:#0083FF;}
	.st301{clip-path:url(#SVGID_8_);fill:#0084FF;}
	.st302{clip-path:url(#SVGID_8_);fill:#0085FF;}
	.st303{clip-path:url(#SVGID_8_);fill:#0086FF;}
	.st304{clip-path:url(#SVGID_8_);fill:#0087FF;}
	.st305{clip-path:url(#SVGID_8_);fill:#0088FF;}
	.st306{clip-path:url(#SVGID_8_);fill:#0089FF;}
	.st307{clip-path:url(#SVGID_8_);fill:#008AFF;}
	.st308{clip-path:url(#SVGID_8_);fill:#008BFF;}
	.st309{clip-path:url(#SVGID_8_);fill:#008CFF;}
	.st310{clip-path:url(#SVGID_8_);fill:#008DFF;}
	.st311{clip-path:url(#SVGID_8_);fill:#008EFF;}
	.st312{clip-path:url(#SVGID_8_);fill:#008FFF;}
	.st313{clip-path:url(#SVGID_8_);fill:#0090FF;}
	.st314{clip-path:url(#SVGID_8_);fill:#0091FF;}
	.st315{clip-path:url(#SVGID_8_);fill:#0092FF;}
	.st316{clip-path:url(#SVGID_8_);fill:#0093FF;}
	.st317{clip-path:url(#SVGID_8_);fill:#0094FF;}
	.st318{clip-path:url(#SVGID_8_);fill:#0095FF;}
	.st319{clip-path:url(#SVGID_8_);fill:#0096FF;}
	.st320{clip-path:url(#SVGID_8_);fill:#0097FF;}
	.st321{clip-path:url(#SVGID_8_);fill:#0098FF;}
	.st322{clip-path:url(#SVGID_8_);fill:#0099FF;}
	.st323{clip-path:url(#SVGID_8_);fill:#009AFF;}
	.st324{clip-path:url(#SVGID_8_);fill:#009BFF;}
	.st325{clip-path:url(#SVGID_8_);fill:#009CFF;}
	.st326{clip-path:url(#SVGID_8_);fill:#009DFF;}
	.st327{clip-path:url(#SVGID_8_);fill:#009EFF;}
	.st328{clip-path:url(#SVGID_8_);fill:#009FFF;}
	.st329{clip-path:url(#SVGID_8_);fill:#00A0FF;}
	.st330{clip-path:url(#SVGID_8_);fill:#00A1FF;}
	.st331{clip-path:url(#SVGID_8_);fill:#00A3FF;}
	.st332{clip-path:url(#SVGID_8_);fill:#00A4FF;}
	.st333{clip-path:url(#SVGID_8_);fill:#00A5FF;}
	.st334{clip-path:url(#SVGID_8_);fill:#00A6FF;}
	.st335{clip-path:url(#SVGID_8_);fill:#00A7FF;}
	.st336{clip-path:url(#SVGID_8_);fill:#00A8FF;}
	.st337{clip-path:url(#SVGID_8_);fill:#00A9FF;}
	.st338{clip-path:url(#SVGID_8_);fill:#00AAFF;}
	.st339{clip-path:url(#SVGID_8_);fill:#00ABFF;}
	.st340{clip-path:url(#SVGID_8_);fill:#00ACFF;}
	.st341{clip-path:url(#SVGID_8_);fill:#00ADFF;}
	.st342{clip-path:url(#SVGID_8_);fill:#00AEFF;}
	.st343{clip-path:url(#SVGID_8_);fill:#00AFFF;}
	.st344{clip-path:url(#SVGID_8_);fill:#00B0FF;}
	.st345{clip-path:url(#SVGID_8_);fill:#00B1FF;}
	.st346{clip-path:url(#SVGID_8_);fill:#00B2FF;}
	.st347{clip-path:url(#SVGID_8_);fill:#00B3FF;}
	.st348{clip-path:url(#SVGID_8_);fill:#00B4FF;}
	.st349{clip-path:url(#SVGID_8_);fill:#00B5FF;}
	.st350{clip-path:url(#SVGID_8_);fill:#00B6FF;}
	.st351{clip-path:url(#SVGID_8_);fill:#00B7FF;}
	.st352{clip-path:url(#SVGID_8_);fill:#00B8FF;}
	.st353{clip-path:url(#SVGID_8_);fill:#00B9FF;}
	.st354{clip-path:url(#SVGID_8_);fill:#00BAFF;}
	.st355{clip-path:url(#SVGID_8_);fill:#00BBFF;}
	.st356{clip-path:url(#SVGID_8_);fill:#00BCFF;}
	.st357{clip-path:url(#SVGID_8_);fill:#00BDFF;}
	.st358{clip-path:url(#SVGID_8_);fill:#00BEFF;}
	.st359{clip-path:url(#SVGID_8_);fill:#00BFFF;}
	.st360{clip-path:url(#SVGID_8_);fill:#00C0FF;}
	.st361{clip-path:url(#SVGID_8_);fill:#00C1FF;}
	.st362{clip-path:url(#SVGID_8_);fill:#00C2FF;}
	.st363{clip-path:url(#SVGID_8_);fill:#00C3FF;}
	.st364{clip-path:url(#SVGID_8_);fill:#00C4FF;}
	.st365{clip-path:url(#SVGID_8_);fill:#00C5FF;}
	.st366{clip-path:url(#SVGID_8_);fill:#00C6FF;}
	.st367{clip-path:url(#SVGID_8_);fill:#00C7FF;}
	.st368{clip-path:url(#SVGID_8_);fill:#00C8FF;}
	.st369{clip-path:url(#SVGID_8_);fill:#00C9FF;}
	.st370{clip-path:url(#SVGID_8_);fill:#00CAFF;}
	.st371{clip-path:url(#SVGID_8_);fill:#00CBFF;}
	.st372{clip-path:url(#SVGID_8_);fill:#00CCFF;}
	.st373{clip-path:url(#SVGID_8_);fill:#00CDFF;}
	.st374{clip-path:url(#SVGID_8_);fill:#00CEFF;}
	.st375{clip-path:url(#SVGID_8_);fill:#00CFFF;}
	.st376{clip-path:url(#SVGID_8_);fill:#00D0FF;}
	.st377{clip-path:url(#SVGID_8_);fill:#00D1FF;}
	.st378{fill:#7F7F7F;}
	.st379{fill:#2D2929;}
	.st380{fill:#004DC6;}
	.st381{fill:#FF3553;}
</style>
<g>
	<g>
		<g class="st0">
			<path class="st1" d="M148.2,22.1c-0.6,0-1.7,0.1-2.2,0c-0.3-0.1-0.4-0.3-0.3-0.7l0.3-1.4c1.3,0.3,4.5,0.3,5.1,0.3h3.1v-3
				c0-0.6,0-0.8-0.7-1c-0.3-0.1-0.5-0.4-0.5-0.8l0.1-0.7l2.4,0.2c0.8,0.1,0.9,0.6,0.9,0.9v4.2c0.1,0,0.2,0,0.4,0
				c3.5-0.1,5.1-0.2,7.4-0.4c1.1-0.1,1.7-0.2,2,0.1l1,0.8c0.4,0.3,0.4,0.6,0.2,0.9c-0.2,0.4-0.4,0.5-0.6,0.5c-0.2,0-1.1-0.2-1.6-0.3
				c-1.3-0.1-5.1-0.1-8.4,0L148.2,22.1z M162.9,12.2c-0.3,1.5-1,4-1.8,5.5c-0.5,1.1-2,0.6-1.7-0.4c0.4-1.3,0.8-3.3,1.1-5l-8.9,0.2
				c-0.3,0-1,0-1.3-0.1c-0.5-0.1-0.6-0.4-0.5-0.8l0.2-1.2c1.3,0.4,3.1,0.4,4.1,0.4c0.8,0,2.2,0,3.3-0.1l4-0.2c0.4-0.1,1.1,0,1.4,0.4
				c0.1,0.1,0.1,0.3,0.1,0.4C163,11.7,162.9,12,162.9,12.2z M156.5,24c3.3,0,5.1,2.2,5.1,4.7c0,2.2-1.6,4.6-5.1,4.6
				c-3.4,0-5.2-2.2-5.2-4.6C151.3,26.2,152.9,24,156.5,24z M153.6,28.7c0,1.3,0.9,2.8,2.9,2.8c2,0,2.8-1.5,2.8-2.8
				c0-1.4-0.8-2.8-2.8-2.8C154.4,25.9,153.6,27.2,153.6,28.7z"/>
			<path class="st1" d="M170.7,23.1c-0.6,0-1.7,0.1-2.2,0c-0.3-0.1-0.4-0.3-0.3-0.7l0.3-1.4c1.3,0.3,4.5,0.3,5.1,0.3
				c2.3,0,4.2,0,5.7-0.1c3.5-0.1,5.1-0.2,7.4-0.4c1.1-0.1,1.7-0.2,2,0.1l1,0.8c0.4,0.3,0.4,0.6,0.2,0.9c-0.2,0.4-0.4,0.5-0.6,0.5
				c-0.2,0-1.1-0.2-1.6-0.3c-1.3-0.1-5.1-0.1-8.4,0L170.7,23.1z M179.8,15.5l3,1.2c0.5,0.2,1,0.3,1.5,0.3c0.7,0,0.9,0.1,1.4,0.7
				l0.5,0.6c0.4,0.4,0.4,0.7,0.1,1.1c-0.3,0.3-0.5,0.4-1.1,0.1l-6.5-2.9c-2,1.7-4.6,2.7-6,3.1c-0.3,0.1-0.6,0.1-0.8,0.1
				c-0.4,0-0.7-0.2-0.7-0.7c0-0.3,0.3-0.6,0.5-0.6c1.7-0.5,5.4-2.2,6.5-4.2c0.1-0.1,0-0.3-0.1-0.4l-0.9-0.6l-2.8,0.2
				c-0.8,0.1-1.5,0-1.7-0.2c-0.3-0.2-0.4-0.4-0.3-0.7l0.1-1.2c1.5,0.2,2.7,0.3,3.7,0.3c1.5,0,2.1,0,2.9-0.1c1.3-0.1,2.4-0.1,3.8-0.3
				c0.9-0.1,1.2-0.1,1.6,0.1l0.6,0.4c0.7,0.4,0.8,0.6,0.5,1.1c-0.2,0.5-0.5,0.7-1.1,0.5c-0.4-0.1-0.8-0.2-1.2-0.2
				c-0.9-0.1-1.5-0.1-2.3-0.1c-0.3,0-0.6,0-0.9,0c0.5,0.2,0.8,0.6,0.4,1.4C180.3,14.9,180,15.2,179.8,15.5z M179.2,24.6
				c3.2,0,5.1,1.8,5.1,4.4c0,2.4-1.7,4.3-5.1,4.3c-3.3,0-5.2-1.9-5.2-4.3C174.1,26.4,175.9,24.6,179.2,24.6z M176.3,28.9
				c0,1.4,1,2.6,2.9,2.6c1.9,0,2.8-1.3,2.8-2.6c0-1.5-1-2.6-2.8-2.6C177.3,26.3,176.3,27.4,176.3,28.9z"/>
			<path class="st1" d="M201.3,15.9c-0.1,1.9-1.5,9-2.7,11.3c-0.6,1-2.3,0.6-1.9-0.3c1.2-2.6,2.2-7.4,2.3-10.7c-0.6,0-1.2,0-2.1,0
				c-1.6,0-2.9,0.1-4.5,0.2c-0.8,0-1.4,0-1.6-0.1c-0.2-0.1-0.3-0.3-0.3-0.7l0.2-1.3c1.2,0.2,2.1,0.2,3.5,0.3c1.2,0,1.7,0,2.7-0.1
				c0.8,0,2.1-0.2,3-0.2h0c0.4,0,1,0.2,1.3,0.4c0.1,0.1,0.2,0.2,0.2,0.3L201.3,15.9z M205.9,11.8c0-0.7-0.2-1-0.8-1.3
				c-0.4-0.3,0.1-1.3,0.7-1l1.6,0.7c0.8,0.3,0.8,0.5,0.8,1.1v18.3c0,1.2-1.2,2.5-1.7,2.9c-0.2,0.2-0.6,0.1-0.6-0.1V11.8z"/>
			<path class="st1" d="M215.1,17.8l0-0.9l2.2,0.1c0.8,0.1,0.8,0.6,0.8,0.9v4.1c2.1-0.2,4.6-0.6,6.6-1.2c0.1,0,0.4,0.1,0.6,0.2
				c0.5,0.3,0.7,0.9,0.4,1.1c-2.7,1-6.5,1.6-8.7,1.8c-1,0.1-3.1,0.2-4.2,0.2c-0.3,0-0.7,0-1.2-0.2c-0.2-0.1-0.3-0.3-0.2-0.6l0.2-1.2
				c1.1,0.2,2.7,0.2,4.3,0.1v-2.9c0-0.6,0-0.9-0.5-1C215.3,18.3,215,18.2,215.1,17.8z M222.2,19.6c-0.4,1.2-2.1,0.8-1.9-0.3
				c0.3-1.4,0.6-2.8,0.7-5.3c-3.2,0.2-7.2,0.3-7.8,0c-0.2-0.1-0.3-0.3-0.3-0.7l0.3-1.3c1.2,0.3,2.5,0.4,3,0.4c0.9,0,1.6,0,2.6-0.1
				l3-0.2c0,0,0.1,0,0.1,0c0.4,0,1,0.2,1.3,0.4c0.1,0.1,0.2,0.2,0.2,0.3C223.3,16.1,222.8,17.8,222.2,19.6z M219,32.3
				c-0.7,0-1.8-0.1-1.8-1.4v-2.4c0-0.8,0-1.2-0.6-1.3c-0.4-0.1-0.6-0.3-0.6-0.6v-0.9l2.3,0.3c1.1,0.1,1.1,0.9,1.1,1.7v2.2
				c0,0.5,0,0.8,0.6,0.8h3.3c1.5,0,2.9-0.2,3.6-0.4c0.4-0.1,0.6-0.1,1,0l1,0.4c0.7,0.3,0.7,0.5,0.6,0.9c-0.1,0.6-0.2,0.7-1,0.7H219z
				 M226.6,11.8c0-0.7-0.2-1-0.8-1.3c-0.4-0.3,0.1-1.3,0.7-1l1.6,0.7c0.8,0.3,0.8,0.5,0.8,1.1V19l0.4,0c0.5,0,0.8,0,1.6-0.3
				c0.6-0.2,0.8-0.4,1.3,0l1.2,0.7c0.3,0.1,0.3,0.4,0.1,0.6l-0.5,0.5c-0.2,0.2-0.6,0.3-0.9,0.2c-0.3-0.1-0.5-0.1-0.9-0.1h-2.4v3.8
				c0,1.2-1.2,2.5-1.7,2.9c-0.2,0.2-0.6,0.1-0.6-0.1V11.8z"/>
		</g>
	</g>
	<g>
		<g>
			<g>
				<g>
					<g>
						<defs>
							<path id="SVGID_1_" d="M32.6,20.3c2.4-0.6,4.1,0.1,3.9-3.6C36.2,12.4,30,1.9,18.7,2.5C4.8,3.3,29.1,15.5,30,18.2
								C30.8,21,32.6,20.3,32.6,20.3z"/>
						</defs>
						<clipPath id="SVGID_2_">
							<use xlink:href="#SVGID_1_"  style="overflow:visible;"/>
						</clipPath>
						<rect x="4.8" y="1.9" class="st2" width="31.9" height="19.1"/>
						<path class="st2" d="M42.1,4.8c0,10.7-8.7,19.4-19.4,19.4S3.3,15.5,3.3,4.8c0-2.7,0.5-5.2,1.5-7.5v3.6h32.9v3.9H42.1z"/>
						<path class="st3" d="M41.8,4.8c0,10.6-8.6,19.2-19.2,19.2S3.5,15.4,3.5,4.8C3.5,2.2,4-0.4,5-2.7v3.6h32.7v3.9H41.8z"/>
						<path class="st4" d="M41.6,4.8c0,10.5-8.5,19-19,19s-19-8.5-19-19c0-2.6,0.5-5.1,1.5-7.4v3.5h32.5v3.9H41.6z"/>
						<path class="st5" d="M41.4,4.8c0,10.4-8.4,18.8-18.8,18.8S3.9,15.2,3.9,4.8c0-2.6,0.5-5.1,1.5-7.3v3.4h32.3v3.9H41.4z"/>
						<path class="st6" d="M41.2,4.8c0,10.2-8.3,18.6-18.6,18.6S4.1,15.1,4.1,4.8c0-2.6,0.5-5,1.5-7.2v3.3h32.1v3.9H41.2z"/>
						<path class="st7" d="M41,4.8c0,10.1-8.2,18.3-18.3,18.3S4.3,14.9,4.3,4.8c0-2.5,0.5-4.9,1.4-7.1v3.2h31.9v3.9H41z"/>
						<path class="st8" d="M40.8,4.8c0,10-8.1,18.1-18.1,18.1S4.5,14.8,4.5,4.8C4.5,2.3,5-0.1,6-2.3v3.2h31.7v3.9H40.8z"/>
						<path class="st9" d="M40.6,4.8c0,9.9-8,17.9-17.9,17.9S4.7,14.7,4.7,4.8c0-2.5,0.5-4.8,1.4-7v3.1h31.6v3.9H40.6z"/>
						<path class="st10" d="M40.4,4.8c0,9.8-7.9,17.7-17.7,17.7S4.9,14.6,4.9,4.8c0-2.4,0.5-4.8,1.4-6.9v3h31.4v3.9H40.4z"/>
						<path class="st11" d="M40.2,4.8c0,9.7-7.8,17.5-17.5,17.5S5.2,14.5,5.2,4.8c0-2.4,0.5-4.7,1.4-6.8v2.9h31.2v3.9H40.2z"/>
						<path class="st12" d="M40,4.8c0,9.6-7.8,17.3-17.3,17.3S5.4,14.4,5.4,4.8c0-2.4,0.5-4.7,1.4-6.7v2.8h31v3.9H40z"/>
						<path class="st13" d="M39.8,4.8c0,9.4-7.7,17.1-17.1,17.1S5.6,14.3,5.6,4.8c0-2.4,0.5-4.6,1.3-6.7v2.8h30.8v3.9H39.8z"/>
						<path class="st14" d="M39.6,4.8c0,9.3-7.6,16.9-16.9,16.9S5.8,14.1,5.8,4.8c0-2.3,0.5-4.6,1.3-6.6v2.7h30.6v3.9H39.6z"/>
						<path class="st15" d="M39.4,4.8c0,9.2-7.5,16.7-16.7,16.7S6,14,6,4.8c0-2.3,0.5-4.5,1.3-6.5v2.6h30.4v3.9H39.4z"/>
						<path class="st16" d="M39.2,4.8c0,9.1-7.4,16.5-16.5,16.5S6.2,13.9,6.2,4.8c0-2.3,0.5-4.4,1.3-6.4v2.5h30.2v3.9H39.2z"/>
						<path class="st17" d="M39,4.8c0,9-7.3,16.3-16.3,16.3S6.4,13.8,6.4,4.8c0-2.2,0.5-4.4,1.3-6.3v2.4h30v-2.4
							C38.5,0.4,39,2.6,39,4.8z"/>
						<path class="st18" d="M38.8,4.8c0,8.9-7.2,16.1-16.1,16.1S6.6,13.7,6.6,4.8c0-2.2,0.4-4.3,1.3-6.3v2.4h29.6v-2.4
							C38.3,0.5,38.8,2.6,38.8,4.8z"/>
						<path class="st19" d="M38.5,4.8c0,8.8-7.1,15.9-15.9,15.9S6.8,13.6,6.8,4.8c0-2.2,0.4-4.3,1.2-6.2v2.3h29.3v-2.3
							C38.1,0.5,38.5,2.6,38.5,4.8z"/>
						<path class="st20" d="M38.3,4.8c0,8.7-7,15.7-15.7,15.7S7,13.5,7,4.8c0-2.2,0.4-4.2,1.2-6.1v2.2h28.9v-2.2
							C37.9,0.6,38.3,2.6,38.3,4.8z"/>
						<path class="st21" d="M38.1,4.8c0,8.5-6.9,15.5-15.5,15.5S7.2,13.3,7.2,4.8c0-2.1,0.4-4.2,1.2-6v2.1h28.5v-2.1
							C37.7,0.6,38.1,2.7,38.1,4.8z"/>
						<path class="st22" d="M37.9,4.8c0,8.4-6.8,15.3-15.3,15.3S7.4,13.2,7.4,4.8c0-4.2,1.7-8,4.5-10.8v6.9h21.6V-6
							C36.2-3.2,37.9,0.6,37.9,4.8z"/>
						<path class="st23" d="M37.7,4.8c0,8.3-6.7,15-15,15s-15-6.7-15-15c0-4.2,1.7-7.9,4.4-10.6v6.7h21.3v-6.7
							C36-3.1,37.7,0.7,37.7,4.8z"/>
						<path class="st24" d="M37.5,4.8c0,8.2-6.6,14.8-14.8,14.8S7.8,13,7.8,4.8c0-4.1,1.7-7.8,4.3-10.5v6.6h21v-6.6
							C35.9-3,37.5,0.7,37.5,4.8z"/>
						<path class="st25" d="M37.3,4.8c0,8.1-6.6,14.6-14.6,14.6S8,12.9,8,4.8c0-4,1.6-7.7,4.3-10.3v6.4H33v-6.4
							C35.7-2.9,37.3,0.8,37.3,4.8z"/>
						<path class="st26" d="M37.1,4.8c0,8-6.5,14.4-14.4,14.4S8.2,12.8,8.2,4.8c0-4,1.6-7.6,4.2-10.2v6.3h20.4v-6.3
							C35.5-2.8,37.1,0.8,37.1,4.8z"/>
						<path class="st27" d="M36.9,4.8c0,7.9-6.4,14.2-14.2,14.2S8.4,12.7,8.4,4.8c0-3.9,1.6-7.5,4.2-10.1v6.1h20.1v-6.1
							C35.3-2.7,36.9,0.9,36.9,4.8z"/>
						<path class="st28" d="M36.7,4.8c0,7.7-6.3,14-14,14s-14-6.3-14-14c0-3.9,1.6-7.4,4.1-9.9v6h19.8v-6
							C35.1-2.6,36.7,0.9,36.7,4.8z"/>
						<path class="st29" d="M36.5,4.8c0,7.6-6.2,13.8-13.8,13.8S8.9,12.4,8.9,4.8c0-3.8,1.5-7.3,4-9.8v5.9h19.5V-5
							C34.9-2.5,36.5,1,36.5,4.8z"/>
						<path class="st30" d="M36.3,4.8c0,7.5-6.1,13.6-13.6,13.6S9.1,12.3,9.1,4.8c0-3.8,1.5-7.2,4-9.6v5.7h19.2v-5.7
							C34.8-2.3,36.3,1.1,36.3,4.8z"/>
						<path class="st31" d="M36.1,4.8c0,7.4-6,13.4-13.4,13.4S9.3,12.2,9.3,4.8c0-3.7,1.5-7.1,3.9-9.5v5.6h18.9v-5.6
							C34.6-2.2,36.1,1.1,36.1,4.8z"/>
						<path class="st32" d="M35.9,4.8C35.9,12.1,30,18,22.7,18S9.5,12.1,9.5,4.8c0-3.6,1.5-6.9,3.9-9.3v5.4H32v-5.4
							C34.4-2.1,35.9,1.2,35.9,4.8z"/>
						<path class="st33" d="M35.7,4.8c0,7.2-5.8,13-13,13s-13-5.8-13-13c0-3.6,1.5-6.8,3.8-9.2v5.3h18.4v-5.3
							C34.2-2,35.7,1.2,35.7,4.8z"/>
						<path class="st34" d="M35.5,4.8c0,7.1-5.7,12.8-12.8,12.8S9.9,11.9,9.9,4.8c0-3.5,1.4-6.7,3.7-9v5.1h18.1v-5.1
							C34-1.9,35.5,1.3,35.5,4.8z"/>
						<path class="st35" d="M35.2,4.8c0,6.9-5.6,12.6-12.6,12.6S10.1,11.8,10.1,4.8c0-3.5,1.4-6.6,3.7-8.9v5h17.8v-5
							C33.8-1.8,35.2,1.3,35.2,4.8z"/>
						<path class="st36" d="M35,4.8c0,6.8-5.5,12.4-12.4,12.4S10.3,11.6,10.3,4.8c0-3.4,1.4-6.5,3.6-8.7v4.8h17.5v-4.8
							C33.7-1.7,35,1.4,35,4.8z"/>
						<path class="st37" d="M34.8,4.8c0,6.7-5.4,12.2-12.2,12.2S10.5,11.5,10.5,4.8c0-3.4,1.4-6.4,3.6-8.6v4.7h17.2v-4.7
							C33.5-1.6,34.8,1.5,34.8,4.8z"/>
						<path class="st38" d="M34.6,4.8c0,6.6-5.4,12-12,12s-12-5.4-12-12c0-3.3,1.3-6.3,3.5-8.5v4.5h16.9v-4.5
							C33.3-1.5,34.6,1.5,34.6,4.8z"/>
						<path class="st39" d="M34.4,4.8c0,6.5-5.3,11.8-11.8,11.8S10.9,11.3,10.9,4.8c0-3.2,1.3-6.2,3.4-8.3v4.4H31v-4.4
							C33.1-1.4,34.4,1.6,34.4,4.8z"/>
						<path class="st40" d="M34.2,4.8c0,6.4-5.2,11.5-11.5,11.5S11.1,11.2,11.1,4.8c0-3.2,1.3-6.1,3.4-8.2v4.3h16.3v-4.3
							C32.9-1.3,34.2,1.6,34.2,4.8z"/>
						<path class="st41" d="M34,4.8c0,6.3-5.1,11.3-11.3,11.3S11.3,11.1,11.3,4.8c0-3.1,1.3-6,3.3-8v4.1h16v-4.1
							C32.7-1.2,34,1.7,34,4.8z"/>
						<path class="st42" d="M33.8,4.8c0,6.1-5,11.1-11.1,11.1S11.5,11,11.5,4.8c0-3.1,1.2-5.9,3.3-7.9v4h15.7v-4
							C32.6-1,33.8,1.7,33.8,4.8z"/>
						<path class="st43" d="M33.6,4.8c0,6-4.9,10.9-10.9,10.9S11.7,10.8,11.7,4.8c0-3,1.2-5.7,3.2-7.7v3.8h15.5v-3.8
							C32.4-0.9,33.6,1.8,33.6,4.8z"/>
						<circle class="st44" cx="22.7" cy="4.8" r="10.7"/>
						<circle class="st45" cx="22.7" cy="4.8" r="10.5"/>
						<circle class="st46" cx="22.7" cy="4.8" r="10.3"/>
						<circle class="st47" cx="22.7" cy="4.8" r="10.1"/>
						<circle class="st48" cx="22.7" cy="4.8" r="9.9"/>
						<circle class="st49" cx="22.7" cy="4.8" r="9.7"/>
						<circle class="st50" cx="22.7" cy="4.8" r="9.5"/>
						<circle class="st51" cx="22.7" cy="4.8" r="9.3"/>
						<circle class="st52" cx="22.7" cy="4.8" r="9.1"/>
						<circle class="st53" cx="22.7" cy="4.8" r="8.9"/>
						<circle class="st54" cx="22.7" cy="4.8" r="8.7"/>
						<circle class="st55" cx="22.7" cy="4.8" r="8.5"/>
						<circle class="st56" cx="22.7" cy="4.8" r="8.2"/>
						<circle class="st57" cx="22.7" cy="4.8" r="8"/>
						<circle class="st58" cx="22.7" cy="4.8" r="7.8"/>
						<circle class="st59" cx="22.7" cy="4.8" r="7.6"/>
						<circle class="st60" cx="22.7" cy="4.8" r="7.4"/>
						<circle class="st61" cx="22.7" cy="4.8" r="7.2"/>
						<circle class="st62" cx="22.7" cy="4.8" r="7"/>
						<circle class="st63" cx="22.7" cy="4.8" r="6.8"/>
						<circle class="st64" cx="22.7" cy="4.8" r="6.6"/>
						<circle class="st65" cx="22.7" cy="4.8" r="6.4"/>
						<circle class="st66" cx="22.7" cy="4.8" r="6.2"/>
						<circle class="st67" cx="22.7" cy="4.8" r="6"/>
						<circle class="st68" cx="22.7" cy="4.8" r="5.8"/>
						<circle class="st69" cx="22.7" cy="4.8" r="5.6"/>
						<circle class="st70" cx="22.7" cy="4.8" r="5.4"/>
						<circle class="st71" cx="22.7" cy="4.8" r="5.2"/>
						<circle class="st72" cx="22.7" cy="4.8" r="4.9"/>
						<circle class="st73" cx="22.7" cy="4.8" r="4.7"/>
						<circle class="st74" cx="22.7" cy="4.8" r="4.5"/>
						<circle class="st75" cx="22.7" cy="4.8" r="4.3"/>
						<circle class="st76" cx="22.7" cy="4.8" r="4.1"/>
						<circle class="st77" cx="22.7" cy="4.8" r="3.9"/>
						<circle class="st78" cx="22.7" cy="4.8" r="3.7"/>
						<circle class="st79" cx="22.7" cy="4.8" r="3.5"/>
						<circle class="st80" cx="22.7" cy="4.8" r="3.3"/>
						<circle class="st81" cx="22.7" cy="4.8" r="3.1"/>
						<circle class="st82" cx="22.7" cy="4.8" r="2.9"/>
						<circle class="st83" cx="22.7" cy="4.8" r="2.7"/>
						<circle class="st84" cx="22.7" cy="4.8" r="2.5"/>
						<circle class="st85" cx="22.7" cy="4.8" r="2.3"/>
						<circle class="st86" cx="22.7" cy="4.8" r="2.1"/>
						<circle class="st87" cx="22.7" cy="4.8" r="1.9"/>
						<circle class="st88" cx="22.7" cy="4.8" r="1.6"/>
						<circle class="st89" cx="22.7" cy="4.8" r="1.4"/>
						<circle class="st90" cx="22.7" cy="4.8" r="1.2"/>
						<circle class="st91" cx="22.7" cy="4.8" r="1"/>
						<circle class="st92" cx="22.7" cy="4.8" r="0.8"/>
						<circle class="st93" cx="22.7" cy="4.8" r="0.6"/>
						<circle class="st94" cx="22.7" cy="4.8" r="0.4"/>
						<circle class="st95" cx="22.7" cy="4.8" r="0.2"/>
					</g>
				</g>
				<g>
					<g>
						<defs>
							<path id="SVGID_3_" d="M9.4,5C6.8,6.1,5.6,14.2,17,25.9c0.1,0.1,12.2,12.3,19,1.5c0.9-3.7-4.4,3-12-5.7
								c-3.6-4.1-3.1-12.6-2.5-16.6c0,0-2.2-1.9-6.3-1.4S9.4,5,9.4,5z"/>
						</defs>
						<clipPath id="SVGID_4_">
							<use xlink:href="#SVGID_3_"  style="overflow:visible;"/>
						</clipPath>
						<rect x="5.6" y="3.2" class="st96" width="31.3" height="35"/>
						<path class="st96" d="M27.6,39.2H8.8H4.6v-0.9H0.9c0-14.7,11.9-26.7,26.7-26.7c3.7,0,7.2,0.7,10.4,2.1h-0.1v25.5H27.6z"/>
						<path class="st97" d="M27.6,39.2H9H4.6v-0.9H1.2c0-14.6,11.8-26.4,26.4-26.4c3.6,0,7.1,0.7,10.3,2.1c1.6,0.7,3.1,1.5,4.5,2.4
							h-4.5v22.8H27.6z"/>
						<path class="st98" d="M27.6,39.2H9.2H4.6v-0.9H1.5c0-14.4,11.7-26.1,26.1-26.1c3.6,0,7,0.7,10.2,2.1c1.6,0.7,3,1.5,4.4,2.4
							h-4.3v22.6H27.6z"/>
						<path class="st99" d="M27.6,39.2H9.4H4.6v-0.9H1.8c0-14.3,11.6-25.8,25.8-25.8c3.6,0,7,0.7,10,2c1.5,0.7,3,1.5,4.4,2.4h-4.1
							v22.3H27.6z"/>
						<path class="st100" d="M27.6,39.2H9.6h-5v-0.9H2.1c0-14.1,11.4-25.5,25.5-25.5c3.5,0,6.9,0.7,9.9,2c1.5,0.6,3,1.4,4.3,2.4h-4
							v22.1H27.6z"/>
						<path class="st101" d="M27.6,39.2H9.8H4.6v-0.9H2.4C2.4,24.3,13.7,13,27.6,13c3.5,0,6.8,0.7,9.8,2c1.5,0.6,2.9,1.4,4.3,2.3
							h-3.8v21.9H27.6z"/>
						<path class="st102" d="M27.6,39.2H10H4.6v-0.9h-2c0-13.8,11.2-25,25-25c3.4,0,6.7,0.7,9.7,2c1.5,0.6,2.9,1.4,4.2,2.3h-3.7
							v21.6H27.6z"/>
						<path class="st103" d="M27.6,39.2H10.2H4.6v-0.9H2.9c0-13.6,11-24.7,24.7-24.7c3.4,0,6.7,0.7,9.6,1.9c1.5,0.6,2.9,1.4,4.2,2.3
							h-3.5v21.4H27.6z"/>
						<path class="st104" d="M27.6,39.2H10.4H4.6v-0.9H3.2c0-13.5,10.9-24.4,24.4-24.4c6.7,0,12.8,2.7,17.3,7.1h-7v18.2H27.6z"/>
						<path class="st105" d="M27.6,39.2H10.6h-6v-0.9H3.5c0-13.3,10.8-24.1,24.1-24.1c6.7,0,12.7,2.7,17.1,7.1h-6.8v18H27.6z"/>
						<path class="st106" d="M27.6,39.2H10.8H4.6v-0.9H3.8c0-13.2,10.7-23.8,23.8-23.8c6.6,0,12.5,2.7,16.9,7h-6.6v17.8H27.6z"/>
						<path class="st107" d="M27.6,39.2H11H4.6v-0.9H4.1c0-13,10.5-23.5,23.5-23.5c6.5,0,12.4,2.6,16.6,6.9h-6.4v17.6H27.6z"/>
						<path class="st108" d="M27.6,39.2H11.2H4.8V43c-0.3-1.5-0.5-3.1-0.5-4.7C4.3,25.4,14.8,15,27.6,15c6.4,0,12.2,2.6,16.4,6.8
							h-6.2v17.4H27.6z"/>
						<path class="st109" d="M27.6,39.2H11.4H5.1v3.7c-0.3-1.5-0.5-3-0.5-4.6c0-12.7,10.3-23,23-23c6.3,0,12.1,2.6,16.2,6.7h-6v17.2
							H27.6z"/>
						<path class="st110" d="M27.6,39.2h-16H5.4v3.6c-0.3-1.5-0.5-3-0.5-4.6c0-12.5,10.2-22.7,22.7-22.7c6.3,0,11.9,2.5,16,6.6h-5.8
							v17H27.6z"/>
						<path class="st111" d="M27.6,39.2H11.8H5.7v3.6c-0.3-1.5-0.5-3-0.5-4.5c0-12.4,10-22.4,22.4-22.4c6.2,0,11.8,2.5,15.8,6.6
							h-5.6v16.8H27.6z"/>
						<path class="st112" d="M27.6,39.2H12h-6v3.5c-0.3-1.4-0.4-2.9-0.4-4.5c0-12.2,9.9-22.1,22.1-22.1c6.1,0,11.6,2.5,15.6,6.5
							h-5.4v16.6H27.6z"/>
						<path class="st113" d="M27.6,39.2H12.2h-6v3.5c-0.3-1.4-0.4-2.9-0.4-4.4c0-12.1,9.8-21.8,21.8-21.8c6,0,11.5,2.4,15.4,6.4
							h-5.2v16.4H27.6z"/>
						<path class="st114" d="M27.6,39.2H12.4H6.5v3.4c-0.3-1.4-0.4-2.9-0.4-4.3c0-11.9,9.7-21.6,21.6-21.6c6,0,11.3,2.4,15.2,6.3h-5
							v16.2H27.6z"/>
						<path class="st115" d="M27.6,39.2h-15H6.8v3.4c-0.3-1.4-0.4-2.8-0.4-4.3C6.3,26.5,15.9,17,27.6,17c5.9,0,11.2,2.4,15,6.2h-4.8
							v16H27.6z"/>
						<path class="st116" d="M27.6,39.2H12.8H7v3.3c-0.3-1.4-0.4-2.8-0.4-4.2c0-11.6,9.4-21,21-21c5.8,0,11,2.3,14.8,6.1h-4.6v15.8
							H27.6z"/>
						<path class="st117" d="M27.6,39.2H13H7.3v3.2c-0.3-1.3-0.4-2.7-0.4-4.2c0-11.4,9.3-20.7,20.7-20.7c5.7,0,10.9,2.3,14.6,6.1
							h-4.4v15.6H27.6z"/>
						<path class="st118" d="M27.6,39.2H13.2H7.6v3.2c-0.3-1.3-0.4-2.7-0.4-4.1c0-11.3,9.1-20.4,20.4-20.4c5.6,0,10.7,2.3,14.4,6
							h-4.2v15.4H27.6z"/>
						<path class="st119" d="M27.6,39.2H13.4H9.1v6.9c-1-2.4-1.6-5.1-1.6-7.8c0-11.1,9-20.1,20.1-20.1c5.6,0,10.6,2.3,14.2,5.9h-4
							v15.2H27.6z"/>
						<path class="st120" d="M27.6,39.2h-14H9.3V46c-1-2.4-1.6-5-1.6-7.7c0-11,8.9-19.9,19.9-19.9c5.5,0,10.4,2.2,14,5.8h-3.8v15
							H27.6z"/>
						<path class="st121" d="M27.6,39.2H13.8H9.6v6.7C8.6,43.6,8,41,8,38.3c0-10.8,8.8-19.6,19.6-19.6c5.4,0,10.3,2.2,13.8,5.7h-3.6
							v14.8H27.6z"/>
						<path class="st122" d="M27.6,39.2H14H9.8v6.6c-1-2.3-1.5-4.8-1.5-7.5C8.3,27.6,17,19,27.6,19c5.3,0,10.1,2.2,13.6,5.7h-3.4
							v14.6H27.6z"/>
						<path class="st123" d="M27.6,39.2H14.2h-4.1v6.5c-1-2.3-1.5-4.8-1.5-7.4c0-10.5,8.5-19,19-19c5.2,0,10,2.1,13.4,5.6h-3.2v14.4
							H27.6z"/>
						<path class="st124" d="M27.6,39.2H14.4h-4v6.4c-0.9-2.2-1.5-4.7-1.5-7.3c0-10.3,8.4-18.7,18.7-18.7c5.2,0,9.9,2.1,13.2,5.5h-3
							v14.2H27.6z"/>
						<path class="st125" d="M27.6,39.2h-13h-4v6.3c-0.9-2.2-1.4-4.6-1.4-7.2c0-10.2,8.3-18.4,18.4-18.4c5.1,0,9.7,2.1,13,5.4h-2.8
							v14H27.6z"/>
						<path class="st126" d="M27.6,39.2H14.8h-3.9v6.1c-0.9-2.2-1.4-4.6-1.4-7.1c0-10,8.1-18.2,18.2-18.2c5,0,9.6,2,12.8,5.3h-2.5
							v13.8H27.6z"/>
						<path class="st127" d="M27.6,39.2H15h-3.8v6c-0.9-2.1-1.4-4.5-1.4-7c0-9.9,8-17.9,17.9-17.9c4.9,0,9.4,2,12.6,5.2h-2.3v13.6
							H27.6z"/>
						<path class="st128" d="M27.6,39.2H15.2h-3.8v5.9C10.5,43,10,40.7,10,38.3c0-9.7,7.9-17.6,17.6-17.6c4.9,0,9.3,2,12.4,5.2h-2.1
							v13.4H27.6z"/>
						<path class="st129" d="M27.6,39.2H15.4h-3.7V45c-0.9-2.1-1.4-4.3-1.4-6.7c0-9.6,7.7-17.3,17.3-17.3c4.8,0,9.1,1.9,12.2,5.1
							h-1.9v13.2H27.6z"/>
						<path class="st130" d="M27.6,39.2h-12h-3.6v5.7c-0.9-2-1.3-4.3-1.3-6.6c0-9.4,7.6-17,17-17s17,7.6,17,17h-6.7v0.9H27.6z"/>
						<path class="st131" d="M27.6,39.2H15.8h-3.6v5.6c-0.8-2-1.3-4.2-1.3-6.5c0-9.2,7.5-16.7,16.7-16.7S44.3,29,44.3,38.3h-6.4v0.9
							H27.6z"/>
						<path class="st132" d="M27.6,39.2H16h-3.5v5.5c-0.8-2-1.3-4.1-1.3-6.4c0-9.1,7.4-16.5,16.5-16.5s16.5,7.4,16.5,16.5h-6.2v0.9
							H27.6z"/>
						<path class="st133" d="M27.6,39.2H16.2h-3.5v5.4c-0.8-1.9-1.3-4.1-1.3-6.3c0-8.9,7.2-16.2,16.2-16.2s16.2,7.2,16.2,16.2h-5.9
							v0.9H27.6z"/>
						<path class="st134" d="M27.6,39.2H16.4H13v5.3c-0.8-1.9-1.2-4-1.2-6.2c0-8.8,7.1-15.9,15.9-15.9s15.9,7.1,15.9,15.9h-5.6v0.9
							H27.6z"/>
						<path class="st135" d="M27.6,39.2h-11h-3.3v5.1c-0.8-1.9-1.2-3.9-1.2-6.1c0-8.6,7-15.6,15.6-15.6s15.6,7,15.6,15.6h-5.3v0.9
							H27.6z"/>
						<path class="st136" d="M27.6,39.2H16.8h-3.3v5c-0.8-1.8-1.2-3.8-1.2-6c0-8.5,6.9-15.3,15.3-15.3s15.3,6.9,15.3,15.3h-5v0.9
							H27.6z"/>
						<path class="st137" d="M27.6,39.2H17h-3.2v4.9c-0.8-1.8-1.2-3.8-1.2-5.9c0-8.3,6.7-15,15-15s15,6.7,15,15h-4.7v0.9H27.6z"/>
						<path class="st138" d="M27.6,39.2H17.2H14V44c-0.7-1.8-1.2-3.7-1.2-5.7c0-8.1,6.6-14.8,14.8-14.8s14.8,6.6,14.8,14.8h-4.5v0.9
							H27.6z"/>
						<path class="st139" d="M27.6,39.2H17.4h-3.1v4.7c-0.7-1.7-1.1-3.6-1.1-5.6c0-8,6.5-14.5,14.5-14.5s14.5,6.5,14.5,14.5h-4.2
							v0.9H27.6z"/>
						<path class="st140" d="M27.6,39.2h-10h-3v4.6c-0.7-1.7-1.1-3.6-1.1-5.5c0-7.8,6.4-14.2,14.2-14.2s14.2,6.4,14.2,14.2h-3.9v0.9
							H27.6z"/>
						<path class="st141" d="M27.6,39.2h-9.8h-3v4.5c-0.7-1.7-1.1-3.5-1.1-5.4c0-7.7,6.2-13.9,13.9-13.9s13.9,6.2,13.9,13.9h-3.6
							v0.9H27.6z"/>
						<path class="st142" d="M27.6,39.2H18h-2.9v4.4c-0.7-1.6-1.1-3.4-1.1-5.3c0-7.5,6.1-13.6,13.6-13.6s13.6,6.1,13.6,13.6h-3.3
							v0.9H27.6z"/>
						<path class="st143" d="M27.6,39.2h-9.4h-2.9v4.3c-0.7-1.6-1-3.3-1-5.2c0-7.4,6-13.3,13.3-13.3s13.3,6,13.3,13.3h-3v0.9H27.6z"
							/>
						<path class="st144" d="M27.6,39.2h-9.2h-2.8v4.2c-0.7-1.6-1-3.3-1-5.1c0-7.2,5.8-13,13-13s13,5.8,13,13h-2.8v0.9H27.6z"/>
						<path class="st145" d="M27.6,39.2h-9h-2.7v4c-0.6-1.5-1-3.2-1-5c0-7.1,5.7-12.8,12.8-12.8s12.8,5.7,12.8,12.8h-2.5v0.9H27.6z"
							/>
						<path class="st146" d="M27.6,39.2h-8.8h-2.7v3.9c-0.6-1.5-1-3.1-1-4.9c0-6.9,5.6-12.5,12.5-12.5s12.5,5.6,12.5,12.5h-2.2v0.9
							H27.6z"/>
						<path class="st147" d="M27.6,39.2H19h-2.6V43c-0.6-1.5-1-3.1-1-4.7c0-6.7,5.5-12.2,12.2-12.2s12.2,5.5,12.2,12.2h-1.9v0.9
							H27.6z"/>
						<path class="st148" d="M27.6,39.2h-8.4h-2.6v3.7c-0.6-1.4-0.9-3-0.9-4.6c0-6.6,5.3-11.9,11.9-11.9s11.9,5.3,11.9,11.9h-1.6
							v0.9H27.6z"/>
						<path class="st149" d="M27.6,39.2h-8.2h-2.5v3.6c-0.6-1.4-0.9-2.9-0.9-4.5c0-6.4,5.2-11.6,11.6-11.6s11.6,5.2,11.6,11.6h-1.3
							v0.9H27.6z"/>
						<path class="st150" d="M27.6,39.2h-8h-2.4v3.5c-0.6-1.4-0.9-2.9-0.9-4.4c0-6.3,5.1-11.3,11.3-11.3S39,32,39,38.3h-1.1v0.9
							H27.6z"/>
						<path class="st151" d="M27.6,39.2h-7.8v6.9c-2-2-3.2-4.8-3.2-7.8c0-6.1,5-11.1,11.1-11.1s11.1,5,11.1,11.1
							c0,3.1-1.2,5.8-3.2,7.8v-6.9H27.6z"/>
						<path class="st152" d="M27.6,39.2H20v6.7c-2-2-3.2-4.6-3.2-7.6c0-6,4.8-10.8,10.8-10.8s10.8,4.8,10.8,10.8
							c0,3-1.2,5.7-3.2,7.6v-6.7H27.6z"/>
						<path class="st153" d="M27.6,39.2h-7.4v6.5c-1.9-1.9-3.1-4.5-3.1-7.4c0-5.8,4.7-10.5,10.5-10.5s10.5,4.7,10.5,10.5
							c0,2.9-1.2,5.5-3.1,7.4v-6.5H27.6z"/>
						<path class="st154" d="M27.6,39.2h-7.2v6.3c-1.8-1.8-3-4.4-3-7.2c0-5.6,4.6-10.2,10.2-10.2s10.2,4.6,10.2,10.2
							c0,2.8-1.1,5.4-3,7.2v-6.3H27.6z"/>
						<path class="st155" d="M27.6,39.2h-7v6.1c-1.8-1.8-2.9-4.3-2.9-7c0-5.5,4.4-9.9,9.9-9.9s9.9,4.4,9.9,9.9c0,2.7-1.1,5.2-2.9,7
							v-6.1H27.6z"/>
						<path class="st156" d="M27.6,39.2h-6.8v5.9C19,43.4,18,40.9,18,38.3c0-5.3,4.3-9.6,9.6-9.6s9.6,4.3,9.6,9.6
							c0,2.7-1.1,5.1-2.8,6.8v-5.9H27.6z"/>
						<path class="st157" d="M27.6,39.2H21v5.7c-1.7-1.7-2.7-4-2.7-6.6c0-5.2,4.2-9.4,9.4-9.4s9.4,4.2,9.4,9.4c0,2.6-1,4.9-2.7,6.6
							v-5.7H27.6z"/>
						<path class="st158" d="M27.6,39.2h-6.4v5.5c-1.6-1.6-2.7-3.9-2.7-6.4c0-5,4.1-9.1,9.1-9.1s9.1,4.1,9.1,9.1
							c0,2.5-1,4.8-2.7,6.4v-5.5H27.6z"/>
						<path class="st159" d="M27.6,39.2h-6.2v5.3c-1.6-1.6-2.6-3.8-2.6-6.2c0-4.9,3.9-8.8,8.8-8.8s8.8,3.9,8.8,8.8
							c0,2.4-1,4.6-2.6,6.2v-5.3H27.6z"/>
						<path class="st160" d="M27.6,39.2h-6v5.1c-1.5-1.5-2.5-3.7-2.5-6c0-4.7,3.8-8.5,8.5-8.5s8.5,3.8,8.5,8.5c0,2.4-1,4.5-2.5,6
							v-5.1H27.6z"/>
						<path class="st161" d="M27.6,39.2h-5.8v4.9c-1.5-1.5-2.4-3.5-2.4-5.8c0-4.5,3.7-8.2,8.2-8.2s8.2,3.7,8.2,8.2
							c0,2.3-0.9,4.3-2.4,5.8v-4.9H27.6z"/>
						<path class="st162" d="M27.6,39.2H22v4.7c-1.4-1.4-2.3-3.4-2.3-5.6c0-4.4,3.6-7.9,7.9-7.9s7.9,3.6,7.9,7.9
							c0,2.2-0.9,4.2-2.3,5.6v-4.7H27.6z"/>
						<circle class="st163" cx="27.6" cy="38.3" r="7.7"/>
						<circle class="st164" cx="27.6" cy="38.3" r="7.4"/>
						<circle class="st165" cx="27.6" cy="38.3" r="7.1"/>
						<circle class="st166" cx="27.6" cy="38.3" r="6.8"/>
						<circle class="st167" cx="27.6" cy="38.3" r="6.5"/>
						<circle class="st168" cx="27.6" cy="38.3" r="6.2"/>
						<circle class="st169" cx="27.6" cy="38.3" r="6"/>
						<circle class="st170" cx="27.6" cy="38.3" r="5.7"/>
						<circle class="st171" cx="27.6" cy="38.3" r="5.4"/>
						<circle class="st172" cx="27.6" cy="38.3" r="5.1"/>
						<circle class="st173" cx="27.6" cy="38.3" r="4.8"/>
						<circle class="st174" cx="27.6" cy="38.3" r="4.5"/>
						<circle class="st175" cx="27.6" cy="38.3" r="4.3"/>
						<circle class="st176" cx="27.6" cy="38.3" r="4"/>
						<circle class="st177" cx="27.6" cy="38.3" r="3.7"/>
						<circle class="st178" cx="27.6" cy="38.3" r="3.4"/>
						<circle class="st179" cx="27.6" cy="38.3" r="3.1"/>
						<circle class="st180" cx="27.6" cy="38.3" r="2.8"/>
						<circle class="st181" cx="27.6" cy="38.3" r="2.6"/>
						<circle class="st182" cx="27.6" cy="38.3" r="2.3"/>
						<circle class="st183" cx="27.6" cy="38.3" r="2"/>
						<circle class="st184" cx="27.6" cy="38.3" r="1.7"/>
						<circle class="st185" cx="27.6" cy="38.3" r="1.4"/>
						<circle class="st186" cx="27.6" cy="38.3" r="1.1"/>
						<circle class="st187" cx="27.6" cy="38.3" r="0.9"/>
						<circle class="st188" cx="27.6" cy="38.3" r="0.6"/>
						<circle class="st189" cx="27.6" cy="38.3" r="0.3"/>
					</g>
				</g>
				<g>
					<g>
						<defs>
							<path id="SVGID_5_" d="M15.1,7.4c3.4,3.6,4.4,8,7.9,11.4c0.9,0.9,3.2,3,5.7,4.1c4.4,2.1,7.5,0.7,7.9-3.6
								c0.1-0.9,0-1.7-0.1-2.6c-0.7,2.6-3.4,1-5.3-1.2c-1.3-1.5-2.9-4.9-4.1-7.7c-1.1-2.5-2.8-4.5-5-5c-2.8-0.4-4.2-0.3-6.6,0
								c-0.4,0.1-0.8,0.2-1.2,0.3C12.1,3.7,11.1,4.3,9.5,5C10.2,4.6,12.1,4,15.1,7.4z"/>
						</defs>
						<clipPath id="SVGID_6_">
							<use xlink:href="#SVGID_5_"  style="overflow:visible;"/>
						</clipPath>
						<rect x="9.5" y="2.4" class="st190" width="27.2" height="22.6"/>
						<polygon class="st190" points="37.7,10.6 37.7,26 8.5,26 8.5,1.4 37.7,1.4 						"/>
						<polygon class="st191" points="37.7,10.6 37.7,26 8.5,26 8.5,1.4 37.7,1.4 						"/>
						<polygon class="st192" points="37.7,10.6 37.7,26 8.5,26 8.5,1.4 37.7,1.4 						"/>
						<polygon class="st193" points="37.7,10.6 37.7,26 8.5,26 8.5,1.4 37.7,1.4 						"/>
						<polygon class="st194" points="37.7,10.6 37.7,26 8.5,26 8.5,1.4 37.7,1.4 						"/>
						<polygon class="st195" points="37.7,10.6 37.7,26 8.5,26 8.5,1.4 37.7,1.4 						"/>
						<polygon class="st196" points="37.7,10.6 37.7,26 8.5,26 8.5,1.4 37.7,1.4 						"/>
						<polygon class="st197" points="37.7,10.6 37.7,26 8.5,26 8.5,1.4 37.7,1.4 						"/>
						<polygon class="st198" points="37.7,10.6 37.7,26 8.5,26 8.5,1.4 37.7,1.4 						"/>
						<polygon class="st199" points="37.7,10.6 37.7,26 8.5,26 8.5,1.4 37.7,1.4 						"/>
						<polygon class="st200" points="37.7,10.6 37.7,26 8.5,26 8.5,1.4 37.7,1.4 						"/>
						<polygon class="st201" points="37.7,10.6 37.7,26 8.5,26 8.5,1.4 37.7,1.4 						"/>
						<polygon class="st202" points="37.7,10.6 37.7,26 8.5,26 8.5,1.4 37.7,1.4 						"/>
						<polygon class="st203" points="37.7,10.6 37.7,26 8.5,26 8.5,1.4 37.7,1.4 						"/>
						<polygon class="st204" points="37.7,10.6 37.7,26 8.5,26 8.5,1.4 37.7,1.4 						"/>
						<polygon class="st205" points="37.7,10.6 37.7,26 8.5,26 8.5,1.4 37.7,1.4 						"/>
						<polygon class="st206" points="37.7,10.6 37.7,26 8.5,26 8.5,1.4 37.7,1.4 						"/>
						<polygon class="st207" points="37.7,10.6 37.7,24.4 37.7,26 8.5,26 8.5,1.4 37.7,1.4 						"/>
						<polygon class="st208" points="37.7,10.6 37.7,24.2 37.7,26 8.5,26 8.5,1.4 37.7,1.4 						"/>
						<polygon class="st209" points="37.7,10.6 37.7,24.1 37.7,26 8.5,26 8.5,1.4 37.7,1.4 						"/>
						<polygon class="st210" points="37.7,10.6 37.7,23.9 37.7,26 8.5,26 8.5,1.4 37.7,1.4 						"/>
						<polygon class="st211" points="37.7,10.6 37.7,23.7 37.7,26 8.5,26 8.5,1.4 37.7,1.4 						"/>
						<polygon class="st212" points="37.7,10.6 37.7,23.5 37.7,26 8.5,26 8.5,1.4 37.7,1.4 						"/>
						<polygon class="st213" points="37.7,10.6 37.7,23.3 37.7,26 8.5,26 8.5,1.4 37.7,1.4 						"/>
						<polygon class="st214" points="37.7,10.6 37.7,23.2 37.7,26 8.5,26 8.5,1.4 37.7,1.4 						"/>
						<polygon class="st215" points="37.7,10.6 37.7,23 37.7,26 8.5,26 8.5,1.4 37.7,1.4 						"/>
						<path class="st216" d="M43.9,10.6c0,8.7-3.5,16.5-9.2,22.2V26H8.5V1.4h29.2v9.2H43.9z"/>
						<path class="st217" d="M43.4,10.6c0,8.5-3.5,16.3-9,21.8V26H8.5V1.4h29.2v9.2H43.4z"/>
						<path class="st218" d="M43,10.6c0,8.4-3.4,16-8.9,21.5V26H8.5V1.4h29.2v9.2H43z"/>
						<path class="st219" d="M42.5,10.6c0,8.3-3.4,15.8-8.8,21.2V26H8.5V1.4h29.2v9.2H42.5z"/>
						<path class="st220" d="M42,10.6c0,8.1-3.3,15.5-8.6,20.9V26H8.5V1.4h29.2v9.2H42z"/>
						<path class="st221" d="M41.6,10.6c0,8-3.3,15.3-8.5,20.5V26H8.5V1.4h29.2v9.2H41.6z"/>
						<path class="st222" d="M41.1,10.6c0,7.9-3.2,15-8.4,20.2V26H8.5V1.4h29.2v9.2H41.1z"/>
						<path class="st223" d="M40.7,10.6c0,7.8-3.1,14.8-8.2,19.9V26H8.5V1.4h29.2v9.2H40.7z"/>
						<path class="st224" d="M40.2,10.6c0,7.6-3.1,14.6-8.1,19.6V26H8.5V1.4h29.2v9.2H40.2z"/>
						<path class="st225" d="M39.7,10.6c0,7.5-3,14.3-8,19.2V26H8.5V1.4h29.1V0C39,3.3,39.7,6.8,39.7,10.6z"/>
						<path class="st226" d="M39.3,10.6c0,7.4-3,14.1-7.8,18.9V26H8.5V1.4h28.7V0.2C38.5,3.4,39.3,6.9,39.3,10.6z"/>
						<path class="st227" d="M38.8,10.6c0,7.3-2.9,13.8-7.7,18.6V26H8.5V1.4h28.3v-1C38.1,3.5,38.8,7,38.8,10.6z"/>
						<path class="st228" d="M38.4,10.6c0,7.1-2.9,13.6-7.6,18.3V26H8.5V1.4h27.8V0.5C37.6,3.6,38.4,7,38.4,10.6z"/>
						<path class="st229" d="M37.9,10.6c0,7-2.8,13.3-7.4,17.9V26h-22V1.4h27.4V0.7C37.2,3.8,37.9,7.1,37.9,10.6z"/>
						<path class="st230" d="M37.4,10.6c0,6.9-2.8,13.1-7.3,17.6V26H8.5V1.4h27V0.9C36.7,3.9,37.4,7.2,37.4,10.6z"/>
						<path class="st231" d="M37,10.6c0,6.7-2.7,12.9-7.2,17.3V26H8.5V1.4h26.6V1.1C36.3,4,37,7.2,37,10.6z"/>
						<path class="st232" d="M36.5,10.6c0,6.6-2.7,12.6-7,17V26h-21V1.4h26.1V1.3C35.8,4.1,36.5,7.3,36.5,10.6z"/>
						<path class="st233" d="M36.1,10.6c0,6.5-2.6,12.4-6.9,16.6V26H8.5V1.4H32v-3.9c0.8,1.3,1.6,2.6,2.2,4
							C35.4,4.3,36.1,7.4,36.1,10.6z"/>
						<path class="st234" d="M35.6,10.6c0,6.4-2.6,12.1-6.8,16.3V26H8.5V1.4h23.2v-3.7c0.8,1.2,1.5,2.5,2.1,3.9
							C34.9,4.4,35.6,7.4,35.6,10.6z"/>
						<path class="st235" d="M35.1,10.6c0,6.2-2.5,11.9-6.6,16V26h-20V1.4h20v-6.8C32.6-1.3,35.1,4.4,35.1,10.6z"/>
						<path class="st236" d="M34.7,10.6c0,12.2-9.9,22.1-22.1,22.1V26h-4V1.4h19.7v-6.5C32.2-1,34.7,4.5,34.7,10.6z"/>
						<path class="st237" d="M34.2,10.6c0,12-9.7,21.7-21.7,21.7V26h-4V1.4h19.4v-6.1C31.8-0.8,34.2,4.6,34.2,10.6z"/>
						<path class="st238" d="M33.7,10.6c0,11.7-9.5,21.2-21.2,21.2V26h-4V1.4h19v-5.8C31.4-0.6,33.7,4.7,33.7,10.6z"/>
						<path class="st239" d="M33.3,10.6c0,11.5-9.3,20.7-20.7,20.7V26h-4V1.4h18.7v-5.5C31-0.3,33.3,4.9,33.3,10.6z"/>
						<path class="st240" d="M32.8,10.6c0,11.2-9.1,20.3-20.3,20.3V26h-4V1.4h18.4v-5.1C30.6-0.1,32.8,5,32.8,10.6z"/>
						<path class="st241" d="M32.4,10.6c0,11-8.9,19.8-19.8,19.8V26h-4V1.4h18.1v-4.8C30.1,0.2,32.4,5.1,32.4,10.6z"/>
						<path class="st242" d="M31.9,10.6c0,10.7-8.7,19.4-19.4,19.4v-4h-4V1.4h17.7v-4.5C29.7,0.4,31.9,5.3,31.9,10.6z"/>
						<path class="st243" d="M31.4,10.6c0,10.4-8.5,18.9-18.9,18.9V26h-4V1.4h17.4v-4.2C29.3,0.7,31.4,5.4,31.4,10.6z"/>
						<path class="st244" d="M31,10.6C31,20.8,22.7,29,12.5,29v-3h-4V1.4h17.1v-3.8C28.9,0.9,31,5.5,31,10.6z"/>
						<path class="st245" d="M30.5,10.6c0,9.9-8.1,18-18,18V26h-4V1.4h16.8v-3.5C28.5,1.1,30.5,5.6,30.5,10.6z"/>
						<path class="st246" d="M30.1,10.6c0,9.7-7.8,17.5-17.5,17.5V26h-4V1.4h16.4v-3.2C28.1,1.4,30.1,5.8,30.1,10.6z"/>
						<path class="st247" d="M29.6,10.6c0,9.4-7.6,17.1-17.1,17.1V26h-4V1.4h16.1v-2.9C27.7,1.6,29.6,5.9,29.6,10.6z"/>
						<path class="st248" d="M29.1,10.6c0,9.2-7.4,16.6-16.6,16.6c-2.3,0-4.5-0.5-6.5-1.3h2.4V1.4h15.8v-2.5
							C27.3,1.9,29.1,6,29.1,10.6z"/>
						<path class="st249" d="M28.7,10.6c0,8.9-7.2,16.1-16.1,16.1c-2.2,0-4.4-0.5-6.3-1.3h2.2V1.4h4v-6.9
							C21.4-5.5,28.7,1.7,28.7,10.6z"/>
						<path class="st250" d="M28.2,10.6c0,8.7-7,15.7-15.7,15.7c-2.2,0-4.2-0.4-6.1-1.2h2.1V1.4h4v-6.5C21.2-5.1,28.2,1.9,28.2,10.6
							z"/>
						<path class="st251" d="M27.8,10.6c0,8.4-6.8,15.2-15.2,15.2c-4.2,0-8-1.7-10.8-4.5h6.7v-20h4v-6C20.9-4.6,27.8,2.2,27.8,10.6z
							"/>
						<path class="st252" d="M27.3,10.6c0,8.1-6.6,14.8-14.8,14.8c-4.1,0-7.8-1.7-10.4-4.3h6.4V1.4h4v-5.6
							C20.7-4.2,27.3,2.5,27.3,10.6z"/>
						<path class="st253" d="M26.8,10.6c0,7.9-6.4,14.3-14.3,14.3c-3.9,0-7.5-1.6-10.1-4.2h6.1V1.4h4v-5.1
							C20.4-3.7,26.8,2.7,26.8,10.6z"/>
						<path class="st254" d="M26.4,10.6c0,7.6-6.2,13.8-13.8,13.8c-3.8,0-7.3-1.5-9.8-4.1h5.7v-19h4v-4.6C20.2-3.2,26.4,3,26.4,10.6
							z"/>
						<path class="st255" d="M25.9,10.6c0,7.4-6,13.4-13.4,13.4c-3.7,0-7-1.5-9.5-3.9h5.4V1.4h4v-4.2C19.9-2.8,25.9,3.2,25.9,10.6z"
							/>
						<path class="st256" d="M25.4,10.6c0,7.1-5.8,12.9-12.9,12.9c-3.6,0-6.8-1.4-9.1-3.8h5.1V1.5H3.4C5.7-0.9,9-2.3,12.5-2.3
							C19.7-2.3,25.4,3.5,25.4,10.6z"/>
						<path class="st257" d="M25,10.6C25,17.5,19.4,23,12.5,23c-3.4,0-6.6-1.4-8.8-3.6h4.8V1.8H3.7C6-0.5,9.1-1.8,12.5-1.8
							C19.4-1.8,25,3.7,25,10.6z"/>
						<path class="st258" d="M24.5,10.6c0,6.6-5.4,12-12,12c-3.3,0-6.3-1.3-8.5-3.5h4.4v-17H4.1C6.2,0,9.2-1.4,12.5-1.4
							C19.2-1.4,24.5,4,24.5,10.6z"/>
						<path class="st259" d="M24.1,10.6c0,6.4-5.2,11.5-11.5,11.5c-3.2,0-6.1-1.3-8.2-3.4h4.1V2.4H4.4c2.1-2.1,5-3.4,8.2-3.4
							C18.9-0.9,24.1,4.2,24.1,10.6z"/>
						<path class="st260" d="M23.6,10.6c0,6.1-5,11.1-11.1,11.1c-3.1,0-5.8-1.2-7.8-3.2h3.8V2.8H4.7c2-2,4.8-3.2,7.8-3.2
							C18.6-0.5,23.6,4.5,23.6,10.6z"/>
						<circle class="st261" cx="12.5" cy="10.6" r="10.6"/>
						<circle class="st262" cx="12.5" cy="10.6" r="10.1"/>
						<circle class="st263" cx="12.5" cy="10.6" r="9.7"/>
						<circle class="st264" cx="12.5" cy="10.6" r="9.2"/>
						<circle class="st265" cx="12.5" cy="10.6" r="8.8"/>
						<circle class="st266" cx="12.5" cy="10.6" r="8.3"/>
						<circle class="st267" cx="12.5" cy="10.6" r="7.8"/>
						<circle class="st268" cx="12.5" cy="10.6" r="7.4"/>
						<circle class="st269" cx="12.5" cy="10.6" r="6.9"/>
						<circle class="st270" cx="12.5" cy="10.6" r="6.5"/>
						<circle class="st271" cx="12.5" cy="10.6" r="6"/>
						<circle class="st272" cx="12.5" cy="10.6" r="5.5"/>
						<circle class="st273" cx="12.5" cy="10.6" r="5.1"/>
						<circle class="st274" cx="12.5" cy="10.6" r="4.6"/>
						<circle class="st275" cx="12.5" cy="10.6" r="4.1"/>
						<circle class="st276" cx="12.5" cy="10.6" r="3.7"/>
						<circle class="st277" cx="12.5" cy="10.6" r="3.2"/>
						<circle class="st278" cx="12.5" cy="10.6" r="2.8"/>
						<circle class="st279" cx="12.5" cy="10.6" r="2.3"/>
						<circle class="st280" cx="12.5" cy="10.6" r="1.8"/>
						<circle class="st281" cx="12.5" cy="10.6" r="1.4"/>
						<circle class="st282" cx="12.5" cy="10.6" r="0.9"/>
						<circle class="st283" cx="12.5" cy="10.6" r="0.5"/>
					</g>
				</g>
				<g>
					<g>
						<defs>
							<path id="SVGID_7_" d="M36,27.4c-3.5,4-12.8,3.3-26.4-13c-4.3-5.2-7.3-2.7-8.4,0.3c-0.5,1.4-0.7,2.5-0.9,3.5
								c-0.1,0.4-0.2,1.4-0.2,1.4c-0.5,5.3,1.2,10.9,5.3,15c6.6,6.6,17.1,7.2,24.4,1.6c0.1-0.1,0.2-0.1,0.3-0.2
								C32.8,33.8,34.9,30.8,36,27.4z"/>
						</defs>
						<clipPath id="SVGID_8_">
							<use xlink:href="#SVGID_7_"  style="overflow:visible;"/>
						</clipPath>
						<rect x="-0.4" y="9.2" class="st284" width="36.4" height="32.6"/>
						<path class="st284" d="M37,10.6v30.6h6.2c-2,2-4.1,3.7-6.4,5.3v-3.7H-1.4V8.2H37V10.6z"/>
						<path class="st285" d="M37,10.6v30.3h5.9c-1.9,1.9-4.1,3.7-6.3,5.2v-3.4H-1.4V8.2H37V10.6z"/>
						<path class="st286" d="M37,10.6v30h5.5c-3.8,3.8-8.4,6.9-13.5,9.1v-6.9H-1.4V8.2H37V10.6z"/>
						<path class="st287" d="M37,10.6v29.7h5.2c-3.8,3.8-8.3,6.9-13.3,9v-6.5H-1.4V8.2H37V10.6z"/>
						<path class="st288" d="M37,10.6v29.3h4.9c-3.8,3.8-8.2,6.8-13.2,8.9v-6H-1.4V8.2H37V10.6z"/>
						<path class="st289" d="M37,10.6v29h4.6c-3.7,3.7-8.1,6.7-13,8.8v-5.6H-1.4V8.2H37V10.6z"/>
						<path class="st290" d="M37,10.6v28.7h4.2c-3.7,3.7-8,6.6-12.9,8.7v-5.2H-1.4V8.2H37V10.6z"/>
						<path class="st291" d="M37,10.6V39h3.9c-3.6,3.6-8,6.6-12.8,8.6v-4.8H-1.4V8.2H37V10.6z"/>
						<path class="st292" d="M37,10.6v28h3.6c-3.6,3.6-7.9,6.5-12.6,8.5v-4.3H-1.4V8.2H37V10.6z"/>
						<path class="st293" d="M37,10.6v27.7h3.3c-7.1,7.1-16.9,11.5-27.7,11.5v-7H-1.4V8.2H37V10.6z"/>
						<path class="st294" d="M37,10.6V38h2.9c-7,7-16.7,11.3-27.4,11.3v-6.5H-1.4V8.2H37V10.6z"/>
						<path class="st295" d="M37,10.6v27.1h2.6c-6.9,6.9-16.5,11.2-27.1,11.2v-6.1H-1.4V8.2H37V10.6z"/>
						<path class="st296" d="M37,10.6v26.7h2.3C32.4,44.2,23,48.4,12.5,48.4v-5.6H-1.4V8.2H37V10.6z"/>
						<path class="st297" d="M37,10.6V37h1.9c-6.8,6.8-16.1,10.9-26.4,10.9v-5.1H-1.4V8.2H37V10.6z"/>
						<path class="st298" d="M37,10.6v26.1h1.6c-6.7,6.7-15.9,10.8-26.1,10.8v-4.7H-1.4V8.2H37V10.6z"/>
						<path class="st299" d="M37,10.6v25.8h1.3C31.7,43,22.6,47,12.5,47v-4.2H-1.4V8.2H37V10.6z"/>
						<path class="st300" d="M37,10.6V36h1c-6.5,6.5-15.5,10.5-25.4,10.5v-3.8H-1.4V8.2H37V10.6z"/>
						<path class="st301" d="M37,10.6v25.1h0.6c-6.4,6.4-15.3,10.4-25.1,10.4v-3.3H-1.3v0.5c-2.1-0.9-4.1-2-6-3.3h5.9V8.2H37V10.6z"
							/>
						<path class="st302" d="M37,10.6v24.8h0.3C31,41.7,22.2,45.6,12.5,45.6v-2.8H-1.1v0.1c-2.1-0.9-4.1-2-6-3.2h5.7V8.2H37V10.6z"
							/>
						<path class="st303" d="M37,10.6v13.5v5.9h4.2c-1.2,1.8-2.7,3.6-4.2,5.1c-6.3,6.3-14.9,10.1-24.5,10.1c-4.8,0-9.3-1-13.5-2.7
							c-2.1-0.9-4-1.9-5.9-3.2h5.4V8.2H37V10.6z"/>
						<path class="st304" d="M37,10.6v13.3h7c-1.7,4.1-4.2,7.8-7.3,10.8c-6.2,6.2-14.7,10-24.1,10c-4.7,0-9.2-1-13.3-2.7
							c-2-0.9-4-1.9-5.8-3.1h5.1V8.2H37V10.6z"/>
						<path class="st305" d="M37,10.6v13.1h6.6c-1.7,4-4.2,7.7-7.2,10.7c-6.1,6.1-14.5,9.9-23.8,9.9c-4.6,0-9.1-0.9-13.1-2.6
							c-2-0.9-3.9-1.9-5.7-3.1h4.9V8.2H37V10.6z"/>
						<path class="st306" d="M37,10.6v12.9h6.1c-1.7,4-4.1,7.5-7.1,10.6c-6,6-14.3,9.7-23.5,9.7c-4.6,0-9-0.9-12.9-2.6
							c-2-0.8-3.9-1.9-5.6-3.1h4.6V8.2H37V10.6z"/>
						<path class="st307" d="M37,10.6v12.7h5.7c-1.7,3.9-4.1,7.4-7,10.4c-5.9,5.9-14.1,9.6-23.1,9.6c-4.5,0-8.8-0.9-12.7-2.6
							c-2-0.8-3.8-1.8-5.6-3h4.4V8.2H37V10.6z"/>
						<path class="st308" d="M37,10.6v12.6h5.3c-1.6,3.9-4,7.3-6.9,10.3c-5.8,5.8-13.9,9.5-22.8,9.5C8.1,42.9,3.8,42,0,40.3
							c-1.9-0.8-3.8-1.8-5.5-3h4.1V8.2H37V10.6z"/>
						<path class="st309" d="M37,10.6V23h4.9c-1.6,3.8-3.9,7.2-6.8,10.1c-5.8,5.8-13.7,9.3-22.5,9.3c-4.4,0-8.6-0.9-12.4-2.5
							c-1.9-0.8-3.7-1.8-5.4-2.9h3.9V8.2H37V10.6z"/>
						<path class="st310" d="M43.9,10.6c0,17.3-14,31.4-31.4,31.4c-4.3,0-8.5-0.9-12.2-2.5c-1.9-0.8-3.7-1.8-5.3-2.9h3.6V8.2H37v2.4
							H43.9z"/>
						<path class="st311" d="M43.4,10.6c0,17.1-13.8,30.9-30.9,30.9c-4.3,0-8.3-0.9-12-2.4c-1.8-0.8-3.6-1.7-5.2-2.8h3.3v-28H37v2.4
							H43.4z"/>
						<path class="st312" d="M43,10.6C43,27.4,29.3,41,12.5,41c-4.2,0-8.2-0.9-11.8-2.4c-1.8-0.8-3.6-1.7-5.2-2.8h3.1V8.2H37v2.4H43
							z"/>
						<path class="st313" d="M42.5,10.6c0,16.6-13.4,30-30,30c-4.1,0-8.1-0.8-11.7-2.4c-1.8-0.8-3.5-1.7-5.1-2.8h2.8V8.2H37v2.4
							H42.5z"/>
						<path class="st314" d="M42,10.6c0,16.3-13.2,29.5-29.5,29.5c-8.1,0-15.5-3.3-20.9-8.6h6.9V8.2H37v2.4H42z"/>
						<path class="st315" d="M41.6,10.6c0,16-13,29-29,29c-8,0-15.3-3.3-20.5-8.5h6.6V8.2H37v2.4H41.6z"/>
						<path class="st316" d="M41.1,10.6c0,15.8-12.8,28.6-28.6,28.6c-7.9,0-15-3.2-20.2-8.4h6.3V8.2H37v2.4H41.1z"/>
						<path class="st317" d="M40.7,10.6c0,15.5-12.6,28.1-28.1,28.1c-7.8,0-14.8-3.1-19.9-8.2h6V8.2H37v2.4H40.7z"/>
						<path class="st318" d="M40.2,10.6c0,15.3-12.4,27.7-27.7,27.7C4.9,38.3-2,35.2-7,30.2h5.6v-22H37v2.4H40.2z"/>
						<path class="st319" d="M39.7,10.6c0,15-12.2,27.2-27.2,27.2c-7.5,0-14.3-3-19.2-8h5.3V8.2H37v2.4H39.7z"/>
						<path class="st320" d="M39.3,10.6c0,14.8-12,26.7-26.7,26.7c-7.4,0-14.1-3-18.9-7.8h5V8.2H37v2.4H39.3z"/>
						<path class="st321" d="M38.8,10.6c0,14.5-11.8,26.3-26.3,26.3c-7.3,0-13.8-2.9-18.6-7.7h4.6v-21H37v2.4H38.8z"/>
						<path class="st322" d="M38.4,10.6c0,14.3-11.6,25.8-25.8,25.8c-7.1,0-13.6-2.9-18.3-7.6h4.3V8.2H37v2.4H38.4z"/>
						<path class="st323" d="M37.9,10.6c0,14-11.4,25.4-25.4,25.4c-7,0-13.3-2.8-17.9-7.4h4V8.2H37v2.4H37.9z"/>
						<path class="st324" d="M37.4,10.6c0,13.8-11.1,24.9-24.9,24.9c-6.9,0-13.1-2.8-17.6-7.3h3.7v-20h38.3V5.6
							C37.3,7.2,37.4,8.9,37.4,10.6z"/>
						<path class="st325" d="M37,10.6C37,24.1,26,35,12.5,35c-6.7,0-12.9-2.7-17.3-7.2h3.3V8.2h37.9V5.7C36.8,7.3,37,8.9,37,10.6z"
							/>
						<path class="st326" d="M36.5,10.6c0,13.2-10.7,24-24,24c-6.6,0-12.6-2.7-17-7h3V8.2h36V1.3C35.8,4.1,36.5,7.3,36.5,10.6z"/>
						<path class="st327" d="M36.1,10.6c0,13-10.5,23.5-23.5,23.5c-6.5,0-12.4-2.6-16.6-6.9h2.7v-19h35.6V1.4
							C35.4,4.3,36.1,7.4,36.1,10.6z"/>
						<path class="st328" d="M35.6,10.6c0,12.7-10.3,23.1-23.1,23.1c-6.4,0-12.1-2.6-16.3-6.8h2.4V8.2h35.2V1.6
							C34.9,4.4,35.6,7.4,35.6,10.6z"/>
						<path class="st329" d="M35.1,10.6c0,12.5-10.1,22.6-22.6,22.6c-6.2,0-11.9-2.5-16-6.6h2V8.2h34.8V1.8
							C34.5,4.5,35.1,7.5,35.1,10.6z"/>
						<path class="st330" d="M34.7,10.6c0,12.2-9.9,22.1-22.1,22.1c-6.1,0-11.6-2.5-15.7-6.5h1.7V8.2h34.3V2
							C34,4.6,34.7,7.5,34.7,10.6z"/>
						<path class="st331" d="M34.2,10.6c0,12-9.7,21.7-21.7,21.7c-6,0-11.4-2.4-15.3-6.3h1.4V8.2h33.9v-6
							C33.6,4.8,34.2,7.6,34.2,10.6z"/>
						<path class="st332" d="M33.7,10.6c0,11.7-9.5,21.2-21.2,21.2c-5.9,0-11.2-2.4-15-6.2h1.1V8.2h33.5V2.3
							C33.2,4.9,33.7,7.7,33.7,10.6z"/>
						<path class="st333" d="M33.3,10.6c0,11.5-9.3,20.7-20.7,20.7S-8.2,22.1-8.2,10.6h6.8V8.2h33.1V2.5C32.7,5,33.3,7.7,33.3,10.6z
							"/>
						<path class="st334" d="M32.8,10.6c0,11.2-9.1,20.3-20.3,20.3S-7.8,21.8-7.8,10.6h6.4V8.2h32.6V2.7
							C32.3,5.1,32.8,7.8,32.8,10.6z"/>
						<path class="st335" d="M32.4,10.6c0,11-8.9,19.8-19.8,19.8S-7.3,21.6-7.3,10.6h5.9V8.2h32.2V2.9C31.8,5.3,32.4,7.9,32.4,10.6z
							"/>
						<path class="st336" d="M31.9,10.6c0,10.7-8.7,19.4-19.4,19.4S-6.8,21.3-6.8,10.6h5.4V8.2h31.8V3.1
							C31.4,5.4,31.9,7.9,31.9,10.6z"/>
						<path class="st337" d="M31.4,10.6c0,10.4-8.5,18.9-18.9,18.9S-6.4,21-6.4,10.6h5V8.2H30v-5C30.9,5.5,31.4,8,31.4,10.6z"/>
						<path class="st338" d="M31,10.6C31,20.8,22.7,29,12.5,29S-5.9,20.8-5.9,10.6h4.5V8.2h30.9V3.4C30.5,5.6,31,8.1,31,10.6z"/>
						<path class="st339" d="M30.5,10.6c0,9.9-8.1,18-18,18s-18-8.1-18-18h4V8.2h30.5V3.6C30,5.8,30.5,8.1,30.5,10.6z"/>
						<path class="st340" d="M30.1,10.6c0,9.7-7.8,17.5-17.5,17.5S-5,20.3-5,10.6h3.6V8.2h30.1V3.8C29.6,5.9,30.1,8.2,30.1,10.6z"/>
						<path class="st341" d="M29.6,10.6c0,9.4-7.6,17.1-17.1,17.1S-4.5,20-4.5,10.6h3.1V8.2h29.7V4C29.1,6,29.6,8.2,29.6,10.6z"/>
						<path class="st342" d="M29.1,10.6c0,9.2-7.4,16.6-16.6,16.6S-4.1,19.8-4.1,10.6h2.7V8.2h29.2V4.1C28.7,6.1,29.1,8.3,29.1,10.6
							z"/>
						<path class="st343" d="M28.7,10.6c0,8.9-7.2,16.1-16.1,16.1S-3.6,19.5-3.6,10.6h2.2V8.2h28.8V4.3C28.2,6.2,28.7,8.4,28.7,10.6
							z"/>
						<path class="st344" d="M28.2,10.6c0,8.7-7,15.7-15.7,15.7s-15.7-7-15.7-15.7h1.7V8.2H27V4.5C27.8,6.4,28.2,8.4,28.2,10.6z"/>
						<path class="st345" d="M27.8,10.6c0,8.4-6.8,15.2-15.2,15.2S-2.7,19-2.7,10.6h1.3V8.2h28V4.7C27.3,6.5,27.8,8.5,27.8,10.6z"/>
						<path class="st346" d="M27.3,10.6c0,8.1-6.6,14.8-14.8,14.8S-2.2,18.7-2.2,10.6c0-2,0.4-4,1.2-5.7v3.3h27.2V4.9
							C26.9,6.6,27.3,8.6,27.3,10.6z"/>
						<path class="st347" d="M26.8,10.6c0,7.9-6.4,14.3-14.3,14.3S-1.8,18.5-1.8,10.6c0-2,0.4-3.9,1.1-5.6v3.2h26.3V5
							C26.4,6.7,26.8,8.6,26.8,10.6z"/>
						<path class="st348" d="M26.4,10.6c0,7.6-6.2,13.8-13.8,13.8S-1.3,18.2-1.3,10.6c0-1.9,0.4-3.7,1.1-5.4v3h25.5v-3
							C26,6.9,26.4,8.7,26.4,10.6z"/>
						<path class="st349" d="M25.9,10.6c0,7.4-6,13.4-13.4,13.4S-0.8,18-0.8,10.6c0-1.8,0.4-3.6,1.1-5.2v2.8h24.6V5.4
							C25.5,7,25.9,8.8,25.9,10.6z"/>
						<path class="st350" d="M25.4,10.6c0,7.1-5.8,12.9-12.9,12.9S-0.4,17.7-0.4,10.6c0-3.6,1.4-6.8,3.8-9.1v6.7h18.3V1.5
							C24,3.8,25.4,7,25.4,10.6z"/>
						<path class="st351" d="M25,10.6c0,6.9-5.6,12.4-12.4,12.4S0.1,17.5,0.1,10.6c0-3.4,1.4-6.6,3.6-8.8v6.4h17.6V1.8
							C23.6,4,25,7.2,25,10.6z"/>
						<path class="st352" d="M24.5,10.6c0,6.6-5.4,12-12,12s-12-5.4-12-12c0-3.3,1.3-6.3,3.5-8.5v6.1h17V2.1
							C23.2,4.3,24.5,7.3,24.5,10.6z"/>
						<path class="st353" d="M24.1,10.6c0,6.4-5.2,11.5-11.5,11.5S1,17,1,10.6c0-3.2,1.3-6.1,3.4-8.2v5.8h16.3V2.4
							C22.8,4.5,24.1,7.4,24.1,10.6z"/>
						<path class="st354" d="M23.6,10.6c0,6.1-5,11.1-11.1,11.1s-11.1-5-11.1-11.1c0-3.1,1.2-5.8,3.2-7.8v5.4h15.7V2.8
							C22.4,4.8,23.6,7.5,23.6,10.6z"/>
						<path class="st355" d="M23.1,10.6c0,5.9-4.7,10.6-10.6,10.6S1.9,16.5,1.9,10.6C1.9,7.7,3.1,5,5,3.1v5.1h15V3.1
							C22,5,23.1,7.7,23.1,10.6z"/>
						<path class="st356" d="M22.7,10.6c0,5.6-4.5,10.1-10.1,10.1S2.4,16.2,2.4,10.6c0-2.8,1.1-5.3,3-7.2v4.8h14.3V3.4
							C21.5,5.3,22.7,7.8,22.7,10.6z"/>
						<path class="st357" d="M22.2,10.6c0,5.3-4.3,9.7-9.7,9.7s-9.7-4.3-9.7-9.7c0-2.7,1.1-5.1,2.8-6.8v4.4h13.7V3.8
							C21.1,5.5,22.2,7.9,22.2,10.6z"/>
						<circle class="st358" cx="12.5" cy="10.6" r="9.2"/>
						<circle class="st359" cx="12.5" cy="10.6" r="8.8"/>
						<circle class="st360" cx="12.5" cy="10.6" r="8.3"/>
						<circle class="st361" cx="12.5" cy="10.6" r="7.8"/>
						<circle class="st362" cx="12.5" cy="10.6" r="7.4"/>
						<circle class="st363" cx="12.5" cy="10.6" r="6.9"/>
						<circle class="st364" cx="12.5" cy="10.6" r="6.5"/>
						<circle class="st365" cx="12.5" cy="10.6" r="6"/>
						<circle class="st366" cx="12.5" cy="10.6" r="5.5"/>
						<circle class="st367" cx="12.5" cy="10.6" r="5.1"/>
						<circle class="st368" cx="12.5" cy="10.6" r="4.6"/>
						<circle class="st369" cx="12.5" cy="10.6" r="4.1"/>
						<circle class="st370" cx="12.5" cy="10.6" r="3.7"/>
						<circle class="st371" cx="12.5" cy="10.6" r="3.2"/>
						<circle class="st372" cx="12.5" cy="10.6" r="2.8"/>
						<circle class="st373" cx="12.5" cy="10.6" r="2.3"/>
						<circle class="st374" cx="12.5" cy="10.6" r="1.8"/>
						<circle class="st375" cx="12.5" cy="10.6" r="1.4"/>
						<circle class="st376" cx="12.5" cy="10.6" r="0.9"/>
						<circle class="st377" cx="12.5" cy="10.6" r="0.5"/>
					</g>
				</g>
			</g>
			<g>
				<g>
					<g>
						<path class="st378" d="M46.5,38.5l-0.7,0.9v1.9c0,0.1,0,0.1-0.1,0.1h-0.3c-0.1,0-0.1,0-0.1-0.1v-5.6c0-0.1,0-0.1,0.1-0.1h0.3
							c0.1,0,0.1,0,0.1,0.1v3l2.4-3c0.1-0.1,0.2-0.1,0.3-0.1h0.4H49c0,0,0,0,0,0.1l-2,2.4l2.2,3.2c0,0.1,0,0.1,0,0.1h-0.4
							c-0.1,0-0.1,0-0.1,0s-0.1,0-0.1-0.1L46.5,38.5z"/>
					</g>
					<g>
						<path class="st378" d="M53.7,39.3c0,0.3,0,0.6-0.1,0.9s-0.2,0.5-0.4,0.7s-0.4,0.4-0.7,0.5s-0.5,0.2-0.9,0.2s-0.6-0.1-0.9-0.2
							c-0.3-0.1-0.5-0.3-0.7-0.5c-0.1-0.2-0.3-0.4-0.3-0.7c-0.1-0.3-0.1-0.5-0.1-0.9c0-0.6,0.2-1.1,0.5-1.5c0.4-0.5,0.9-0.7,1.5-0.7
							c0.3,0,0.6,0.1,0.9,0.2c0.2,0.1,0.5,0.3,0.6,0.5C53.6,38.2,53.7,38.7,53.7,39.3z M53.2,39.3c0-0.2,0-0.5-0.1-0.7
							s-0.2-0.4-0.3-0.6c-0.3-0.3-0.6-0.5-1.1-0.5c-0.2,0-0.4,0-0.6,0.1c-0.2,0.1-0.3,0.2-0.5,0.4c-0.1,0.2-0.2,0.4-0.3,0.6
							s-0.1,0.4-0.1,0.7c0,0.2,0,0.5,0.1,0.7s0.2,0.4,0.3,0.6c0.3,0.3,0.6,0.5,1.1,0.5c0.2,0,0.4,0,0.6-0.1c0.2-0.1,0.3-0.2,0.5-0.4
							c0.1-0.2,0.2-0.3,0.3-0.6C53.1,39.8,53.2,39.5,53.2,39.3z"/>
					</g>
					<g>
						<path class="st378" d="M56.8,37.6c-0.1,0-0.2,0-0.4,0c-0.4,0-0.7,0.2-0.9,0.6c-0.1,0.3-0.2,0.7-0.2,1.1v2c0,0.1,0,0.1-0.1,0.1
							h-0.3c-0.1,0-0.1,0-0.1-0.1v-3.2c0-0.2,0-0.3,0-0.5c0-0.1,0-0.2,0-0.4c0-0.1,0-0.1,0.1-0.1h0.3c0.1,0,0.1,0,0.1,0.1V38
							c0.3-0.7,0.6-1,1.1-1c0.1,0,0.2,0,0.4,0c0,0,0.1,0,0.1,0.1s0,0.1,0,0.1L56.8,37.6C56.9,37.6,56.9,37.6,56.8,37.6
							C56.8,37.7,56.8,37.7,56.8,37.6z"/>
					</g>
					<g>
						<path class="st378" d="M57.9,39.4c0,0.3,0,0.5,0.1,0.7s0.2,0.4,0.3,0.5s0.3,0.2,0.4,0.3c0.2,0.1,0.4,0.1,0.6,0.1
							c0.2,0,0.4,0,0.6-0.1c0.2,0,0.4-0.1,0.5-0.2c0.1,0,0.1,0,0.1,0.1v0.4c0,0,0,0.1-0.1,0.1c-0.2,0.1-0.4,0.1-0.5,0.2
							c-0.2,0-0.4,0.1-0.6,0.1c-0.6,0-1.1-0.2-1.5-0.6c-0.3-0.4-0.5-0.9-0.5-1.7c0-0.7,0.2-1.2,0.5-1.6s0.8-0.6,1.3-0.6
							c0.3,0,0.5,0.1,0.8,0.2c0.2,0.1,0.4,0.3,0.5,0.5c0.3,0.4,0.4,0.9,0.4,1.5c0,0.1,0,0.1,0,0.2v0.1c0,0,0,0-0.1,0
							c0,0-0.1,0-0.2,0h-2.6V39.4z M60.2,39c0-0.2,0-0.4-0.1-0.6c0-0.2-0.1-0.3-0.2-0.5c-0.2-0.3-0.5-0.5-0.8-0.5
							c-0.4,0-0.7,0.2-0.9,0.5C58.1,38,58,38.2,58,38.4c-0.1,0.2-0.1,0.4-0.1,0.5L60.2,39L60.2,39z"/>
					</g>
					<g>
						<path class="st378" d="M62.1,37.8C62,37.8,62,37.8,62.1,37.8C62,37.8,62,37.8,62.1,37.8L62,37.5c0-0.1,0-0.1,0.1-0.2
							c0.2-0.1,0.4-0.2,0.6-0.2c0.2,0,0.4-0.1,0.7-0.1c0.5,0,0.9,0.1,1.1,0.4s0.4,0.6,0.4,1.1v2c0,0.2,0,0.3,0,0.4s0,0.2,0,0.4
							c0,0.1,0,0.1-0.1,0.1h-0.3c-0.1,0-0.1,0-0.1-0.1v-0.6c-0.1,0.3-0.3,0.5-0.6,0.6c-0.3,0.1-0.5,0.2-0.8,0.2
							c-0.5,0-0.9-0.2-1.2-0.5c-0.1-0.1-0.1-0.2-0.2-0.4s-0.1-0.3-0.1-0.4c0-0.3,0.1-0.6,0.2-0.8c0.1-0.2,0.4-0.4,0.7-0.5
							c0.4-0.1,0.9-0.2,1.7-0.2h0.1v-0.2c0-0.3-0.1-0.6-0.2-0.7c-0.1-0.2-0.4-0.3-0.7-0.3c-0.2,0-0.5,0-0.7,0.1
							C62.4,37.6,62.2,37.7,62.1,37.8z M64.3,39.2L64.3,39.2c-0.4,0-0.6,0-0.9,0c-0.2,0-0.4,0.1-0.6,0.1c-0.2,0.1-0.4,0.2-0.5,0.3
							s-0.2,0.3-0.2,0.5c0,0.1,0,0.3,0.1,0.4c0,0.1,0.1,0.2,0.2,0.3c0.2,0.1,0.4,0.2,0.6,0.2c0.2,0,0.3,0,0.5-0.1s0.3-0.2,0.4-0.3
							c0.1-0.1,0.2-0.3,0.3-0.5s0.1-0.4,0.1-0.7V39.2z"/>
					</g>
					<g>
						<path class="st378" d="M74.3,41.3C74.3,41.4,74.3,41.4,74.3,41.3l-0.5,0.1c-0.1,0-0.1,0-0.1-0.1v-5.2c-0.4,1-0.7,1.8-1,2.6
							c-0.1,0.3-0.3,0.6-0.4,0.9s-0.2,0.6-0.3,0.8s-0.2,0.4-0.2,0.6c-0.1,0.2-0.1,0.2-0.1,0.2c0,0.1-0.1,0.1-0.1,0.1h-0.4h-0.1
							c0,0,0,0,0-0.1L68.9,36v5.2c0,0.1,0,0.1-0.1,0.1h-0.4c-0.1,0-0.1,0-0.1-0.1v-5.5c0-0.1,0-0.2,0-0.2s0.1,0,0.2,0h0.6h0.1
							c0,0,0,0,0,0.1l2.1,5l2-5.1c0-0.1,0.1-0.1,0.1-0.1H74c0.1,0,0.2,0,0.2,0s0,0.1,0,0.2v5.7C74.2,41.3,74.3,41.3,74.3,41.3z"/>
					</g>
					<g>
						<path class="st378" d="M79.5,39.3c0,0.3,0,0.6-0.1,0.9s-0.2,0.5-0.4,0.7c-0.2,0.2-0.4,0.4-0.7,0.5c-0.3,0.1-0.5,0.2-0.9,0.2
							s-0.6-0.1-0.9-0.2s-0.5-0.3-0.7-0.5c-0.1-0.2-0.3-0.4-0.3-0.7c-0.1-0.3-0.1-0.5-0.1-0.9c0-0.6,0.2-1.1,0.5-1.5
							c0.4-0.5,0.9-0.7,1.5-0.7c0.3,0,0.6,0.1,0.9,0.2s0.5,0.3,0.6,0.5C79.4,38.2,79.5,38.7,79.5,39.3z M79,39.3
							c0-0.2,0-0.5-0.1-0.7s-0.2-0.4-0.3-0.6c-0.3-0.3-0.6-0.5-1.1-0.5c-0.2,0-0.4,0-0.6,0.1s-0.3,0.2-0.5,0.4
							c-0.1,0.2-0.2,0.4-0.3,0.6S76,39,76,39.3c0,0.2,0,0.5,0.1,0.7s0.2,0.4,0.3,0.6c0.3,0.3,0.6,0.5,1.1,0.5c0.2,0,0.4,0,0.6-0.1
							s0.3-0.2,0.5-0.4c0.1-0.2,0.2-0.3,0.3-0.6C78.9,39.8,79,39.5,79,39.3z"/>
					</g>
					<g>
						<path class="st378" d="M82.1,41.3c0,0.1-0.1,0.1-0.2,0.1h-0.4c-0.1,0-0.1,0-0.1-0.1l-1.4-4v-0.1c0,0,0,0,0.1,0h0.4
							c0.1,0,0.1,0,0.1,0.1l1.2,3.6l1.2-3.6c0,0,0-0.1,0.1-0.1h0.1h0.3h0.1c0,0,0,0,0,0.1L82.1,41.3z"/>
					</g>
					<g>
						<path class="st378" d="M84.6,39.4c0,0.3,0,0.5,0.1,0.7s0.2,0.4,0.3,0.5c0.1,0.1,0.3,0.2,0.4,0.3C85.6,41,85.8,41,86,41
							s0.4,0,0.6-0.1c0.2,0,0.4-0.1,0.5-0.2c0.1,0,0.1,0,0.1,0.1v0.4c0,0,0,0.1-0.1,0.1c-0.2,0.1-0.4,0.1-0.5,0.2
							c-0.2,0-0.4,0.1-0.6,0.1c-0.6,0-1.1-0.2-1.5-0.6c-0.3-0.4-0.5-0.9-0.5-1.7c0-0.7,0.2-1.2,0.5-1.6s0.8-0.6,1.3-0.6
							c0.3,0,0.5,0.1,0.8,0.2c0.2,0.1,0.4,0.3,0.5,0.5c0.3,0.4,0.4,0.9,0.4,1.5c0,0.1,0,0.1,0,0.2v0.1c0,0,0,0-0.1,0
							c0,0-0.1,0-0.2,0h-2.6L84.6,39.4L84.6,39.4z M87,39c0-0.2,0-0.4-0.1-0.6c0-0.2-0.1-0.3-0.2-0.5c-0.2-0.3-0.5-0.5-0.8-0.5
							c-0.4,0-0.7,0.2-0.9,0.5c-0.1,0.1-0.2,0.3-0.2,0.5c-0.1,0.2-0.1,0.4-0.1,0.5L87,39L87,39z"/>
					</g>
					<g>
						<path class="st378" d="M91.3,41.4h-0.4c-0.1,0-0.1,0-0.1-0.1v-5.6c0-0.1,0-0.1,0.1-0.1h0.4c0.1,0,0.1,0,0.1,0.1L91.3,41.4
							C91.4,41.4,91.3,41.4,91.3,41.4z"/>
					</g>
					<g>
						<path class="st378" d="M92.7,38.2c0-0.2,0-0.4,0-0.5s0-0.2,0-0.4c0-0.1,0-0.1,0.1-0.1h0.3c0.1,0,0.1,0,0.1,0.1v0.4
							c0.1-0.2,0.3-0.3,0.5-0.5c0.2-0.1,0.5-0.2,0.7-0.2c0.3,0,0.6,0.1,0.8,0.2c0.2,0.2,0.4,0.4,0.4,0.7c0.1-0.3,0.3-0.5,0.5-0.7
							s0.5-0.2,0.8-0.2c0.2,0,0.4,0,0.6,0.1s0.3,0.2,0.4,0.3s0.2,0.3,0.3,0.4c0.1,0.2,0.1,0.4,0.1,0.5v2.8c0,0.1,0,0.1-0.1,0.1H98
							c-0.1,0-0.1,0-0.1-0.1v-2.7c0-0.7-0.3-1.1-0.9-1.1c-0.2,0-0.3,0-0.5,0.1c-0.1,0.1-0.3,0.2-0.4,0.3s-0.2,0.3-0.2,0.5
							s-0.1,0.4-0.1,0.6V41c0,0.1,0,0.1-0.1,0.1h-0.3c-0.1,0-0.1,0-0.1-0.1v-2.7c0-0.7-0.3-1.1-0.9-1.1c-0.4,0-0.6,0.1-0.8,0.3
							c-0.2,0.2-0.3,0.5-0.3,0.9v2.5c0,0.1,0,0.1-0.1,0.1h-0.3c-0.1,0-0.1,0-0.1-0.1L92.7,38.2L92.7,38.2z"/>
					</g>
					<g>
						<path class="st378" d="M99.7,37.3C99.7,37.2,99.7,37.2,99.7,37.3l0.4-0.1c0.1,0,0.1,0,0.1,0.1v0.6c0.1-0.2,0.3-0.4,0.5-0.6
							c0.2-0.1,0.5-0.2,0.9-0.2c0.3,0,0.6,0.1,0.8,0.2s0.4,0.3,0.5,0.4c0.1,0.2,0.2,0.4,0.3,0.7c0.1,0.3,0.1,0.5,0.1,0.8
							s0,0.6-0.1,0.9s-0.2,0.5-0.3,0.7c-0.1,0.2-0.3,0.4-0.5,0.5s-0.5,0.2-0.7,0.2c-0.3,0-0.6-0.1-0.8-0.2c-0.2-0.1-0.4-0.3-0.5-0.5
							v1.7c0,0.1,0,0.1-0.1,0.1H100h-0.1c0,0,0,0,0-0.1v-5.2C99.9,37.3,99.7,37.3,99.7,37.3z M102.7,39.2c0-0.2,0-0.4-0.1-0.6
							c0-0.2-0.1-0.4-0.2-0.5s-0.2-0.3-0.4-0.4c-0.2-0.1-0.4-0.1-0.6-0.1s-0.4,0-0.6,0.1s-0.3,0.2-0.4,0.4s-0.2,0.3-0.2,0.5
							s-0.1,0.4-0.1,0.6c0,0.6,0.1,1.1,0.3,1.4c0.2,0.3,0.5,0.5,0.9,0.5c0.2,0,0.4,0,0.5-0.1s0.3-0.2,0.4-0.4s0.2-0.4,0.2-0.6
							S102.7,39.5,102.7,39.2z"/>
					</g>
					<g>
						<path class="st378" d="M105,41.4h-0.3c-0.1,0-0.1,0-0.1-0.1v-6c0-0.1,0-0.1,0.1-0.1h0.3c0.1,0,0.1,0,0.1,0.1L105,41.4
							C105.1,41.4,105,41.4,105,41.4z"/>
					</g>
					<g>
						<path class="st378" d="M106.7,39.4c0,0.3,0,0.5,0.1,0.7s0.2,0.4,0.3,0.5c0.1,0.1,0.3,0.2,0.4,0.3c0.2,0.1,0.4,0.1,0.6,0.1
							s0.4,0,0.6-0.1c0.2,0,0.4-0.1,0.5-0.2c0.1,0,0.1,0,0.1,0.1v0.4c0,0,0,0.1-0.1,0.1c-0.2,0.1-0.4,0.1-0.5,0.2
							c-0.2,0-0.4,0.1-0.6,0.1c-0.6,0-1.1-0.2-1.5-0.6c-0.3-0.4-0.5-0.9-0.5-1.7c0-0.7,0.2-1.2,0.5-1.6s0.8-0.6,1.3-0.6
							c0.3,0,0.5,0.1,0.8,0.2c0.2,0.1,0.4,0.3,0.5,0.5c0.3,0.4,0.4,0.9,0.4,1.5c0,0.1,0,0.1,0,0.2v0.1c0,0,0,0-0.1,0
							c0,0-0.1,0-0.2,0h-2.6L106.7,39.4L106.7,39.4z M109,39c0-0.2,0-0.4-0.1-0.6c0-0.2-0.1-0.3-0.2-0.5c-0.2-0.3-0.5-0.5-0.8-0.5
							c-0.4,0-0.7,0.2-0.9,0.5c-0.1,0.1-0.2,0.3-0.2,0.5c-0.1,0.2-0.1,0.4-0.1,0.5L109,39L109,39z"/>
					</g>
					<g>
						<path class="st378" d="M110.6,38.2c0-0.2,0-0.4,0-0.5s0-0.2,0-0.4c0-0.1,0-0.1,0.1-0.1h0.3c0.1,0,0.1,0,0.1,0.1v0.4
							c0.1-0.2,0.3-0.3,0.5-0.5c0.2-0.1,0.5-0.2,0.7-0.2c0.3,0,0.6,0.1,0.8,0.2s0.4,0.4,0.4,0.7c0.1-0.3,0.3-0.5,0.5-0.7
							s0.5-0.2,0.8-0.2c0.2,0,0.4,0,0.5,0.1c0.2,0.1,0.3,0.2,0.4,0.3s0.2,0.3,0.3,0.4s0.1,0.4,0.1,0.5v2.8c0,0.1,0,0.1-0.1,0.1h-0.3
							c-0.1,0-0.1,0-0.1-0.1v-2.7c0-0.7-0.3-1.1-0.9-1.1c-0.2,0-0.3,0-0.5,0.1c-0.1,0.1-0.3,0.2-0.4,0.3s-0.2,0.3-0.2,0.5
							s-0.1,0.4-0.1,0.6V41c0,0.1,0,0.1-0.1,0.1h-0.3c-0.1,0-0.1,0-0.1-0.1v-2.7c0-0.7-0.3-1.1-0.9-1.1c-0.4,0-0.6,0.1-0.8,0.3
							c-0.2,0.2-0.3,0.5-0.3,0.9v2.5c0,0.1,0,0.1-0.1,0.1h-0.3c-0.1,0-0.1,0-0.1-0.1L110.6,38.2L110.6,38.2z"/>
					</g>
					<g>
						<path class="st378" d="M118,39.4c0,0.3,0,0.5,0.1,0.7s0.2,0.4,0.3,0.5c0.1,0.1,0.3,0.2,0.4,0.3c0.2,0.1,0.4,0.1,0.6,0.1
							s0.4,0,0.6-0.1c0.2,0,0.4-0.1,0.5-0.2c0.1,0,0.1,0,0.1,0.1v0.4c0,0,0,0.1-0.1,0.1c-0.2,0.1-0.4,0.1-0.5,0.2
							c-0.2,0-0.4,0.1-0.6,0.1c-0.6,0-1.1-0.2-1.5-0.6c-0.3-0.4-0.5-0.9-0.5-1.7c0-0.7,0.2-1.2,0.5-1.6s0.8-0.6,1.3-0.6
							c0.3,0,0.5,0.1,0.8,0.2c0.2,0.1,0.4,0.3,0.5,0.5c0.3,0.4,0.4,0.9,0.4,1.5c0,0.1,0,0.1,0,0.2v0.1c0,0,0,0-0.1,0
							c0,0-0.1,0-0.2,0H118V39.4z M120.3,39c0-0.2,0-0.4-0.1-0.6c0-0.2-0.1-0.3-0.2-0.5c-0.2-0.3-0.5-0.5-0.8-0.5
							c-0.4,0-0.7,0.2-0.9,0.5c-0.1,0.1-0.2,0.3-0.2,0.5c-0.1,0.2-0.1,0.4-0.1,0.5L120.3,39L120.3,39z"/>
					</g>
					<g>
						<path class="st378" d="M125.3,41.3C125.3,41.4,125.3,41.4,125.3,41.3l-0.4,0.1c-0.1,0-0.1,0-0.1-0.1v-2.5c0-0.5-0.1-0.8-0.3-1
							s-0.4-0.3-0.7-0.3c-0.4,0-0.7,0.1-1,0.4c-0.2,0.2-0.3,0.6-0.3,1v2.4c0,0.1,0,0.1-0.1,0.1h-0.3c-0.1,0-0.1,0-0.1-0.1v-3.1
							c0-0.2,0-0.4,0-0.5s0-0.2,0-0.4v-0.1h0.1h0.3c0.1,0,0.1,0,0.1,0.1v0.4c0.1-0.2,0.3-0.4,0.5-0.5s0.5-0.2,0.8-0.2
							c0.5,0,0.9,0.1,1.1,0.4c0.3,0.3,0.4,0.7,0.4,1.2V41.3z"/>
					</g>
					<g>
						<path class="st378" d="M128.7,41.4c-0.2,0.1-0.4,0.1-0.6,0.1c-0.4,0-0.7-0.1-0.8-0.4c-0.1-0.2-0.1-0.5-0.1-1v-2.5h-0.7
							c-0.1,0-0.1,0-0.1-0.1v-0.2c0-0.1,0-0.1,0.1-0.1h0.7v-1.1c0-0.1,0-0.1,0.1-0.1h0.3c0.1,0,0.1,0,0.1,0.1v1.1h0.9
							c0.1,0,0.1,0,0.1,0.1v0.2c0,0.1,0,0.1-0.1,0.1h-0.9v2.8c0,0.5,0.2,0.7,0.6,0.7c0.1,0,0.3,0,0.5-0.1h0.1c0,0,0,0,0,0.1v0.2
							C128.8,41.3,128.7,41.4,128.7,41.4z"/>
					</g>
				</g>
				<g>
					<g>
						<path class="st379" d="M81.6,22.2H71.5l0.3-3.1h10.1L81.6,22.2z"/>
					</g>
					<g>
						<path class="st379" d="M106.8,29.8v-1.4c1.6-0.2,1.9-0.4,1.9-2.8v-6.9c0-3.3-1.6-3.9-2.8-3.9c-0.8,0-1.7,0.2-3,1.2
							c0,0.5,0.1,1.1,0.1,1.7v8.1c0,2.2,0.1,2.4,2,2.7v1.4h-9v-1.4c1.8-0.2,1.9-0.4,1.9-2.7v-7.3c0-2.8-1.1-3.8-2.6-3.8
							c-1,0-2,0.4-3.1,1.2v9.8c0,2.2,0.2,2.4,1.7,2.7v1.4h-9.2v-1.4c2.2-0.3,2.3-0.4,2.3-2.8v-8.5c0-2.2,0-2.6-1.9-2.9v-1.3
							c2.2-0.2,4.5-0.8,7-1.5c0,1,0,2.1,0,3c0.9-0.6,1.6-1.1,2.4-1.6c1.2-0.8,2.2-1.2,3.4-1.2c2.2,0,3.7,1.2,4.5,3
							c1-0.7,1.8-1.3,2.8-2c0.9-0.6,2-1.1,3.2-1.1c3.5,0,5.3,2.4,5.3,6.4v7.8c0,2.2,0.2,2.4,2.2,2.7v1.4L106.8,29.8L106.8,29.8z"/>
					</g>
					<g>
						<path class="st379" d="M118,29.8v-1.4c2.2-0.3,2.4-0.4,2.4-3.3v-7.7c0-2.7-0.2-2.8-2.1-3.1V13c2.5-0.3,5-0.8,7.2-1.4
							c0,1.7,0,3.3,0,5v8.7c0,2.7,0.2,3,2.5,3.3V30h-10V29.8z M122.7,9.1c-1.5,0-2.9-1.3-2.9-2.8c0-1.6,1.4-2.8,2.9-2.8
							c1.6,0,2.9,1.2,2.9,2.8S124.3,9.1,122.7,9.1z"/>
					</g>
					<g>
						<g>
							<path class="st380" d="M49.6,0"/>
						</g>
						<g>
							<path class="st380" d="M43.9,28.4v1.5h12.2v-1.5c-3.1-0.4-3.4-0.5-3.4-3.9v-1.1c-1.6,0.9-3.5,1.3-5.4,1.1l0,0
								C47.3,27.9,46.9,28.1,43.9,28.4z"/>
						</g>
						<g>
							<path class="st380" d="M57.8,16.3c-0.2,0.6-0.4,1.9-0.5,1.9l0,0c-0.3,0.8-0.7,1.5-1.2,2.2c2.6,3.6,5.4,7.5,6.9,9.5h8v-1.5
								c-2-0.3-2.6-0.6-4-2.5c-2.9-3.7-5.9-7.8-8.4-11.2c-0.1,0.2-0.2,0.3-0.2,0.5C58.2,15.1,58,15.7,57.8,16.3z"/>
						</g>
						<g>
							<path class="st381" d="M38.7,13.1"/>
						</g>
						<g>
							<path class="st381" d="M49.6,0"/>
						</g>
						<g>
							<path class="st381" d="M43.8,4"/>
						</g>
						<g>
							<path class="st381" d="M52.7,23.3v-5.9c0.6-0.1,1.3,0.1,2.1,1.3c0.4,0.5,0.8,1.1,1.2,1.7c0.5-0.7,0.9-1.4,1.2-2.2l0,0
								c0.1,0,0.4-1.2,0.5-1.9c0.2-0.6,0.4-1.2,0.4-1.2c0.1-0.2,0.2-0.3,0.2-0.5c-0.1-0.2-0.2-0.3-0.3-0.5c1.8-1.9,3.7-3.9,5.3-5.6
								c2.5-2.7,4-2.9,6.8-3.3V3.7H59.7v1.5l0.8,0.1c1.8,0.2,2.1,0.8,1.1,2.1c-1.2,1.5-3,3.7-5.7,6.4c-1.3,1.2-2.3,1.9-3.1,2.1V9.2
								c0-3.4,0.4-3.6,3.3-3.9V3.8H43.9v1.5c3,0.3,3.4,0.6,3.4,3.9v15.2C49.3,24.6,51.1,24.2,52.7,23.3z"/>
						</g>
					</g>
				</g>
			</g>
		</g>
	</g>
</g>
</svg>
