<?xml version="1.0" encoding="utf-8"?>
<!-- Generator: Adobe Illustrator 24.3.0, SVG Export Plug-In . SVG Version: 6.00 Build 0)  -->
<svg version="1.1" id="레이어_1" xmlns="http://www.w3.org/2000/svg" xmlns:xlink="http://www.w3.org/1999/xlink" x="0px"
	 y="0px" viewBox="0 0 189 94" style="enable-background:new 0 0 189 94;" xml:space="preserve">
<style type="text/css">
	.st0{fill:url(#SVGID_1_);}
	.st1{fill:url(#SVGID_2_);}
	.st2{fill:url(#SVGID_3_);}
	.st3{fill:url(#SVGID_4_);}
	.st4{fill:#2D2929;}
	.st5{fill:#004DC6;}
	.st6{fill:#FF3553;}
</style>
<g>
	
		<radialGradient id="SVGID_1_" cx="36.7534" cy="1062.7693" r="27.1387" gradientTransform="matrix(1 0 0 1 0 -1035.2126)" gradientUnits="userSpaceOnUse">
		<stop  offset="0" style="stop-color:#C9E946"/>
		<stop  offset="1" style="stop-color:#6BB831"/>
	</radialGradient>
	<path class="st0" d="M50.64,49.2c3.36-0.84,5.74,0.14,5.46-5.04c-0.42-6.02-9.1-20.73-24.93-19.89
		C11.7,25.39,45.73,42.48,46.99,46.4C48.11,50.32,50.64,49.2,50.64,49.2z"/>
	
		<radialGradient id="SVGID_2_" cx="-10119.6582" cy="-7146.7402" r="37.3467" gradientTransform="matrix(0 1 -1 0 -7103.0703 10194.085)" gradientUnits="userSpaceOnUse">
		<stop  offset="0" style="stop-color:#C9E946"/>
		<stop  offset="1" style="stop-color:#6BB831"/>
	</radialGradient>
	<path class="st1" d="M18.14,27.91c-3.64,1.4-5.46,12.88,10.64,29.27c0.14,0.14,17.23,17.23,26.75,2.1
		c1.26-5.18-6.16,4.2-16.81-7.98c-5.04-5.74-4.34-17.65-3.5-23.25c0,0-3.08-2.66-8.82-1.96C20.52,26.65,18.14,27.91,18.14,27.91z"/>
	
		<radialGradient id="SVGID_3_" cx="22.5566" cy="1070.8804" r="60.7032" gradientTransform="matrix(1 0 0 1 0 -1035.2126)" gradientUnits="userSpaceOnUse">
		<stop  offset="0" style="stop-color:#00D1FF"/>
		<stop  offset="1" style="stop-color:#0073FF"/>
	</radialGradient>
	<path class="st2" d="M26.13,31.13c4.76,5.04,6.16,11.2,11.06,15.97c1.26,1.26,4.48,4.2,7.98,5.74c6.16,2.94,10.5,0.98,11.06-5.04
		c0.14-1.26,0-2.38-0.14-3.64c-0.98,3.64-4.76,1.4-7.42-1.68c-1.82-2.1-4.06-6.86-5.74-10.78c-1.54-3.5-3.92-6.3-7-7
		c-3.92-0.56-5.88-0.42-9.24,0c-0.7,0.14-1.26,0.28-1.82,0.42c-3.22,0.84-4.48,1.68-6.72,2.8C19.26,27.35,21.93,26.51,26.13,31.13z"
		/>
	
		<radialGradient id="SVGID_4_" cx="22.5568" cy="1070.8805" r="60.7029" gradientTransform="matrix(1 0 0 1 0 -1035.2126)" gradientUnits="userSpaceOnUse">
		<stop  offset="0" style="stop-color:#00D1FF"/>
		<stop  offset="1" style="stop-color:#0073FF"/>
	</radialGradient>
	<path class="st3" d="M55.4,59.28c-5.04,5.46-18.07,4.62-36.97-18.21C12.4,33.79,8.2,37.29,6.66,41.49c-0.7,1.96-0.98,3.5-1.26,4.9
		c-0.14,0.56-0.28,1.96-0.28,1.96c-0.7,7.42,1.68,15.27,7.42,21.01c9.24,9.24,23.95,10.08,34.17,2.24c0.14-0.14,0.28-0.14,0.42-0.28
		C50.92,68.24,53.86,64.04,55.4,59.28z"/>
</g>
<g>
	<path class="st4" d="M119.26,51.86h-14.15l0.42-4.34h14.15L119.26,51.86z"/>
	<path class="st4" d="M154.55,62.64v-1.96c2.24-0.28,2.66-0.56,2.66-3.92V47.1c0-4.62-2.24-5.46-3.92-5.46
		c-1.12,0-2.38,0.28-4.2,1.68c0,0.7,0.14,1.54,0.14,2.38v11.34c0,3.08,0.14,3.36,2.8,3.78v1.96h-12.6v-1.96
		c2.52-0.28,2.66-0.56,2.66-3.78V46.82c0-3.92-1.54-5.32-3.64-5.32c-1.4,0-2.8,0.56-4.34,1.68V56.9c0,3.08,0.28,3.36,2.38,3.78v1.96
		H123.6v-1.96c3.08-0.42,3.22-0.56,3.22-3.92v-11.9c0-3.08,0-3.64-2.66-4.06v-1.82c3.08-0.28,6.3-1.12,9.8-2.1c0,1.4,0,2.94,0,4.2
		c1.26-0.84,2.24-1.54,3.36-2.24c1.68-1.12,3.08-1.68,4.76-1.68c3.08,0,5.18,1.68,6.3,4.2c1.4-0.98,2.52-1.82,3.92-2.8
		c1.26-0.84,2.8-1.54,4.48-1.54c4.9,0,7.42,3.36,7.42,8.96V56.9c0,3.08,0.28,3.36,3.08,3.78v1.96
		C167.3,62.64,154.55,62.64,154.55,62.64z"/>
	<path class="st4" d="M170.24,62.64v-1.96c3.08-0.42,3.36-0.56,3.36-4.62V45.14c0-3.78-0.28-3.92-2.94-4.34v-1.82
		c3.5-0.42,7-1.12,10.08-1.96c0,2.38,0,4.62,0,7V56.2c0,3.78,0.28,4.2,3.5,4.62v1.96h-14.01V62.64z M176.82,33.65
		c-2.1,0-4.06-1.82-4.06-3.92c0-2.24,1.96-3.92,4.06-3.92c2.24,0,4.06,1.68,4.06,3.92C180.88,31.83,179.06,33.65,176.82,33.65z"/>
	<g>
		<path class="st5" d="M74.44,20.77"/>
		<path class="st5" d="M66.46,60.54v2.1h17.09v-2.1c-4.34-0.56-4.76-0.7-4.76-5.46v-1.54c-2.24,1.26-4.9,1.82-7.56,1.54l0,0
			C71.22,59.84,70.66,60.12,66.46,60.54z"/>
		<path class="st5" d="M85.93,43.6c-0.28,0.84-0.56,2.66-0.7,2.66l0,0c-0.42,1.12-0.98,2.1-1.68,3.08c3.64,5.04,7.56,10.5,9.66,13.3
			h11.2v-2.1c-2.8-0.42-3.64-0.84-5.6-3.5c-4.06-5.18-8.26-10.92-11.76-15.69c-0.14,0.28-0.28,0.42-0.28,0.7
			C86.49,41.92,86.21,42.76,85.93,43.6z"/>
		<path class="st6" d="M59.18,39.11"/>
		<path class="st6" d="M74.44,20.77"/>
		<path class="st6" d="M66.32,26.37"/>
		<path class="st6" d="M78.79,53.54v-8.26c0.84-0.14,1.82,0.14,2.94,1.82c0.56,0.7,1.12,1.54,1.68,2.38
			c0.7-0.98,1.26-1.96,1.68-3.08l0,0c0.14,0,0.56-1.68,0.7-2.66c0.28-0.84,0.56-1.68,0.56-1.68c0.14-0.28,0.28-0.42,0.28-0.7
			c-0.14-0.28-0.28-0.42-0.42-0.7c2.52-2.66,5.18-5.46,7.42-7.84c3.5-3.78,5.6-4.06,9.52-4.62v-1.96H88.59v2.1l1.12,0.14
			c2.52,0.28,2.94,1.12,1.54,2.94c-1.68,2.1-4.2,5.18-7.98,8.96c-1.82,1.68-3.22,2.66-4.34,2.94v-9.52c0-4.76,0.56-5.04,4.62-5.46
			v-2.1H66.46v2.1c4.2,0.42,4.76,0.84,4.76,5.46v21.29C74.02,55.22,76.54,54.66,78.79,53.54z"/>
	</g>
</g>
</svg>
