<?xml version="1.0" encoding="utf-8"?>
<!-- Generator: Adobe Illustrator 24.0.0, SVG Export Plug-In . SVG Version: 6.00 Build 0)  -->
<svg version="1.1" id="Layer_1" xmlns="http://www.w3.org/2000/svg" xmlns:xlink="http://www.w3.org/1999/xlink" x="0px" y="0px"
	 viewBox="0 0 212.6 42.6" style="enable-background:new 0 0 212.6 42.6;" xml:space="preserve">
<style type="text/css">
	.st0{fill:url(#SVGID_1_);}
	.st1{fill:url(#SVGID_2_);}
	.st2{fill:url(#SVGID_3_);}
	.st3{fill:url(#SVGID_4_);}
	.st4{fill:#7F7F7F;}
	.st5{fill:#2D2929;}
	.st6{fill:#004DC6;}
	.st7{fill:#FF3553;}
	.st8{enable-background:new    ;}
	.st9{fill:#474444;}
</style>
<g>
	<g>
		<g>
			
				<radialGradient id="SVGID_1_" cx="22.6879" cy="39.9397" r="19.3778" gradientTransform="matrix(1 0 0 -1 0 44.7874)" gradientUnits="userSpaceOnUse">
				<stop  offset="0" style="stop-color:#C9E946"/>
				<stop  offset="1" style="stop-color:#6BB831"/>
			</radialGradient>
			<path class="st0" d="M32.6,20.3c2.4-0.6,4.1,0.1,3.9-3.6C36.2,12.4,30,1.9,18.7,2.5C4.8,3.3,29.1,15.5,30,18.3
				C30.8,21.1,32.6,20.3,32.6,20.3z"/>
			
				<radialGradient id="SVGID_2_" cx="-9799.7705" cy="6842.6968" r="26.6666" gradientTransform="matrix(0 1 1 0 -6815.0703 9838.085)" gradientUnits="userSpaceOnUse">
				<stop  offset="0" style="stop-color:#C9E946"/>
				<stop  offset="1" style="stop-color:#6BB831"/>
			</radialGradient>
			<path class="st1" d="M9.4,5.1C6.8,6.1,5.5,14.3,17,26c0.1,0.1,12.3,12.3,19.1,1.5c0.9-3.7-4.4,3-12-5.7
				C20.5,17.7,21,9.2,21.6,5.2c0,0-2.2-1.9-6.3-1.4C11.1,4.2,9.4,5.1,9.4,5.1z"/>
			
				<radialGradient id="SVGID_3_" cx="12.551" cy="34.1482" r="43.3438" gradientTransform="matrix(1 0 0 -1 0 44.7874)" gradientUnits="userSpaceOnUse">
				<stop  offset="0" style="stop-color:#00D1FF"/>
				<stop  offset="1" style="stop-color:#0073FF"/>
			</radialGradient>
			<path class="st2" d="M15.1,7.4c3.4,3.6,4.4,8,7.9,11.4c0.9,0.9,3.2,3,5.7,4.1c4.4,2.1,7.5,0.7,7.9-3.6c0.1-0.9,0-1.7-0.1-2.6
				c-0.7,2.6-3.4,1-5.3-1.2c-1.3-1.5-2.9-4.9-4.1-7.7c-1.1-2.5-2.8-4.5-5-5c-2.8-0.4-4.2-0.3-6.6,0C15,2.9,14.6,3,14.2,3.1
				c-2.3,0.6-3.2,1.2-4.8,2C10.2,4.7,12.1,4.1,15.1,7.4z"/>
			
				<radialGradient id="SVGID_4_" cx="12.5511" cy="34.1481" r="43.3436" gradientTransform="matrix(1 0 0 -1 0 44.7874)" gradientUnits="userSpaceOnUse">
				<stop  offset="0" style="stop-color:#00D1FF"/>
				<stop  offset="1" style="stop-color:#0073FF"/>
			</radialGradient>
			<path class="st3" d="M36,27.5c-3.6,3.9-12.9,3.3-26.4-13c-4.3-5.2-7.3-2.7-8.4,0.3c-0.5,1.4-0.7,2.5-0.9,3.5
				c-0.1,0.4-0.2,1.4-0.2,1.4c-0.5,5.3,1.2,10.9,5.3,15c6.6,6.6,17.1,7.2,24.4,1.6c0.1-0.1,0.2-0.1,0.3-0.2
				C32.8,33.9,34.9,30.9,36,27.5z"/>
		</g>
		<g>
			<g>
				<path class="st4" d="M46.5,38.6l-0.8,0.9v1.9c0,0.1,0,0.1-0.1,0.1h-0.3c-0.1,0-0.1,0-0.1-0.1v-5.6c0-0.1,0-0.1,0.1-0.1h0.3
					c0.1,0,0.1,0,0.1,0.1v3l2.4-3c0.1-0.1,0.2-0.1,0.3-0.1h0.4h0.1c0,0,0,0,0,0.1l-2,2.4l2.2,3.2c0,0.1,0,0.1,0,0.1h-0.4
					c-0.1,0-0.1,0-0.1,0s-0.1,0-0.1-0.1L46.5,38.6z"/>
				<path class="st4" d="M53.7,39.3c0,0.3,0,0.6-0.1,0.9c-0.1,0.3-0.2,0.5-0.4,0.7s-0.4,0.4-0.7,0.5s-0.5,0.2-0.9,0.2
					s-0.6-0.1-0.9-0.2c-0.3-0.1-0.5-0.3-0.7-0.5c-0.1-0.2-0.3-0.4-0.3-0.7c-0.1-0.3-0.1-0.5-0.1-0.9c0-0.6,0.2-1.1,0.5-1.5
					c0.4-0.5,0.9-0.7,1.5-0.7c0.3,0,0.6,0.1,0.9,0.2c0.2,0.1,0.5,0.3,0.6,0.5C53.6,38.2,53.7,38.7,53.7,39.3z M53.2,39.3
					c0-0.2,0-0.5-0.1-0.7s-0.2-0.4-0.3-0.6c-0.3-0.3-0.6-0.5-1.1-0.5c-0.2,0-0.4,0-0.6,0.1c-0.2,0.1-0.3,0.2-0.5,0.4
					c-0.1,0.2-0.2,0.4-0.3,0.6c-0.1,0.2-0.1,0.4-0.1,0.7c0,0.2,0,0.5,0.1,0.7s0.2,0.4,0.3,0.6c0.3,0.3,0.6,0.5,1.1,0.5
					c0.2,0,0.4,0,0.6-0.1c0.2-0.1,0.3-0.2,0.5-0.4c0.1-0.2,0.2-0.3,0.3-0.6C53.1,39.8,53.2,39.6,53.2,39.3z"/>
				<path class="st4" d="M56.8,37.7c-0.1,0-0.2,0-0.4,0c-0.4,0-0.7,0.2-0.9,0.6c-0.1,0.3-0.2,0.7-0.2,1.1v2c0,0.1,0,0.1-0.1,0.1
					h-0.3c-0.1,0-0.1,0-0.1-0.1v-3.2c0-0.2,0-0.3,0-0.5c0-0.1,0-0.2,0-0.4c0-0.1,0-0.1,0.1-0.1h0.3c0.1,0,0.1,0,0.1,0.1v0.8
					c0.3-0.7,0.6-1,1.1-1c0.1,0,0.2,0,0.4,0c0,0,0.1,0,0.1,0.1s0,0.1,0,0.1v0.3C56.9,37.7,56.9,37.7,56.8,37.7L56.8,37.7z"/>
				<path class="st4" d="M57.9,39.5c0,0.3,0,0.5,0.1,0.7s0.2,0.4,0.3,0.5s0.3,0.2,0.4,0.3c0.2,0.1,0.4,0.1,0.6,0.1
					c0.2,0,0.4,0,0.6-0.1c0.2,0,0.4-0.1,0.5-0.2c0.1,0,0.1,0,0.1,0.1v0.4c0,0,0,0.1-0.1,0.1c-0.2,0.1-0.4,0.1-0.5,0.2
					c-0.2,0-0.4,0.1-0.6,0.1c-0.6,0-1.1-0.2-1.5-0.6c-0.3-0.4-0.5-0.9-0.5-1.7c0-0.7,0.2-1.2,0.5-1.6c0.3-0.4,0.8-0.6,1.3-0.6
					c0.3,0,0.5,0.1,0.8,0.2c0.2,0.1,0.4,0.3,0.5,0.5c0.3,0.4,0.4,0.9,0.4,1.5c0,0.1,0,0.1,0,0.2v0.1c0,0,0,0-0.1,0c0,0-0.1,0-0.2,0
					h-2.6V39.5z M60.2,39c0-0.2,0-0.4-0.1-0.6c0-0.2-0.1-0.3-0.2-0.5c-0.2-0.3-0.5-0.5-0.8-0.5c-0.4,0-0.7,0.2-0.9,0.5
					C58.1,38,58,38.2,58,38.4c-0.1,0.2-0.1,0.4-0.1,0.5L60.2,39L60.2,39z"/>
				<path class="st4" d="M62.1,37.9C62,37.9,62,37.9,62.1,37.9C62,37.9,62,37.9,62.1,37.9L62,37.6c0-0.1,0-0.1,0.1-0.2
					c0.2-0.1,0.4-0.2,0.6-0.2c0.2,0,0.4-0.1,0.7-0.1c0.5,0,0.9,0.1,1.1,0.4s0.4,0.6,0.4,1.1v2c0,0.2,0,0.3,0,0.4c0,0.1,0,0.2,0,0.4
					c0,0.1,0,0.1-0.1,0.1h-0.3c-0.1,0-0.1,0-0.1-0.1v-0.6c-0.1,0.3-0.3,0.5-0.6,0.6c-0.3,0.1-0.5,0.2-0.8,0.2
					c-0.5,0-0.9-0.2-1.2-0.5c-0.1-0.1-0.1-0.2-0.2-0.4s-0.1-0.3-0.1-0.4c0-0.3,0.1-0.6,0.2-0.8c0.1-0.2,0.4-0.4,0.7-0.5
					c0.4-0.1,0.9-0.2,1.7-0.2h0.1v-0.2c0-0.3-0.1-0.6-0.2-0.7c-0.1-0.2-0.4-0.3-0.7-0.3c-0.2,0-0.5,0-0.7,0.1
					C62.4,37.7,62.2,37.8,62.1,37.9z M64.3,39.2L64.3,39.2c-0.4,0-0.6,0-0.9,0c-0.2,0-0.4,0.1-0.6,0.1c-0.2,0.1-0.4,0.2-0.5,0.3
					s-0.2,0.3-0.2,0.5c0,0.1,0,0.3,0.1,0.4c0,0.1,0.1,0.2,0.2,0.3c0.2,0.1,0.4,0.2,0.6,0.2c0.2,0,0.3,0,0.5-0.1s0.3-0.2,0.4-0.3
					s0.2-0.3,0.3-0.5s0.1-0.4,0.1-0.7V39.2z"/>
				<path class="st4" d="M74.3,41.3C74.3,41.4,74.3,41.4,74.3,41.3l-0.5,0.1c-0.1,0-0.1,0-0.1-0.1v-5.2c-0.4,1-0.7,1.8-1,2.6
					c-0.1,0.3-0.3,0.6-0.4,0.9c-0.1,0.3-0.2,0.6-0.3,0.8s-0.2,0.4-0.2,0.6c-0.1,0.2-0.1,0.2-0.1,0.2c0,0.1-0.1,0.1-0.1,0.1h-0.4
					h-0.1c0,0,0,0,0-0.1L68.9,36v5.2c0,0.1,0,0.1-0.1,0.1h-0.4c-0.1,0-0.1,0-0.1-0.1v-5.5c0-0.1,0-0.2,0-0.2s0.1,0,0.2,0h0.6h0.1
					c0,0,0,0,0,0.1l2.1,5l2-5.1c0-0.1,0.1-0.1,0.1-0.1H74c0.1,0,0.2,0,0.2,0s0,0.1,0,0.2v5.7H74.3z"/>
				<path class="st4" d="M79.5,39.3c0,0.3,0,0.6-0.1,0.9c-0.1,0.3-0.2,0.5-0.4,0.7c-0.2,0.2-0.4,0.4-0.7,0.5
					c-0.3,0.1-0.5,0.2-0.9,0.2s-0.6-0.1-0.9-0.2c-0.3-0.1-0.5-0.3-0.7-0.5c-0.1-0.2-0.3-0.4-0.3-0.7c-0.1-0.3-0.1-0.5-0.1-0.9
					c0-0.6,0.2-1.1,0.5-1.5c0.4-0.5,0.9-0.7,1.5-0.7c0.3,0,0.6,0.1,0.9,0.2c0.3,0.1,0.5,0.3,0.6,0.5C79.4,38.2,79.5,38.7,79.5,39.3z
					 M79,39.3c0-0.2,0-0.5-0.1-0.7s-0.2-0.4-0.3-0.6c-0.3-0.3-0.6-0.5-1.1-0.5c-0.2,0-0.4,0-0.6,0.1s-0.3,0.2-0.5,0.4
					c-0.1,0.2-0.2,0.4-0.3,0.6S76,39,76,39.3c0,0.2,0,0.5,0.1,0.7s0.2,0.4,0.3,0.6c0.3,0.3,0.6,0.5,1.1,0.5c0.2,0,0.4,0,0.6-0.1
					s0.3-0.2,0.5-0.4c0.1-0.2,0.2-0.3,0.3-0.6C78.9,39.8,79,39.6,79,39.3z"/>
				<path class="st4" d="M82.1,41.3c0,0.1-0.1,0.1-0.2,0.1h-0.4c-0.1,0-0.1,0-0.1-0.1l-1.4-4v-0.1c0,0,0,0,0.1,0h0.4
					c0.1,0,0.1,0,0.1,0.1l1.2,3.6l1.2-3.6c0,0,0-0.1,0.1-0.1h0.1h0.3h0.1c0,0,0,0,0,0.1L82.1,41.3z"/>
				<path class="st4" d="M84.6,39.5c0,0.3,0,0.5,0.1,0.7s0.2,0.4,0.3,0.5c0.1,0.1,0.3,0.2,0.4,0.3c0.2,0.1,0.4,0.1,0.6,0.1
					s0.4,0,0.6-0.1c0.2,0,0.4-0.1,0.5-0.2c0.1,0,0.1,0,0.1,0.1v0.4c0,0,0,0.1-0.1,0.1c-0.2,0.1-0.4,0.1-0.5,0.2
					c-0.2,0-0.4,0.1-0.6,0.1c-0.6,0-1.1-0.2-1.5-0.6c-0.3-0.4-0.5-0.9-0.5-1.7c0-0.7,0.2-1.2,0.5-1.6c0.3-0.4,0.8-0.6,1.3-0.6
					c0.3,0,0.5,0.1,0.8,0.2c0.2,0.1,0.4,0.3,0.5,0.5c0.3,0.4,0.4,0.9,0.4,1.5c0,0.1,0,0.1,0,0.2v0.1c0,0,0,0-0.1,0c0,0-0.1,0-0.2,0
					h-2.6V39.5z M87,39c0-0.2,0-0.4-0.1-0.6c0-0.2-0.1-0.3-0.2-0.5c-0.2-0.3-0.5-0.5-0.8-0.5c-0.4,0-0.7,0.2-0.9,0.5
					c-0.1,0.1-0.2,0.3-0.2,0.5c-0.1,0.2-0.1,0.4-0.1,0.5L87,39L87,39z"/>
				<path class="st4" d="M91.3,41.4h-0.4c-0.1,0-0.1,0-0.1-0.1v-5.6c0-0.1,0-0.1,0.1-0.1h0.4c0.1,0,0.1,0,0.1,0.1L91.3,41.4
					C91.4,41.4,91.3,41.4,91.3,41.4z"/>
				<path class="st4" d="M92.7,38.2c0-0.2,0-0.4,0-0.5s0-0.2,0-0.4c0-0.1,0-0.1,0.1-0.1h0.3c0.1,0,0.1,0,0.1,0.1v0.4
					c0.1-0.2,0.3-0.3,0.5-0.5c0.2-0.1,0.5-0.2,0.7-0.2c0.3,0,0.6,0.1,0.8,0.2c0.2,0.2,0.4,0.4,0.4,0.7c0.1-0.3,0.3-0.5,0.5-0.7
					s0.5-0.2,0.8-0.2c0.2,0,0.4,0,0.6,0.1s0.3,0.2,0.4,0.3s0.2,0.3,0.3,0.4c0.1,0.2,0.1,0.4,0.1,0.5v2.8c0,0.1,0,0.1-0.1,0.1H98
					c-0.1,0-0.1,0-0.1-0.1v-2.7c0-0.7-0.3-1.1-0.9-1.1c-0.2,0-0.3,0-0.5,0.1c-0.1,0.1-0.3,0.2-0.4,0.3s-0.2,0.3-0.2,0.5
					s-0.1,0.4-0.1,0.6V41c0,0.1,0,0.1-0.1,0.1h-0.3c-0.1,0-0.1,0-0.1-0.1v-2.7c0-0.7-0.3-1.1-0.9-1.1c-0.4,0-0.6,0.1-0.8,0.3
					c-0.2,0.2-0.3,0.5-0.3,0.9v2.5c0,0.1,0,0.1-0.1,0.1h-0.3c-0.1,0-0.1,0-0.1-0.1L92.7,38.2L92.7,38.2z"/>
				<path class="st4" d="M99.7,37.3C99.7,37.2,99.7,37.2,99.7,37.3l0.4-0.1c0.1,0,0.1,0,0.1,0.1v0.6c0.1-0.2,0.3-0.4,0.5-0.6
					c0.2-0.1,0.5-0.2,0.9-0.2c0.3,0,0.6,0.1,0.8,0.2s0.4,0.3,0.5,0.4c0.1,0.2,0.2,0.4,0.3,0.7c0.1,0.3,0.1,0.5,0.1,0.8
					s0,0.6-0.1,0.9c-0.1,0.3-0.2,0.5-0.3,0.7c-0.1,0.2-0.3,0.4-0.5,0.5s-0.5,0.2-0.7,0.2c-0.3,0-0.6-0.1-0.8-0.2
					c-0.2-0.1-0.4-0.3-0.5-0.5v1.7c0,0.1,0,0.1-0.1,0.1H100h-0.1c0,0,0,0,0-0.1v-5.2H99.7z M102.7,39.3c0-0.2,0-0.4-0.1-0.6
					c0-0.2-0.1-0.4-0.2-0.5s-0.2-0.3-0.4-0.4c-0.2-0.1-0.4-0.1-0.6-0.1s-0.4,0-0.6,0.1s-0.3,0.2-0.4,0.4s-0.2,0.3-0.2,0.5
					s-0.1,0.4-0.1,0.6c0,0.6,0.1,1.1,0.3,1.4c0.2,0.3,0.5,0.5,0.9,0.5c0.2,0,0.4,0,0.5-0.1s0.3-0.2,0.4-0.4s0.2-0.4,0.2-0.6
					S102.7,39.5,102.7,39.3z"/>
				<path class="st4" d="M105,41.4h-0.3c-0.1,0-0.1,0-0.1-0.1v-6c0-0.1,0-0.1,0.1-0.1h0.3c0.1,0,0.1,0,0.1,0.1L105,41.4
					C105.1,41.4,105,41.4,105,41.4z"/>
				<path class="st4" d="M106.7,39.5c0,0.3,0,0.5,0.1,0.7s0.2,0.4,0.3,0.5c0.1,0.1,0.3,0.2,0.4,0.3c0.2,0.1,0.4,0.1,0.6,0.1
					s0.4,0,0.6-0.1c0.2,0,0.4-0.1,0.5-0.2c0.1,0,0.1,0,0.1,0.1v0.4c0,0,0,0.1-0.1,0.1c-0.2,0.1-0.4,0.1-0.5,0.2
					c-0.2,0-0.4,0.1-0.6,0.1c-0.6,0-1.1-0.2-1.5-0.6c-0.3-0.4-0.5-0.9-0.5-1.7c0-0.7,0.2-1.2,0.5-1.6c0.3-0.4,0.8-0.6,1.3-0.6
					c0.3,0,0.5,0.1,0.8,0.2c0.2,0.1,0.4,0.3,0.5,0.5c0.3,0.4,0.4,0.9,0.4,1.5c0,0.1,0,0.1,0,0.2v0.1c0,0,0,0-0.1,0c0,0-0.1,0-0.2,0
					h-2.6V39.5z M109,39c0-0.2,0-0.4-0.1-0.6c0-0.2-0.1-0.3-0.2-0.5c-0.2-0.3-0.5-0.5-0.8-0.5c-0.4,0-0.7,0.2-0.9,0.5
					c-0.1,0.1-0.2,0.3-0.2,0.5c-0.1,0.2-0.1,0.4-0.1,0.5L109,39L109,39z"/>
				<path class="st4" d="M110.6,38.2c0-0.2,0-0.4,0-0.5s0-0.2,0-0.4c0-0.1,0-0.1,0.1-0.1h0.3c0.1,0,0.1,0,0.1,0.1v0.4
					c0.1-0.2,0.3-0.3,0.5-0.5c0.2-0.1,0.5-0.2,0.7-0.2c0.3,0,0.6,0.1,0.8,0.2s0.4,0.4,0.4,0.7c0.1-0.3,0.3-0.5,0.5-0.7
					s0.5-0.2,0.8-0.2c0.2,0,0.4,0,0.5,0.1c0.2,0.1,0.3,0.2,0.4,0.3s0.2,0.3,0.3,0.4s0.1,0.4,0.1,0.5v2.8c0,0.1,0,0.1-0.1,0.1h-0.3
					c-0.1,0-0.1,0-0.1-0.1v-2.7c0-0.7-0.3-1.1-0.9-1.1c-0.2,0-0.3,0-0.5,0.1c-0.1,0.1-0.3,0.2-0.4,0.3s-0.2,0.3-0.2,0.5
					s-0.1,0.4-0.1,0.6V41c0,0.1,0,0.1-0.1,0.1h-0.3c-0.1,0-0.1,0-0.1-0.1v-2.7c0-0.7-0.3-1.1-0.9-1.1c-0.4,0-0.6,0.1-0.8,0.3
					c-0.2,0.2-0.3,0.5-0.3,0.9v2.5c0,0.1,0,0.1-0.1,0.1h-0.3c-0.1,0-0.1,0-0.1-0.1L110.6,38.2L110.6,38.2z"/>
				<path class="st4" d="M118,39.5c0,0.3,0,0.5,0.1,0.7s0.2,0.4,0.3,0.5c0.1,0.1,0.3,0.2,0.4,0.3c0.2,0.1,0.4,0.1,0.6,0.1
					s0.4,0,0.6-0.1c0.2,0,0.4-0.1,0.5-0.2c0.1,0,0.1,0,0.1,0.1v0.4c0,0,0,0.1-0.1,0.1c-0.2,0.1-0.4,0.1-0.5,0.2
					c-0.2,0-0.4,0.1-0.6,0.1c-0.6,0-1.1-0.2-1.5-0.6c-0.3-0.4-0.5-0.9-0.5-1.7c0-0.7,0.2-1.2,0.5-1.6c0.3-0.4,0.8-0.6,1.3-0.6
					c0.3,0,0.5,0.1,0.8,0.2c0.2,0.1,0.4,0.3,0.5,0.5c0.3,0.4,0.4,0.9,0.4,1.5c0,0.1,0,0.1,0,0.2v0.1c0,0,0,0-0.1,0c0,0-0.1,0-0.2,0
					H118V39.5z M120.3,39c0-0.2,0-0.4-0.1-0.6c0-0.2-0.1-0.3-0.2-0.5c-0.2-0.3-0.5-0.5-0.8-0.5c-0.4,0-0.7,0.2-0.9,0.5
					c-0.1,0.1-0.2,0.3-0.2,0.5c-0.1,0.2-0.1,0.4-0.1,0.5L120.3,39L120.3,39z"/>
				<path class="st4" d="M125.3,41.3C125.3,41.4,125.3,41.4,125.3,41.3l-0.4,0.1c-0.1,0-0.1,0-0.1-0.1v-2.5c0-0.5-0.1-0.8-0.3-1
					s-0.4-0.3-0.7-0.3c-0.4,0-0.7,0.1-1,0.4c-0.2,0.2-0.3,0.6-0.3,1v2.4c0,0.1,0,0.1-0.1,0.1h-0.3c-0.1,0-0.1,0-0.1-0.1v-3.1
					c0-0.2,0-0.4,0-0.5s0-0.2,0-0.4v-0.1h0.1h0.3c0.1,0,0.1,0,0.1,0.1v0.4c0.1-0.2,0.3-0.4,0.5-0.5s0.5-0.2,0.8-0.2
					c0.5,0,0.9,0.1,1.1,0.4c0.3,0.3,0.4,0.7,0.4,1.2V41.3z"/>
				<path class="st4" d="M128.7,41.4c-0.2,0.1-0.4,0.1-0.6,0.1c-0.4,0-0.7-0.1-0.8-0.4c-0.1-0.2-0.1-0.5-0.1-1v-2.5h-0.7
					c-0.1,0-0.1,0-0.1-0.1v-0.2c0-0.1,0-0.1,0.1-0.1h0.7v-1.1c0-0.1,0-0.1,0.1-0.1h0.3c0.1,0,0.1,0,0.1,0.1v1.1h0.9
					c0.1,0,0.1,0,0.1,0.1v0.2c0,0.1,0,0.1-0.1,0.1h-0.9v2.8c0,0.5,0.2,0.7,0.6,0.7c0.1,0,0.3,0,0.5-0.1h0.1c0,0,0,0,0,0.1v0.2
					C128.8,41.4,128.7,41.4,128.7,41.4z"/>
			</g>
			<g>
				<path class="st5" d="M81.6,22.2H71.5l0.3-3.1h10.1L81.6,22.2z"/>
				<path class="st5" d="M106.8,29.9v-1.4c1.6-0.2,1.9-0.4,1.9-2.8v-6.9c0-3.3-1.6-3.9-2.8-3.9c-0.8,0-1.7,0.2-3,1.2
					c0,0.5,0.1,1.1,0.1,1.7v8.1c0,2.2,0.1,2.4,2,2.7V30h-9v-1.4c1.8-0.2,1.9-0.4,1.9-2.7v-7.3c0-2.8-1.1-3.8-2.6-3.8
					c-1,0-2,0.4-3.1,1.2v9.8c0,2.2,0.2,2.4,1.7,2.7v1.4h-9.2v-1.4c2.2-0.3,2.3-0.4,2.3-2.8v-8.5c0-2.2,0-2.6-1.9-2.9V13
					c2.2-0.2,4.5-0.8,7-1.5c0,1,0,2.1,0,3c0.9-0.6,1.6-1.1,2.4-1.6c1.2-0.8,2.2-1.2,3.4-1.2c2.2,0,3.7,1.2,4.5,3
					c1-0.7,1.8-1.3,2.8-2c0.9-0.6,2-1.1,3.2-1.1c3.5,0,5.3,2.4,5.3,6.4v7.8c0,2.2,0.2,2.4,2.2,2.7v1.4
					C115.9,29.9,106.8,29.9,106.8,29.9z"/>
				<path class="st5" d="M118,29.9v-1.4c2.2-0.3,2.4-0.4,2.4-3.3v-7.8c0-2.7-0.2-2.8-2.1-3.1V13c2.5-0.3,5-0.8,7.2-1.4
					c0,1.7,0,3.3,0,5v8.7c0,2.7,0.2,3,2.5,3.3V30h-10V29.9z M122.7,9.2c-1.5,0-2.9-1.3-2.9-2.8c0-1.6,1.4-2.8,2.9-2.8
					c1.6,0,2.9,1.2,2.9,2.8C125.6,7.9,124.3,9.2,122.7,9.2z"/>
				<g>
					<path class="st6" d="M49.6,0"/>
					<path class="st6" d="M43.9,28.4v1.5h12.2v-1.5c-3.1-0.4-3.4-0.5-3.4-3.9v-1.1c-1.6,0.9-3.5,1.3-5.4,1.1l0,0
						C47.3,27.9,46.9,28.1,43.9,28.4z"/>
					<path class="st6" d="M57.8,16.3c-0.2,0.6-0.4,1.9-0.5,1.9l0,0c-0.3,0.8-0.7,1.5-1.2,2.2c2.6,3.6,5.4,7.5,6.9,9.5h8v-1.5
						c-2-0.3-2.6-0.6-4-2.5c-2.9-3.7-5.9-7.8-8.4-11.2c-0.1,0.2-0.2,0.3-0.2,0.5C58.2,15.1,58,15.7,57.8,16.3z"/>
					<path class="st7" d="M38.7,13.1"/>
					<path class="st7" d="M49.6,0"/>
					<path class="st7" d="M43.8,4"/>
					<path class="st7" d="M52.7,23.4v-5.9c0.6-0.1,1.3,0.1,2.1,1.3c0.4,0.5,0.8,1.1,1.2,1.7c0.5-0.7,0.9-1.4,1.2-2.2l0,0
						c0.1,0,0.4-1.2,0.5-1.9c0.2-0.6,0.4-1.2,0.4-1.2c0.1-0.2,0.2-0.3,0.2-0.5c-0.1-0.2-0.2-0.3-0.3-0.5c1.8-1.9,3.7-3.9,5.3-5.6
						c2.5-2.7,4-2.9,6.8-3.3V3.9H59.7v1.5l0.8,0.1c1.8,0.2,2.1,0.8,1.1,2.1c-1.2,1.5-3,3.7-5.7,6.4c-1.3,1.2-2.3,1.9-3.1,2.1V9.3
						c0-3.4,0.4-3.6,3.3-3.9V3.9H43.9v1.5c3,0.3,3.4,0.6,3.4,3.9v15.2C49.3,24.6,51.1,24.2,52.7,23.4z"/>
				</g>
			</g>
		</g>
	</g>
	<g>
		<g class="st8">
			<path class="st9" d="M149.8,24c0,0.5,0,0.6,0.5,0.6c1,0,3.6-0.3,5.3-1.2c0.2-0.1,0.5-0.2,1,0.1c0.8,0.4,0.6,0.7-0.2,1.2
				c-1.5,0.9-4.4,1.5-6.6,1.8c-0.2,0-0.6,0-0.8,0c-0.6,0-1.5-0.7-1.5-1.3V18c0-0.8,0-0.9-0.4-1.1c-0.4-0.2-0.5-0.3-0.5-0.6v-0.8
				l1.4,0.1h3c0.6,0,1.6-0.1,2.4-0.3c0.5-0.1,0.7-0.1,1,0.1l0.4,0.3c0.7,0.4,0.7,0.5,0.5,1c-0.3,0.6-0.4,0.6-1.1,0.6h-4.5
				c0,0.1,0,0.3,0,0.4V24z M157.9,13.6c0-0.7-0.2-1-0.8-1.3c-0.4-0.3,0-1.3,0.6-1l1.6,0.7c0.8,0.3,0.8,0.5,0.8,1.1v6.6h2.5v-7.7
				c0-0.7-0.2-1-0.8-1.3c-0.4-0.3,0-1.3,0.6-1l1.6,0.7c0.8,0.3,0.8,0.5,0.8,1.1v18.3c0,1.2-1.2,2.5-1.6,2.9
				c-0.2,0.2-0.6,0.1-0.6-0.1V21.3h-2.5v7.2c0,1.2-1.2,2.5-1.6,2.9c-0.2,0.2-0.6,0.1-0.6-0.1V13.6z"/>
			<path class="st9" d="M169.7,14.7c-0.8,0-1.3,0-1.5-0.1c-0.2-0.1-0.3-0.3-0.3-0.5l0.2-1.5c1.2,0.2,2.3,0.3,3.4,0.4
				c0.6,0,1.3,0,2,0v-1.2c0-0.6,0-0.7-0.5-1.2c-0.3-0.3,0.1-1,0.4-0.9l1.6,0.5c0.8,0.2,0.8,0.5,0.8,1.1v1.5c1-0.1,2.4-0.2,2.7-0.2
				c1.1-0.1,1.4-0.1,1.7,0.1l0.6,0.4c0.8,0.5,0.9,0.7,0.6,1.1c-0.3,0.6-0.5,0.6-1,0.6c-0.2,0-0.9-0.2-1.4-0.2
				c-1.6-0.1-2.4-0.2-4.1-0.1C173.5,14.4,171.3,14.6,169.7,14.7z M174.8,15.6c2.7,0,4.7,1.6,4.7,4.2c0,2.4-1.8,4.2-4.7,4.2
				c-2.9,0-4.8-1.7-4.8-4.2C170,17.2,171.8,15.6,174.8,15.6z M172.2,19.8c0,1.2,0.8,2.4,2.6,2.4c1.7,0,2.5-1.2,2.5-2.4
				s-0.8-2.4-2.5-2.4C173,17.4,172.2,18.5,172.2,19.8z M185.1,29.8c0,1.2-1.2,2.5-1.7,2.9c-0.2,0.2-0.6,0.1-0.6-0.1v-5.5l-2.6,0
				c-0.2,0-2.3,0.1-2.8,0.1c-2.3,0.1-3.3,0.1-3.6,0.2c-0.3,0-0.8,0.1-1.2-0.2c-0.2-0.1-0.2-0.4-0.2-0.6l0.1-1.2
				c1.2,0.2,2.9,0.2,4.8,0.2c1.5,0,2.7,0,3,0l4.2-0.1c0.2,0,0.3,0.1,0.4,0.1c0.1,0.1,0.2,0.3,0.2,0.4V29.8z M183.2,11.9
				c0-0.7-0.2-1-0.8-1.3c-0.4-0.3,0.1-1.3,0.7-1l1.6,0.7c0.8,0.3,0.8,0.5,0.8,1.1v6.8l0.3,0c0.5,0,0.8,0,1.6-0.3
				c0.6-0.2,0.8-0.3,1.3,0l1.2,0.7c0.3,0.1,0.3,0.4,0.1,0.6l-0.5,0.5c-0.2,0.2-0.6,0.3-0.9,0.2c-0.3-0.1-0.5-0.1-0.9-0.1h-2.4v1.6
				c0,1.2-1.2,2.5-1.7,2.9c-0.2,0.2-0.6,0.1-0.6-0.1V11.9z"/>
			<path class="st9" d="M194.8,21.4l0.1-0.7l2.3,0.2c0.8,0.1,0.9,0.6,0.9,0.9v6c1.1,0,2.1,0,3,0v-5.6c0-0.6,0-0.8-0.7-1
				c-0.3-0.1-0.4-0.4-0.3-0.8l0.1-0.7l2.2,0.2c0.8,0.1,0.9,0.6,0.9,0.9v6.9c2.7-0.1,4.2-0.2,6.1-0.4c1.1-0.1,1.7-0.2,2,0.1l1,0.8
				c0.4,0.3,0.4,0.6,0.2,0.9c-0.2,0.4-0.4,0.5-0.6,0.5c-0.2,0-1.1-0.2-1.6-0.3c-1.3-0.1-5.1-0.1-8.4,0l-8.5,0.3
				c-0.6,0-1.7,0.1-2.2,0c-0.3-0.1-0.4-0.3-0.3-0.7l0.3-1.4c1.2,0.2,3.7,0.3,4.8,0.3v-4.7c0-0.6,0-0.8-0.7-1
				C194.9,22.1,194.7,21.8,194.8,21.4z M208.3,15.1c-0.2,2.3-1,6.8-1.7,9.2c-0.3,1-2,0.6-1.8-0.3c0.6-2.9,1-6,1.2-8.6l-10,0.1
				c-0.3,0-1,0-1.3-0.1c-0.5-0.1-0.6-0.4-0.5-0.8l0.2-1.3c1.3,0.4,3.6,0.5,4.6,0.5c0.8,0,2.4,0,3.5-0.1c1.5,0,2.8-0.1,4.3-0.2
				c0.5-0.1,1.1,0,1.4,0.4c0.1,0.1,0.2,0.3,0.1,0.4L208.3,15.1z"/>
		</g>
	</g>
</g>
</svg>
